{
.appVersion = "1145";
classes = (
{
automatic = 1;

glyphs = (
{
color = 3;
glyphname = A;
lastChange = "2018-05-24 11:05:53 +0000";
layers = (
{
anchors = (
{
name = bottom;
position = "{275, 0}";
},
{
name = ogonek;
position = "{544, 0}";
},
{
name = top;
position = "{286, 587}";
}
);
background = {
anchors = (
{
name = bottom;
position = "{275, 0}";
},
{
name = ogonek;
position = "{544, 0}";
},
{
name = top;
position = "{286, 587}";
}
);
paths = (
{
closed = 1;
nodes = (
"32 0 OFFCURVE",
"63 0 OFFCURVE",
"86 0 CURVE SMOOTH",
"110 0 OFFCURVE",
"141 0 OFFCURVE",
"172 -2 CURVE",
"174 38 LINE",
"150 40 OFFCURVE",
"123 46 OFFCURVE",
"112 49 CURVE",
"166 201 LINE",
"177 231 LINE",
"284 516 LINE",
"258 503 LINE",
"367 231 LINE",
"378 200 LINE",
"438 50 LINE",
"430 47 OFFCURVE",
"400 40 OFFCURVE",
"377 38 CURVE",
"379 -2 LINE",
"409 0 OFFCURVE",
"448 1 OFFCURVE",
"481 1 CURVE SMOOTH",
"512 1 OFFCURVE",
"554 0 OFFCURVE",
"582 -2 CURVE",
"584 38 LINE",
"563 41 OFFCURVE",
"547 45 OFFCURVE",
"534 50 CURVE",
"315 605 LINE",
"257 570 LINE",
"51 49 LINE",
"40 45 OFFCURVE",
"22 40 OFFCURVE",
"2 38 CURVE",
"4 -2 LINE"
);
},
{
closed = 1;
nodes = (
"172 186 OFFCURVE",
"214 188 OFFCURVE",
"277 188 CURVE SMOOTH",
"340 188 OFFCURVE",
"382 186 OFFCURVE",
"409 185 CURVE",
"409 238 LINE",
"385 237 OFFCURVE",
"340 235 OFFCURVE",
"277 235 CURVE SMOOTH",
"214 235 OFFCURVE",
"169 237 OFFCURVE",
"144 238 CURVE",
"144 185 LINE"
);
}
);
};
color = -1;
layerId = "30A8E426-80C1-4FA7-AECB-85F4920FB6F7";
paths = (
{
closed = 1;
nodes = (
"32 0 OFFCURVE",
"63 1 OFFCURVE",
"86 1 CURVE SMOOTH",
"110 1 OFFCURVE",
"141 0 OFFCURVE",
"172 -2 CURVE",
"174 38 LINE",
"150 40 OFFCURVE",
"123 46 OFFCURVE",
"112 49 CURVE",
"166 201 LINE",
"177 231 LINE",
"284 516 LINE",
"258 503 LINE",
"367 231 LINE",
"378 200 LINE",
"438 50 LINE",
"430 47 OFFCURVE",
"400 40 OFFCURVE",
"377 38 CURVE",
"379 -2 LINE",
"409 0 OFFCURVE",
"448 1 OFFCURVE",
"481 1 CURVE SMOOTH",
"512 1 OFFCURVE",
"554 0 OFFCURVE",
"582 -2 CURVE",
"584 38 LINE",
"563 41 OFFCURVE",
"547 45 OFFCURVE",
"534 50 CURVE",
"315 605 LINE",
"257 570 LINE",
"51 49 LINE",
"40 45 OFFCURVE",
"22 40 OFFCURVE",
"2 38 CURVE",
"4 -2 LINE"
);
},
{
closed = 1;
nodes = (
"172 186 OFFCURVE",
"214 187 OFFCURVE",
"277 187 CURVE SMOOTH",
"340 187 OFFCURVE",
"382 186 OFFCURVE",
"409 185 CURVE",
"409 238 LINE",
"385 237 OFFCURVE",
"340 235 OFFCURVE",
"277 235 CURVE SMOOTH",
"214 235 OFFCURVE",
"169 237 OFFCURVE",
"144 238 CURVE",
"144 185 LINE"
);
}
);
width = 587;
},
{
anchors = (
{
name = bottom;
position = "{269, 0}";
},
{
name = ogonek;
position = "{569, 0}";
},
{
name = top;
position = "{293, 587}";
}
);
background = {
anchors = (
{
name = bottom;
position = "{269, 0}";
},
{
name = ogonek;
position = "{569, 0}";
},
{
name = top;
position = "{293, 587}";
}
);
paths = (
{
closed = 1;
nodes = (
"29 0 OFFCURVE",
"69 -1 OFFCURVE",
"96 -1 CURVE SMOOTH",
"124 -1 OFFCURVE",
"164 0 OFFCURVE",
"193 -2 CURVE",
"196 51 LINE",
"170 55 OFFCURVE",
"143 59 OFFCURVE",
"130 62 CURVE",
"178 202 LINE",
"189 232 LINE",
"272 455 LINE",
"241 464 LINE",
"341 229 LINE",
"352 194 LINE",
"407 61 LINE",
"387 57 OFFCURVE",
"367 55 OFFCURVE",
"342 51 CURVE",
"345 -2 LINE",
"374 0 OFFCURVE",
"443 2 OFFCURVE",
"481 2 CURVE SMOOTH",
"517 2 OFFCURVE",
"586 0 OFFCURVE",
"617 -2 CURVE",
"620 51 LINE",
"599 56 OFFCURVE",
"580 57 OFFCURVE",
"568 61 CURVE",
"335 605 LINE",
"251 557 LINE",
"46 62 LINE",
"37 58 OFFCURVE",
"23 55 OFFCURVE",
"-5 51 CURVE",
"-2 -2 LINE"
);
},
{
closed = 1;
nodes = (
"183 170 OFFCURVE",
"214 173 OFFCURVE",
"266 173 CURVE SMOOTH",
"317 173 OFFCURVE",
"350 170 OFFCURVE",
"373 170 CURVE",
"373 238 LINE",
"349 237 OFFCURVE",
"317 234 OFFCURVE",
"266 234 CURVE SMOOTH",
"214 234 OFFCURVE",
"184 237 OFFCURVE",
"159 238 CURVE",
"159 169 LINE"
);
}
);
};
color = -1;
layerId = "C0B3E82F-C341-4413-A405-AFA97EAADFAC";
paths = (
{
closed = 1;
nodes = (
"29 0 OFFCURVE",
"69 -1 OFFCURVE",
"96 -1 CURVE SMOOTH",
"124 -1 OFFCURVE",
"164 0 OFFCURVE",
"193 -2 CURVE",
"196 51 LINE",
"170 55 OFFCURVE",
"143 59 OFFCURVE",
"130 62 CURVE",
"178 202 LINE",
"189 232 LINE",
"272 455 LINE",
"241 464 LINE",
"341 229 LINE",
"352 194 LINE",
"407 61 LINE",
"387 57 OFFCURVE",
"367 55 OFFCURVE",
"342 51 CURVE",
"345 -2 LINE",
"374 0 OFFCURVE",
"443 2 OFFCURVE",
"481 2 CURVE SMOOTH",
"517 2 OFFCURVE",
"586 0 OFFCURVE",
"617 -2 CURVE",
"620 51 LINE",
"599 56 OFFCURVE",
"580 57 OFFCURVE",
"568 61 CURVE",
"335 605 LINE",
"251 557 LINE",
"46 62 LINE",
"37 58 OFFCURVE",
"23 55 OFFCURVE",
"-5 51 CURVE",
"-2 -2 LINE"
);
},
{
closed = 1;
nodes = (
"183 170 OFFCURVE",
"214 172 OFFCURVE",
"266 172 CURVE SMOOTH",
"317 172 OFFCURVE",
"350 170 OFFCURVE",
"373 170 CURVE",
"373 238 LINE",
"349 237 OFFCURVE",
"317 234 OFFCURVE",
"266 234 CURVE SMOOTH",
"214 234 OFFCURVE",
"184 237 OFFCURVE",
"159 238 CURVE",
"159 169 LINE"
);
}
);
width = 609;
}
);
leftKerningGroup = A;
note = A;
rightKerningGroup = A;
unicode = 0041;
},
{
color = 3;
glyphname = Aogonek;
lastChange = "2018-05-24 11:05:53 +0000";
layers = (
{
anchors = (
{
name = bottom;
position = "{275, 0}";
},
{
name = top;
position = "{286, 587}";
}
);
background = {
anchors = (
{
name = bottom;
position = "{275, 0}";
},
{
name = top;
position = "{286, 587}";
}
);
paths = (
{
closed = 1;
nodes = (
"534 -223 OFFCURVE",
"570 -204 OFFCURVE",
"596 -173 CURVE",
"574 -146 LINE",
"553 -167 OFFCURVE",
"531 -181 OFFCURVE",
"505 -181 CURVE SMOOTH",
"470 -181 OFFCURVE",
"447 -158 OFFCURVE",
"447 -122 CURVE SMOOTH",
"447 -69 OFFCURVE",
"501 -21 OFFCURVE",
"582 0 CURVE",
"584 38 LINE",
"563 41 OFFCURVE",
"547 45 OFFCURVE",
"534 50 CURVE",
"315 605 LINE",
"257 570 LINE",
"51 49 LINE",
"40 45 OFFCURVE",
"22 40 OFFCURVE",
"2 38 CURVE",
"4 -2 LINE",
"32 0 OFFCURVE",
"63 0 OFFCURVE",
"86 0 CURVE SMOOTH",
"110 0 OFFCURVE",
"141 0 OFFCURVE",
"172 -2 CURVE",
"174 38 LINE",
"150 40 OFFCURVE",
"123 46 OFFCURVE",
"112 49 CURVE",
"166 201 LINE",
"177 231 LINE",
"284 516 LINE",
"258 503 LINE",
"367 231 LINE",
"378 200 LINE",
"438 50 LINE",
"430 47 OFFCURVE",
"400 40 OFFCURVE",
"377 38 CURVE",
"379 -2 LINE",
"409 0 OFFCURVE",
"448 1 OFFCURVE",
"481 1 CURVE SMOOTH",
"542 1 LINE",
"534 15 LINE",
"436 -18 OFFCURVE",
"377 -71 OFFCURVE",
"377 -132 CURVE SMOOTH",
"377 -183 OFFCURVE",
"421 -223 OFFCURVE",
"491 -223 CURVE SMOOTH"
);
},
{
closed = 1;
nodes = (
"172 186 OFFCURVE",
"214 188 OFFCURVE",
"277 188 CURVE SMOOTH",
"340 188 OFFCURVE",
"382 186 OFFCURVE",
"409 185 CURVE",
"409 238 LINE",
"385 237 OFFCURVE",
"340 235 OFFCURVE",
"277 235 CURVE SMOOTH",
"214 235 OFFCURVE",
"169 237 OFFCURVE",
"144 238 CURVE",
"144 185 LINE"
);
}
);
};
color = -1;
layerId = "30A8E426-80C1-4FA7-AECB-85F4920FB6F7";
paths = (
{
closed = 1;
nodes = (
"534 -223 OFFCURVE",
"570 -204 OFFCURVE",
"596 -173 CURVE",
"574 -146 LINE",
"553 -167 OFFCURVE",
"531 -181 OFFCURVE",
"505 -181 CURVE SMOOTH",
"470 -181 OFFCURVE",
"447 -158 OFFCURVE",
"447 -122 CURVE SMOOTH",
"447 -69 OFFCURVE",
"501 -21 OFFCURVE",
"582 0 CURVE",
"584 38 LINE",
"563 41 OFFCURVE",
"547 45 OFFCURVE",
"534 50 CURVE",
"315 605 LINE",
"257 570 LINE",
"51 49 LINE",
"40 45 OFFCURVE",
"22 40 OFFCURVE",
"2 38 CURVE",
"4 -2 LINE",
"32 0 OFFCURVE",
"63 0 OFFCURVE",
"86 0 CURVE SMOOTH",
"110 0 OFFCURVE",
"141 0 OFFCURVE",
"172 -2 CURVE",
"174 38 LINE",
"150 40 OFFCURVE",
"123 46 OFFCURVE",
"112 49 CURVE",
"166 201 LINE",
"177 231 LINE",
"284 516 LINE",
"258 503 LINE",
"367 231 LINE",
"378 200 LINE",
"438 50 LINE",
"430 47 OFFCURVE",
"400 40 OFFCURVE",
"377 38 CURVE",
"379 -2 LINE",
"409 0 OFFCURVE",
"448 1 OFFCURVE",
"481 1 CURVE SMOOTH",
"542 1 LINE",
"534 15 LINE",
"436 -18 OFFCURVE",
"377 -71 OFFCURVE",
"377 -132 CURVE SMOOTH",
"377 -183 OFFCURVE",
"421 -223 OFFCURVE",
"491 -223 CURVE SMOOTH"
);
},
{
closed = 1;
nodes = (
"172 186 OFFCURVE",
"214 187 OFFCURVE",
"277 187 CURVE SMOOTH",
"340 187 OFFCURVE",
"382 186 OFFCURVE",
"409 185 CURVE",
"409 238 LINE",
"385 237 OFFCURVE",
"340 235 OFFCURVE",
"277 235 CURVE SMOOTH",
"214 235 OFFCURVE",
"169 237 OFFCURVE",
"144 238 CURVE",
"144 185 LINE"
);
}
);
width = 587;
},
{
anchors = (
{
name = bottom;
position = "{269, 0}";
},
{
name = top;
position = "{293, 587}";
}
);
background = {
anchors = (
{
name = bottom;
position = "{269, 0}";
},
{
name = top;
position = "{293, 587}";
}
);
paths = (
{
closed = 1;
nodes = (
"559 -223 OFFCURVE",
"599 -205 OFFCURVE",
"628 -173 CURVE",
"600 -134 LINE",
"576 -157 OFFCURVE",
"554 -168 OFFCURVE",
"532 -168 CURVE SMOOTH",
"502 -168 OFFCURVE",
"480 -148 OFFCURVE",
"480 -113 CURVE SMOOTH",
"480 -63 OFFCURVE",
"534 -18 OFFCURVE",
"617 0 CURVE",
"620 51 LINE",
"599 55 OFFCURVE",
"580 57 OFFCURVE",
"568 61 CURVE",
"335 605 LINE",
"251 557 LINE",
"46 62 LINE",
"37 58 OFFCURVE",
"23 55 OFFCURVE",
"-5 51 CURVE",
"-2 -2 LINE",
"29 0 OFFCURVE",
"69 -1 OFFCURVE",
"96 -1 CURVE SMOOTH",
"124 -1 OFFCURVE",
"164 0 OFFCURVE",
"193 -2 CURVE",
"196 51 LINE",
"170 55 OFFCURVE",
"143 59 OFFCURVE",
"130 62 CURVE",
"178 202 LINE",
"189 232 LINE",
"272 455 LINE",
"241 464 LINE",
"341 229 LINE",
"352 194 LINE",
"407 61 LINE",
"387 57 OFFCURVE",
"367 55 OFFCURVE",
"342 51 CURVE",
"345 -2 LINE",
"374 0 OFFCURVE",
"443 2 OFFCURVE",
"481 2 CURVE SMOOTH",
"552 2 LINE",
"553 14 LINE",
"451 -2 OFFCURVE",
"383 -65 OFFCURVE",
"383 -122 CURVE SMOOTH",
"383 -181 OFFCURVE",
"441 -223 OFFCURVE",
"513 -223 CURVE SMOOTH"
);
},
{
closed = 1;
nodes = (
"183 170 OFFCURVE",
"214 173 OFFCURVE",
"266 173 CURVE SMOOTH",
"317 173 OFFCURVE",
"350 170 OFFCURVE",
"373 170 CURVE",
"373 238 LINE",
"349 237 OFFCURVE",
"317 234 OFFCURVE",
"266 234 CURVE SMOOTH",
"214 234 OFFCURVE",
"184 237 OFFCURVE",
"159 238 CURVE",
"159 169 LINE"
);
}
);
};
color = -1;
layerId = "C0B3E82F-C341-4413-A405-AFA97EAADFAC";
paths = (
{
closed = 1;
nodes = (
"559 -223 OFFCURVE",
"599 -205 OFFCURVE",
"628 -173 CURVE",
"600 -134 LINE",
"576 -157 OFFCURVE",
"554 -168 OFFCURVE",
"532 -168 CURVE SMOOTH",
"502 -168 OFFCURVE",
"480 -148 OFFCURVE",
"480 -113 CURVE SMOOTH",
"480 -63 OFFCURVE",
"534 -18 OFFCURVE",
"617 0 CURVE",
"620 51 LINE",
"599 55 OFFCURVE",
"580 57 OFFCURVE",
"568 61 CURVE",
"335 605 LINE",
"251 557 LINE",
"46 62 LINE",
"37 58 OFFCURVE",
"23 55 OFFCURVE",
"-5 51 CURVE",
"-2 -2 LINE",
"29 0 OFFCURVE",
"69 -1 OFFCURVE",
"96 -1 CURVE SMOOTH",
"124 -1 OFFCURVE",
"164 0 OFFCURVE",
"193 -2 CURVE",
"196 51 LINE",
"170 55 OFFCURVE",
"143 59 OFFCURVE",
"130 62 CURVE",
"178 202 LINE",
"189 232 LINE",
"272 455 LINE",
"241 464 LINE",
"341 229 LINE",
"352 194 LINE",
"407 61 LINE",
"387 57 OFFCURVE",
"367 55 OFFCURVE",
"342 51 CURVE",
"345 -2 LINE",
"374 0 OFFCURVE",
"443 2 OFFCURVE",
"481 2 CURVE SMOOTH",
"552 2 LINE",
"553 14 LINE",
"451 -2 OFFCURVE",
"383 -65 OFFCURVE",
"383 -122 CURVE SMOOTH",
"383 -181 OFFCURVE",
"441 -223 OFFCURVE",
"513 -223 CURVE SMOOTH"
);
},
{
closed = 1;
nodes = (
"183 170 OFFCURVE",
"214 172 OFFCURVE",
"266 172 CURVE SMOOTH",
"317 172 OFFCURVE",
"350 170 OFFCURVE",
"373 170 CURVE",
"373 238 LINE",
"349 237 OFFCURVE",
"317 234 OFFCURVE",
"266 234 CURVE SMOOTH",
"214 234 OFFCURVE",
"184 237 OFFCURVE",
"159 238 CURVE",
"159 169 LINE"
);
}
);
width = 609;
}
);
leftMetricsKey = A;
widthMetricsKey = A;
note = Aogonek;
unicode = 0104;
},
{
color = 3;
glyphname = AE;
lastChange = "2018-05-24 11:05:53 +0000";
layers = (
{
anchors = (
{
name = bottom;
position = "{415, 0}";
},
{
name = top;
position = "{415, 587}";
}
);
background = {
anchors = (
{
name = bottom;
position = "{415, 0}";
},
{
name = top;
position = "{415, 587}";
}
);
paths = (
{
closed = 1;
nodes = (
"669 205 LINE",
"668 237 OFFCURVE",
"667 273 OFFCURVE",
"667 302 CURVE SMOOTH",
"667 332 OFFCURVE",
"668 366 OFFCURVE",
"669 399 CURVE",
"627 399 LINE",
"624 378 OFFCURVE",
"619 346 OFFCURVE",
"614 330 CURVE",
"606 328 OFFCURVE",
"589 327 OFFCURVE",
"568 327 CURVE SMOOTH",
"501 327 LINE SMOOTH",
"483 327 OFFCURVE",
"464 328 OFFCURVE",
"441 329 CURVE",
"441 275 LINE",
"464 276 OFFCURVE",
"483 277 OFFCURVE",
"501 277 CURVE SMOOTH",
"568 277 LINE SMOOTH",
"589 277 OFFCURVE",
"606 276 OFFCURVE",
"614 274 CURVE",
"619 258 OFFCURVE",
"624 225 OFFCURVE",
"627 205 CURVE"
);
},
{
closed = 1;
nodes = (
"197 182 OFFCURVE",
"234 183 OFFCURVE",
"287 183 CURVE SMOOTH",
"340 183 OFFCURVE",
"375 182 OFFCURVE",
"398 180 CURVE",
"398 234 LINE",
"377 232 OFFCURVE",
"340 231 OFFCURVE",
"287 231 CURVE SMOOTH",
"234 231 OFFCURVE",
"200 232 OFFCURVE",
"179 234 CURVE",
"167 180 LINE"
);
},
{
closed = 1;
nodes = (
"710 105 OFFCURVE",
"692 70 OFFCURVE",
"681 52 CURVE",
"669 49 OFFCURVE",
"654 48 OFFCURVE",
"609 48 CURVE SMOOTH",
"524 48 LINE SMOOTH",
"495 48 OFFCURVE",
"477 50 OFFCURVE",
"460 52 CURVE",
"459 62 OFFCURVE",
"458 108 OFFCURVE",
"458 153 CURVE SMOOTH",
"458 423 LINE SMOOTH",
"458 468 OFFCURVE",
"459 529 OFFCURVE",
"460 538 CURVE",
"476 540 OFFCURVE",
"495 542 OFFCURVE",
"521 542 CURVE SMOOTH",
"625 542 LINE SMOOTH",
"637 542 OFFCURVE",
"651 541 OFFCURVE",
"662 539 CURVE",
"674 515 OFFCURVE",
"685 486 OFFCURVE",
"696 452 CURVE",
"741 459 LINE",
"721 591 LINE",
"689 589 OFFCURVE",
"653 587 OFFCURVE",
"621 587 CURVE SMOOTH",
"416 587 LINE SMOOTH",
"384 587 OFFCURVE",
"327 587 OFFCURVE",
"291 589 CURVE",
"289 548 LINE",
"317 546 OFFCURVE",
"356 539 OFFCURVE",
"366 534 CURVE",
"368 570 LINE",
"35 49 LINE",
"23 45 OFFCURVE",
"6 40 OFFCURVE",
"-14 38 CURVE",
"-12 -2 LINE",
"16 0 OFFCURVE",
"53 0 OFFCURVE",
"77 0 CURVE SMOOTH",
"101 0 OFFCURVE",
"131 0 OFFCURVE",
"162 -2 CURVE",
"164 38 LINE",
"141 40 OFFCURVE",
"113 46 OFFCURVE",
"102 49 CURVE",
"401 539 LINE",
"372 520 LINE",
"372 158 LINE SMOOTH",
"372 91 OFFCURVE",
"371 59 OFFCURVE",
"368 52 CURVE",
"360 48 OFFCURVE",
"330 40 OFFCURVE",
"307 38 CURVE",
"309 -3 LINE",
"340 -1 OFFCURVE",
"384 0 OFFCURVE",
"416 0 CURVE SMOOTH",
"643 0 LINE SMOOTH",
"676 0 OFFCURVE",
"707 -2 OFFCURVE",
"738 -5 CURVE",
"777 141 LINE",
"732 150 LINE"
);
}
);
};
color = -1;
layerId = "30A8E426-80C1-4FA7-AECB-85F4920FB6F7";
paths = (
{
closed = 1;
nodes = (
"669 205 LINE",
"668 237 OFFCURVE",
"667 273 OFFCURVE",
"667 302 CURVE SMOOTH",
"667 332 OFFCURVE",
"668 366 OFFCURVE",
"669 399 CURVE",
"627 399 LINE",
"624 378 OFFCURVE",
"619 346 OFFCURVE",
"614 330 CURVE",
"606 328 OFFCURVE",
"589 327 OFFCURVE",
"568 327 CURVE SMOOTH",
"501 327 LINE SMOOTH",
"483 327 OFFCURVE",
"464 328 OFFCURVE",
"441 329 CURVE",
"441 275 LINE",
"464 276 OFFCURVE",
"483 277 OFFCURVE",
"501 277 CURVE SMOOTH",
"568 277 LINE SMOOTH",
"589 277 OFFCURVE",
"606 276 OFFCURVE",
"614 274 CURVE",
"619 258 OFFCURVE",
"624 225 OFFCURVE",
"627 205 CURVE"
);
},
{
closed = 1;
nodes = (
"197 182 OFFCURVE",
"234 182 OFFCURVE",
"287 182 CURVE SMOOTH",
"340 182 OFFCURVE",
"375 182 OFFCURVE",
"398 180 CURVE",
"398 234 LINE",
"377 232 OFFCURVE",
"340 231 OFFCURVE",
"287 231 CURVE SMOOTH",
"234 231 OFFCURVE",
"200 232 OFFCURVE",
"179 234 CURVE",
"167 180 LINE"
);
},
{
closed = 1;
nodes = (
"710 105 OFFCURVE",
"692 70 OFFCURVE",
"681 52 CURVE",
"669 49 OFFCURVE",
"654 48 OFFCURVE",
"609 48 CURVE SMOOTH",
"524 48 LINE SMOOTH",
"495 48 OFFCURVE",
"477 50 OFFCURVE",
"460 52 CURVE",
"459 62 OFFCURVE",
"458 108 OFFCURVE",
"458 153 CURVE SMOOTH",
"458 423 LINE SMOOTH",
"458 468 OFFCURVE",
"459 529 OFFCURVE",
"460 538 CURVE",
"476 540 OFFCURVE",
"495 542 OFFCURVE",
"521 542 CURVE SMOOTH",
"625 542 LINE SMOOTH",
"637 542 OFFCURVE",
"651 541 OFFCURVE",
"662 539 CURVE",
"674 515 OFFCURVE",
"685 486 OFFCURVE",
"696 452 CURVE",
"741 459 LINE",
"721 591 LINE",
"689 589 OFFCURVE",
"653 587 OFFCURVE",
"621 587 CURVE SMOOTH",
"416 587 LINE SMOOTH",
"384 587 OFFCURVE",
"327 587 OFFCURVE",
"291 589 CURVE",
"289 548 LINE",
"317 546 OFFCURVE",
"356 539 OFFCURVE",
"366 534 CURVE",
"368 570 LINE",
"35 49 LINE",
"23 45 OFFCURVE",
"6 40 OFFCURVE",
"-14 38 CURVE",
"-12 -2 LINE",
"16 0 OFFCURVE",
"53 0 OFFCURVE",
"77 0 CURVE SMOOTH",
"101 0 OFFCURVE",
"131 0 OFFCURVE",
"162 -2 CURVE",
"164 38 LINE",
"141 40 OFFCURVE",
"113 46 OFFCURVE",
"102 49 CURVE",
"401 539 LINE",
"372 520 LINE",
"372 158 LINE SMOOTH",
"372 91 OFFCURVE",
"371 59 OFFCURVE",
"368 52 CURVE",
"360 48 OFFCURVE",
"330 40 OFFCURVE",
"307 38 CURVE",
"309 -3 LINE",
"340 -1 OFFCURVE",
"384 0 OFFCURVE",
"416 0 CURVE SMOOTH",
"643 0 LINE SMOOTH",
"676 0 OFFCURVE",
"707 -2 OFFCURVE",
"738 -5 CURVE",
"777 141 LINE",
"732 150 LINE"
);
}
);
width = 810;
},
{
anchors = (
{
name = bottom;
position = "{435, 0}";
},
{
name = top;
position = "{435, 587}";
}
);
background = {
anchors = (
{
name = bottom;
position = "{435, 0}";
},
{
name = top;
position = "{435, 587}";
}
);
paths = (
{
closed = 1;
nodes = (
"703 199 LINE",
"703 232 OFFCURVE",
"701 269 OFFCURVE",
"701 301 CURVE SMOOTH",
"701 334 OFFCURVE",
"703 367 OFFCURVE",
"703 401 CURVE",
"648 401 LINE",
"645 380 OFFCURVE",
"639 343 OFFCURVE",
"636 335 CURVE",
"628 335 OFFCURVE",
"606 333 OFFCURVE",
"580 333 CURVE SMOOTH",
"537 333 LINE SMOOTH",
"513 333 OFFCURVE",
"492 335 OFFCURVE",
"480 336 CURVE",
"480 266 LINE",
"492 267 OFFCURVE",
"513 269 OFFCURVE",
"537 269 CURVE SMOOTH",
"580 269 LINE SMOOTH",
"606 269 OFFCURVE",
"628 267 OFFCURVE",
"636 267 CURVE",
"639 259 OFFCURVE",
"645 219 OFFCURVE",
"648 199 CURVE"
);
},
{
closed = 1;
nodes = (
"175 163 OFFCURVE",
"209 165 OFFCURVE",
"265 165 CURVE SMOOTH",
"320 165 OFFCURVE",
"355 163 OFFCURVE",
"380 162 CURVE",
"380 230 LINE",
"354 228 OFFCURVE",
"320 226 OFFCURVE",
"265 226 CURVE SMOOTH",
"209 226 OFFCURVE",
"199 228 OFFCURVE",
"173 230 CURVE",
"153 161 LINE"
);
},
{
closed = 1;
nodes = (
"743 130 OFFCURVE",
"727 94 OFFCURVE",
"708 64 CURVE",
"689 60 OFFCURVE",
"679 60 OFFCURVE",
"637 60 CURVE SMOOTH",
"593 60 LINE SMOOTH",
"553 60 OFFCURVE",
"530 62 OFFCURVE",
"505 65 CURVE",
"503 82 OFFCURVE",
"503 126 OFFCURVE",
"503 194 CURVE SMOOTH",
"503 402 LINE SMOOTH",
"503 469 OFFCURVE",
"503 513 OFFCURVE",
"505 528 CURVE",
"523 531 OFFCURVE",
"551 532 OFFCURVE",
"571 532 CURVE SMOOTH",
"636 532 LINE SMOOTH",
"652 532 OFFCURVE",
"664 531 OFFCURVE",
"682 528 CURVE",
"696 500 OFFCURVE",
"703 474 OFFCURVE",
"719 435 CURVE",
"778 443 LINE",
"750 592 LINE",
"716 591 OFFCURVE",
"638 587 OFFCURVE",
"596 587 CURVE SMOOTH",
"435 587 LINE SMOOTH",
"392 587 OFFCURVE",
"307 589 OFFCURVE",
"279 591 CURVE",
"276 536 LINE",
"300 535 OFFCURVE",
"342 529 OFFCURVE",
"351 520 CURVE",
"361 559 LINE",
"27 62 LINE",
"17 58 OFFCURVE",
"7 55 OFFCURVE",
"-21 51 CURVE",
"-18 -2 LINE",
"13 0 OFFCURVE",
"47 -1 OFFCURVE",
"75 -1 CURVE SMOOTH",
"103 -1 OFFCURVE",
"141 0 OFFCURVE",
"170 -2 CURVE",
"173 51 LINE",
"148 55 OFFCURVE",
"121 59 OFFCURVE",
"108 62 CURVE",
"401 513 LINE",
"366 502 LINE",
"366 250 LINE",
"366 137 OFFCURVE",
"367 75 OFFCURVE",
"366 67 CURVE",
"353 59 OFFCURVE",
"323 54 OFFCURVE",
"298 50 CURVE",
"301 -5 LINE",
"331 -2 OFFCURVE",
"392 0 OFFCURVE",
"435 0 CURVE SMOOTH",
"634 0 LINE SMOOTH",
"676 0 OFFCURVE",
"740 -4 OFFCURVE",
"775 -6 CURVE",
"820 157 LINE",
"763 168 LINE"
);
}
);
};
color = -1;
layerId = "C0B3E82F-C341-4413-A405-AFA97EAADFAC";
paths = (
{
closed = 1;
nodes = (
"703 199 LINE",
"703 232 OFFCURVE",
"701 269 OFFCURVE",
"701 301 CURVE SMOOTH",
"701 334 OFFCURVE",
"703 367 OFFCURVE",
"703 401 CURVE",
"648 401 LINE",
"645 380 OFFCURVE",
"639 343 OFFCURVE",
"636 335 CURVE",
"628 335 OFFCURVE",
"606 333 OFFCURVE",
"580 333 CURVE SMOOTH",
"537 333 LINE SMOOTH",
"513 333 OFFCURVE",
"492 335 OFFCURVE",
"480 336 CURVE",
"480 266 LINE",
"492 267 OFFCURVE",
"513 269 OFFCURVE",
"537 269 CURVE SMOOTH",
"580 269 LINE SMOOTH",
"606 269 OFFCURVE",
"628 267 OFFCURVE",
"636 267 CURVE",
"639 259 OFFCURVE",
"645 219 OFFCURVE",
"648 199 CURVE"
);
},
{
closed = 1;
nodes = (
"175 163 OFFCURVE",
"209 164 OFFCURVE",
"265 164 CURVE SMOOTH",
"320 164 OFFCURVE",
"355 163 OFFCURVE",
"380 162 CURVE",
"380 230 LINE",
"354 228 OFFCURVE",
"320 226 OFFCURVE",
"265 226 CURVE SMOOTH",
"209 226 OFFCURVE",
"199 228 OFFCURVE",
"173 230 CURVE",
"153 161 LINE"
);
},
{
closed = 1;
nodes = (
"743 130 OFFCURVE",
"727 94 OFFCURVE",
"708 64 CURVE",
"689 60 OFFCURVE",
"679 60 OFFCURVE",
"637 60 CURVE SMOOTH",
"593 60 LINE SMOOTH",
"553 60 OFFCURVE",
"530 62 OFFCURVE",
"505 65 CURVE",
"503 82 OFFCURVE",
"503 126 OFFCURVE",
"503 194 CURVE SMOOTH",
"503 402 LINE SMOOTH",
"503 469 OFFCURVE",
"503 513 OFFCURVE",
"505 528 CURVE",
"523 531 OFFCURVE",
"551 532 OFFCURVE",
"571 532 CURVE SMOOTH",
"636 532 LINE SMOOTH",
"652 532 OFFCURVE",
"664 531 OFFCURVE",
"682 528 CURVE",
"696 500 OFFCURVE",
"703 474 OFFCURVE",
"719 435 CURVE",
"778 443 LINE",
"750 592 LINE",
"716 591 OFFCURVE",
"638 587 OFFCURVE",
"596 587 CURVE SMOOTH",
"435 587 LINE SMOOTH",
"392 587 OFFCURVE",
"307 589 OFFCURVE",
"279 591 CURVE",
"276 536 LINE",
"300 535 OFFCURVE",
"342 529 OFFCURVE",
"351 520 CURVE",
"361 559 LINE",
"27 62 LINE",
"17 58 OFFCURVE",
"7 55 OFFCURVE",
"-21 51 CURVE",
"-18 -2 LINE",
"13 0 OFFCURVE",
"47 -1 OFFCURVE",
"75 -1 CURVE SMOOTH",
"103 -1 OFFCURVE",
"141 0 OFFCURVE",
"170 -2 CURVE",
"173 51 LINE",
"148 55 OFFCURVE",
"121 59 OFFCURVE",
"108 62 CURVE",
"401 513 LINE",
"366 502 LINE",
"366 250 LINE",
"366 137 OFFCURVE",
"367 75 OFFCURVE",
"366 67 CURVE",
"353 59 OFFCURVE",
"323 54 OFFCURVE",
"298 50 CURVE",
"301 -5 LINE",
"331 -2 OFFCURVE",
"392 0 OFFCURVE",
"435 0 CURVE SMOOTH",
"634 0 LINE SMOOTH",
"676 0 OFFCURVE",
"740 -4 OFFCURVE",
"775 -6 CURVE",
"820 157 LINE",
"763 168 LINE"
);
}
);
width = 840;
}
);
note = AE;
unicode = 00C6;
},
{
color = 3;
glyphname = B;
lastChange = "2018-05-24 20:21:06 +0000";
layers = (
{
anchors = (
{
name = bottom;
position = "{280, 0}";
},
{
name = top;
position = "{280, 587}";
}
);
background = {
anchors = (
{
name = bottom;
position = "{280, 0}";
},
{
name = top;
position = "{280, 587}";
}
);
paths = (
{
closed = 1;
nodes = (
"100 48 OFFCURVE",
"69 40 OFFCURVE",
"46 38 CURVE",
"48 -3 LINE",
"68 -1 OFFCURVE",
"123 2 OFFCURVE",
"172 2 CURVE SMOOTH",
"203 2 OFFCURVE",
"233 -1 OFFCURVE",
"265 -1 CURVE SMOOTH",
"426 -1 OFFCURVE",
"506 72 OFFCURVE",
"506 170 CURVE SMOOTH",
"506 257 OFFCURVE",
"441 313 OFFCURVE",
"317 317 CURVE",
"328 310 LINE",
"425 318 OFFCURVE",
"476 381 OFFCURVE",
"476 447 CURVE SMOOTH",
"476 538 OFFCURVE",
"410 589 OFFCURVE",
"279 589 CURVE SMOOTH",
"224 589 OFFCURVE",
"178 587 OFFCURVE",
"146 587 CURVE SMOOTH",
"113 587 OFFCURVE",
"82 586 OFFCURVE",
"48 588 CURVE",
"46 546 LINE",
"69 547 OFFCURVE",
"100 541 OFFCURVE",
"106 536 CURVE",
"110 530 OFFCURVE",
"114 496 OFFCURVE",
"114 387 CURVE SMOOTH",
"114 199 LINE SMOOTH",
"114 91 OFFCURVE",
"109 58 OFFCURVE",
"106 52 CURVE"
);
},
{
closed = 1;
nodes = (
"199 413 LINE SMOOTH",
"199 494 OFFCURVE",
"200 533 OFFCURVE",
"201 540 CURVE",
"213 543 OFFCURVE",
"239 546 OFFCURVE",
"263 546 CURVE SMOOTH",
"338 546 OFFCURVE",
"385 511 OFFCURVE",
"385 437 CURVE SMOOTH",
"385 369 OFFCURVE",
"342 325 OFFCURVE",
"254 325 CURVE SMOOTH",
"233 325 OFFCURVE",
"208 325 OFFCURVE",
"185 327 CURVE",
"185 276 LINE",
"208 278 OFFCURVE",
"232 278 OFFCURVE",
"271 278 CURVE SMOOTH",
"362 278 OFFCURVE",
"415 239 OFFCURVE",
"415 161 CURVE SMOOTH",
"415 85 OFFCURVE",
"369 46 OFFCURVE",
"279 46 CURVE SMOOTH",
"247 46 OFFCURVE",
"213 50 OFFCURVE",
"201 53 CURVE",
"200 62 OFFCURVE",
"199 109 OFFCURVE",
"199 177 CURVE SMOOTH"
);
}
);
};
color = -1;
layerId = "30A8E426-80C1-4FA7-AECB-85F4920FB6F7";
paths = (
{
closed = 1;
nodes = (
"100 48 OFFCURVE",
"69 40 OFFCURVE",
"46 38 CURVE",
"48 -3 LINE",
"68 -1 OFFCURVE",
"123 2 OFFCURVE",
"172 2 CURVE SMOOTH",
"203 2 OFFCURVE",
"233 -1 OFFCURVE",
"267 -1 CURVE SMOOTH",
"431 -1 OFFCURVE",
"516 72 OFFCURVE",
"516 169 CURVE SMOOTH",
"516 259 OFFCURVE",
"448 313 OFFCURVE",
"319 317 CURVE",
"330 310 LINE",
"433 318 OFFCURVE",
"486 381 OFFCURVE",
"486 447 CURVE SMOOTH",
"486 538 OFFCURVE",
"417 589 OFFCURVE",
"291 589 CURVE SMOOTH",
"224 589 OFFCURVE",
"178 587 OFFCURVE",
"146 587 CURVE SMOOTH",
"113 587 OFFCURVE",
"82 586 OFFCURVE",
"48 588 CURVE",
"46 546 LINE",
"69 547 OFFCURVE",
"100 541 OFFCURVE",
"106 536 CURVE",
"110 530 OFFCURVE",
"114 496 OFFCURVE",
"114 387 CURVE SMOOTH",
"114 199 LINE SMOOTH",
"114 91 OFFCURVE",
"109 58 OFFCURVE",
"106 52 CURVE"
);
},
{
closed = 1;
nodes = (
"198 413 LINE SMOOTH",
"198 494 OFFCURVE",
"199 532 OFFCURVE",
"200 539 CURVE",
"212 542 OFFCURVE",
"240 545 OFFCURVE",
"270 545 CURVE SMOOTH",
"345 545 OFFCURVE",
"395 511 OFFCURVE",
"395 437 CURVE SMOOTH",
"395 369 OFFCURVE",
"350 325 OFFCURVE",
"258 325 CURVE SMOOTH",
"234 325 OFFCURVE",
"208 325 OFFCURVE",
"185 327 CURVE",
"185 276 LINE",
"208 278 OFFCURVE",
"232 278 OFFCURVE",
"263 278 CURVE SMOOTH",
"369 278 OFFCURVE",
"425 239 OFFCURVE",
"425 159 CURVE SMOOTH",
"425 85 OFFCURVE",
"377 46 OFFCURVE",
"271 46 CURVE SMOOTH",
"247 46 OFFCURVE",
"213 50 OFFCURVE",
"201 53 CURVE",
"200 62 OFFCURVE",
"198 109 OFFCURVE",
"198 177 CURVE SMOOTH"
);
}
);
width = 565;
},
{
anchors = (
{
name = bottom;
position = "{305, 0}";
},
{
name = top;
position = "{305, 587}";
}
);
background = {
anchors = (
{
name = bottom;
position = "{305, 0}";
},
{
name = top;
position = "{305, 587}";
}
);
paths = (
{
closed = 1;
nodes = (
"85 59 OFFCURVE",
"57 54 OFFCURVE",
"32 50 CURVE",
"35 -5 LINE",
"69 -1 OFFCURVE",
"155 2 OFFCURVE",
"203 2 CURVE SMOOTH",
"233 2 OFFCURVE",
"268 -2 OFFCURVE",
"300 -2 CURVE SMOOTH",
"467 -2 OFFCURVE",
"561 69 OFFCURVE",
"561 175 CURVE SMOOTH",
"561 254 OFFCURVE",
"513 312 OFFCURVE",
"366 320 CURVE",
"359 312 LINE",
"472 319 OFFCURVE",
"531 381 OFFCURVE",
"531 447 CURVE SMOOTH",
"531 539 OFFCURVE",
"468 590 OFFCURVE",
"322 590 CURVE SMOOTH",
"263 590 OFFCURVE",
"208 588 OFFCURVE",
"176 588 CURVE SMOOTH",
"133 588 OFFCURVE",
"87 586 OFFCURVE",
"35 589 CURVE",
"32 533 LINE",
"57 533 OFFCURVE",
"85 528 OFFCURVE",
"96 519 CURVE",
"100 512 OFFCURVE",
"103 451 OFFCURVE",
"103 366 CURVE SMOOTH",
"103 221 LINE SMOOTH",
"103 137 OFFCURVE",
"100 75 OFFCURVE",
"96 67 CURVE"
);
},
{
closed = 1;
nodes = (
"241 409 LINE SMOOTH",
"241 484 OFFCURVE",
"243 523 OFFCURVE",
"244 530 CURVE",
"252 532 OFFCURVE",
"270 535 OFFCURVE",
"287 535 CURVE SMOOTH",
"341 535 OFFCURVE",
"384 502 OFFCURVE",
"384 434 CURVE SMOOTH",
"384 369 OFFCURVE",
"349 331 OFFCURVE",
"286 331 CURVE SMOOTH",
"267 331 OFFCURVE",
"252 331 OFFCURVE",
"232 332 CURVE",
"232 266 LINE",
"252 268 OFFCURVE",
"267 268 OFFCURVE",
"284 268 CURVE SMOOTH",
"375 268 OFFCURVE",
"414 231 OFFCURVE",
"414 166 CURVE SMOOTH",
"414 94 OFFCURVE",
"373 59 OFFCURVE",
"306 59 CURVE SMOOTH",
"278 59 OFFCURVE",
"254 64 OFFCURVE",
"244 67 CURVE",
"243 76 OFFCURVE",
"241 109 OFFCURVE",
"241 177 CURVE SMOOTH"
);
}
);
};
color = -1;
layerId = "C0B3E82F-C341-4413-A405-AFA97EAADFAC";
paths = (
{
closed = 1;
nodes = (
"85 59 OFFCURVE",
"57 54 OFFCURVE",
"32 50 CURVE",
"35 -5 LINE",
"69 -1 OFFCURVE",
"155 2 OFFCURVE",
"203 2 CURVE SMOOTH",
"233 2 OFFCURVE",
"268 -2 OFFCURVE",
"300 -2 CURVE SMOOTH",
"470 -2 OFFCURVE",
"561 67 OFFCURVE",
"561 172 CURVE SMOOTH",
"561 252 OFFCURVE",
"503 313 OFFCURVE",
"366 320 CURVE",
"359 312 LINE",
"472 319 OFFCURVE",
"531 381 OFFCURVE",
"531 447 CURVE SMOOTH",
"531 539 OFFCURVE",
"468 590 OFFCURVE",
"322 590 CURVE SMOOTH",
"263 590 OFFCURVE",
"208 588 OFFCURVE",
"176 588 CURVE SMOOTH",
"133 588 OFFCURVE",
"87 586 OFFCURVE",
"35 589 CURVE",
"32 533 LINE",
"57 533 OFFCURVE",
"85 528 OFFCURVE",
"96 519 CURVE",
"100 512 OFFCURVE",
"103 451 OFFCURVE",
"103 366 CURVE SMOOTH",
"103 221 LINE SMOOTH",
"103 137 OFFCURVE",
"100 75 OFFCURVE",
"96 67 CURVE"
);
},
{
closed = 1;
nodes = (
"239 409 LINE SMOOTH",
"239 484 OFFCURVE",
"241 523 OFFCURVE",
"242 530 CURVE",
"250 532 OFFCURVE",
"269 535 OFFCURVE",
"287 535 CURVE SMOOTH",
"341 535 OFFCURVE",
"384 502 OFFCURVE",
"384 434 CURVE SMOOTH",
"384 369 OFFCURVE",
"349 331 OFFCURVE",
"283 331 CURVE SMOOTH",
"267 331 OFFCURVE",
"251 331 OFFCURVE",
"231 332 CURVE",
"231 266 LINE",
"251 268 OFFCURVE",
"267 268 OFFCURVE",
"287 268 CURVE SMOOTH",
"375 268 OFFCURVE",
"414 231 OFFCURVE",
"414 158 CURVE SMOOTH",
"414 94 OFFCURVE",
"373 59 OFFCURVE",
"306 59 CURVE SMOOTH",
"277 59 OFFCURVE",
"252 64 OFFCURVE",
"242 67 CURVE",
"241 76 OFFCURVE",
"239 109 OFFCURVE",
"239 177 CURVE SMOOTH"
);
}
);
width = 610;
}
);
leftKerningGroup = B;
note = B;
rightKerningGroup = B;
unicode = 0042;
},
{
color = 3;
glyphname = C;
lastChange = "2018-05-24 11:05:53 +0000";
layers = (
{
anchors = (
{
name = bottom;
position = "{350, 0}";
},
{
name = top;
position = "{350, 587}";
}
);
background = {
anchors = (
{
name = bottom;
position = "{350, 0}";
},
{
name = top;
position = "{350, 587}";
}
);
paths = (
{
closed = 1;
nodes = (
"438 -9 OFFCURVE",
"503 11 OFFCURVE",
"549 35 CURVE",
"560 76 OFFCURVE",
"570 119 OFFCURVE",
"577 161 CURVE",
"530 166 LINE",
"514 129 OFFCURVE",
"502 102 OFFCURVE",
"486 72 CURVE",
"456 53 OFFCURVE",
"421 44 OFFCURVE",
"379 44 CURVE SMOOTH",
"257 44 OFFCURVE",
"159 136 OFFCURVE",
"159 307 CURVE SMOOTH",
"159 436 OFFCURVE",
"223 545 OFFCURVE",
"373 545 CURVE SMOOTH",
"411 545 OFFCURVE",
"457 536 OFFCURVE",
"483 519 CURVE",
"495 488 OFFCURVE",
"504 456 OFFCURVE",
"513 424 CURVE",
"558 428 LINE",
"551 565 LINE",
"503 585 OFFCURVE",
"436 596 OFFCURVE",
"382 596 CURVE SMOOTH",
"174 596 OFFCURVE",
"53 456 OFFCURVE",
"53 289 CURVE SMOOTH",
"53 92 OFFCURVE",
"195 -9 OFFCURVE",
"369 -9 CURVE SMOOTH"
);
}
);
};
color = -1;
layerId = "30A8E426-80C1-4FA7-AECB-85F4920FB6F7";
paths = (
{
closed = 1;
nodes = (
"438 -9 OFFCURVE",
"503 11 OFFCURVE",
"549 35 CURVE",
"560 76 OFFCURVE",
"570 119 OFFCURVE",
"577 161 CURVE",
"531 166 LINE",
"515 129 OFFCURVE",
"503 102 OFFCURVE",
"487 72 CURVE",
"456 53 OFFCURVE",
"421 44 OFFCURVE",
"379 44 CURVE SMOOTH",
"257 44 OFFCURVE",
"159 136 OFFCURVE",
"159 307 CURVE SMOOTH",
"159 436 OFFCURVE",
"223 545 OFFCURVE",
"373 545 CURVE SMOOTH",
"411 545 OFFCURVE",
"457 536 OFFCURVE",
"483 519 CURVE",
"495 488 OFFCURVE",
"504 456 OFFCURVE",
"513 424 CURVE",
"558 428 LINE",
"551 565 LINE",
"503 585 OFFCURVE",
"436 596 OFFCURVE",
"382 596 CURVE SMOOTH",
"174 596 OFFCURVE",
"53 456 OFFCURVE",
"53 289 CURVE SMOOTH",
"53 92 OFFCURVE",
"195 -9 OFFCURVE",
"369 -9 CURVE SMOOTH"
);
}
);
width = 605;
},
{
anchors = (
{
name = bottom;
position = "{354, 0}";
},
{
name = top;
position = "{354, 587}";
}
);
background = {
anchors = (
{
name = bottom;
position = "{354, 0}";
},
{
name = top;
position = "{354, 587}";
}
);
paths = (
{
closed = 1;
nodes = (
"454 -9 OFFCURVE",
"533 16 OFFCURVE",
"573 42 CURVE",
"585 88 OFFCURVE",
"594 131 OFFCURVE",
"602 176 CURVE",
"532 183 LINE",
"522 159 OFFCURVE",
"512 127 OFFCURVE",
"497 94 CURVE",
"477 72 OFFCURVE",
"432 61 OFFCURVE",
"401 61 CURVE SMOOTH",
"295 61 OFFCURVE",
"211 154 OFFCURVE",
"211 320 CURVE SMOOTH",
"211 442 OFFCURVE",
"275 529 OFFCURVE",
"389 529 CURVE SMOOTH",
"422 529 OFFCURVE",
"451 522 OFFCURVE",
"477 510 CURVE",
"490 475 OFFCURVE",
"501 439 OFFCURVE",
"513 404 CURVE",
"575 408 LINE",
"568 562 LINE",
"526 582 OFFCURVE",
"460 596 OFFCURVE",
"401 596 CURVE SMOOTH",
"196 596 OFFCURVE",
"47 478 OFFCURVE",
"47 283 CURVE SMOOTH",
"47 98 OFFCURVE",
"180 -9 OFFCURVE",
"376 -9 CURVE SMOOTH"
);
}
);
};
color = -1;
layerId = "C0B3E82F-C341-4413-A405-AFA97EAADFAC";
paths = (
{
closed = 1;
nodes = (
"454 -9 OFFCURVE",
"533 16 OFFCURVE",
"573 42 CURVE",
"585 88 OFFCURVE",
"594 131 OFFCURVE",
"602 176 CURVE",
"534 183 LINE",
"524 159 OFFCURVE",
"514 127 OFFCURVE",
"499 94 CURVE",
"479 72 OFFCURVE",
"432 61 OFFCURVE",
"401 61 CURVE SMOOTH",
"295 61 OFFCURVE",
"211 154 OFFCURVE",
"211 308 CURVE SMOOTH",
"211 444 OFFCURVE",
"275 529 OFFCURVE",
"389 529 CURVE SMOOTH",
"422 529 OFFCURVE",
"451 522 OFFCURVE",
"477 510 CURVE",
"490 475 OFFCURVE",
"501 439 OFFCURVE",
"513 404 CURVE",
"575 408 LINE",
"568 562 LINE",
"526 582 OFFCURVE",
"460 596 OFFCURVE",
"398 596 CURVE SMOOTH",
"196 596 OFFCURVE",
"47 478 OFFCURVE",
"47 283 CURVE SMOOTH",
"47 98 OFFCURVE",
"180 -9 OFFCURVE",
"376 -9 CURVE SMOOTH"
);
}
);
width = 630;
}
);
leftKerningGroup = C;
note = C;
rightKerningGroup = C;
unicode = 0043;
},
{
color = 3;
glyphname = D;
lastChange = "2018-05-24 20:23:19 +0000";
layers = (
{
anchors = (
{
name = bottom;
position = "{344, 0}";
},
{
name = center;
position = "{344, 294}";
},
{
name = stroke;
position = "{201, 294}";
},
{
name = top;
position = "{344, 587}";
}
);
background = {
anchors = (
{
name = bottom;
position = "{344, 0}";
},
{
name = center;
position = "{344, 294}";
},
{
name = stroke;
position = "{201, 294}";
},
{
name = top;
position = "{344, 587}";
}
);
paths = (
{
closed = 1;
nodes = (
"46 546 LINE",
"69 546 OFFCURVE",
"100 541 OFFCURVE",
"107 536 CURVE",
"110 530 OFFCURVE",
"114 496 OFFCURVE",
"114 387 CURVE SMOOTH",
"114 199 LINE SMOOTH",
"114 91 OFFCURVE",
"109 58 OFFCURVE",
"107 52 CURVE",
"100 48 OFFCURVE",
"69 40 OFFCURVE",
"46 38 CURVE",
"48 -3 LINE",
"68 -1 OFFCURVE",
"140 2 OFFCURVE",
"180 2 CURVE SMOOTH",
"217 2 OFFCURVE",
"266 -1 OFFCURVE",
"305 -1 CURVE SMOOTH",
"480 -1 OFFCURVE",
"628 110 OFFCURVE",
"628 298 CURVE SMOOTH",
"628 476 OFFCURVE",
"507 588 OFFCURVE",
"292 588 CURVE SMOOTH",
"240 588 OFFCURVE",
"188 586 OFFCURVE",
"149 586 CURVE SMOOTH",
"118 586 OFFCURVE",
"79 586 OFFCURVE",
"48 588 CURVE"
);
},
{
closed = 1;
nodes = (
"223 539 OFFCURVE",
"252 542 OFFCURVE",
"281 542 CURVE SMOOTH",
"441 542 OFFCURVE",
"526 441 OFFCURVE",
"526 271 CURVE SMOOTH",
"526 126 OFFCURVE",
"448 50 OFFCURVE",
"311 50 CURVE SMOOTH",
"269 50 OFFCURVE",
"236 53 OFFCURVE",
"206 59 CURVE",
"202 75 OFFCURVE",
"199 109 OFFCURVE",
"199 199 CURVE SMOOTH",
"199 387 LINE SMOOTH",
"199 484 OFFCURVE",
"201 515 OFFCURVE",
"203 534 CURVE"
);
}
);
};
color = -1;
layerId = "30A8E426-80C1-4FA7-AECB-85F4920FB6F7";
paths = (
{
closed = 1;
nodes = (
"46 546 LINE",
"69 546 OFFCURVE",
"100 541 OFFCURVE",
"107 536 CURVE",
"110 530 OFFCURVE",
"114 496 OFFCURVE",
"114 387 CURVE SMOOTH",
"114 199 LINE SMOOTH",
"114 91 OFFCURVE",
"109 58 OFFCURVE",
"107 52 CURVE",
"100 48 OFFCURVE",
"69 40 OFFCURVE",
"46 38 CURVE",
"48 -3 LINE",
"68 -1 OFFCURVE",
"140 2 OFFCURVE",
"180 2 CURVE SMOOTH",
"217 2 OFFCURVE",
"266 -1 OFFCURVE",
"305 -1 CURVE SMOOTH",
"480 -1 OFFCURVE",
"628 110 OFFCURVE",
"628 300 CURVE SMOOTH",
"628 476 OFFCURVE",
"510 588 OFFCURVE",
"292 588 CURVE SMOOTH",
"240 588 OFFCURVE",
"188 586 OFFCURVE",
"149 586 CURVE SMOOTH",
"118 586 OFFCURVE",
"79 586 OFFCURVE",
"48 588 CURVE"
);
},
{
closed = 1;
nodes = (
"223 538 OFFCURVE",
"252 540 OFFCURVE",
"281 540 CURVE SMOOTH",
"441 540 OFFCURVE",
"526 443 OFFCURVE",
"526 271 CURVE SMOOTH",
"526 125 OFFCURVE",
"448 52 OFFCURVE",
"311 52 CURVE SMOOTH",
"269 52 OFFCURVE",
"236 56 OFFCURVE",
"204 61 CURVE",
"202 77 OFFCURVE",
"199 111 OFFCURVE",
"199 199 CURVE SMOOTH",
"199 387 LINE SMOOTH",
"199 484 OFFCURVE",
"201 514 OFFCURVE",
"201 533 CURVE"
);
}
);
width = 681;
},
{
anchors = (
{
name = bottom;
position = "{356, 0}";
},
{
name = center;
position = "{356, 294}";
},
{
name = stroke;
position = "{212, 294}";
},
{
name = top;
position = "{356, 587}";
}
);
background = {
anchors = (
{
name = bottom;
position = "{356, 0}";
},
{
name = center;
position = "{356, 294}";
},
{
name = stroke;
position = "{212, 294}";
},
{
name = top;
position = "{356, 587}";
}
);
paths = (
{
closed = 1;
nodes = (
"32 533 LINE",
"57 531 OFFCURVE",
"85 528 OFFCURVE",
"96 519 CURVE",
"100 512 OFFCURVE",
"103 451 OFFCURVE",
"103 366 CURVE SMOOTH",
"103 221 LINE SMOOTH",
"103 137 OFFCURVE",
"100 75 OFFCURVE",
"96 67 CURVE",
"85 59 OFFCURVE",
"57 54 OFFCURVE",
"32 50 CURVE",
"35 -5 LINE",
"69 -1 OFFCURVE",
"131 2 OFFCURVE",
"209 2 CURVE SMOOTH",
"252 2 OFFCURVE",
"289 -1 OFFCURVE",
"333 -1 CURVE SMOOTH",
"497 -1 OFFCURVE",
"656 108 OFFCURVE",
"656 304 CURVE SMOOTH",
"656 481 OFFCURVE",
"526 588 OFFCURVE",
"323 588 CURVE SMOOTH",
"275 588 OFFCURVE",
"212 587 OFFCURVE",
"167 587 CURVE SMOOTH",
"124 587 OFFCURVE",
"65 586 OFFCURVE",
"35 589 CURVE"
);
},
{
closed = 1;
nodes = (
"261 523 OFFCURVE",
"279 526 OFFCURVE",
"309 526 CURVE SMOOTH",
"406 526 OFFCURVE",
"503 447 OFFCURVE",
"503 260 CURVE SMOOTH",
"503 123 OFFCURVE",
"443 67 OFFCURVE",
"338 67 CURVE SMOOTH",
"313 67 OFFCURVE",
"272 72 OFFCURVE",
"247 76 CURVE",
"245 87 OFFCURVE",
"240 142 OFFCURVE",
"240 221 CURVE SMOOTH",
"240 366 LINE SMOOTH",
"240 455 OFFCURVE",
"244 507 OFFCURVE",
"245 520 CURVE"
);
}
);
};
color = -1;
layerId = "C0B3E82F-C341-4413-A405-AFA97EAADFAC";
paths = (
{
closed = 1;
nodes = (
"32 533 LINE",
"57 531 OFFCURVE",
"85 528 OFFCURVE",
"96 519 CURVE",
"100 512 OFFCURVE",
"103 451 OFFCURVE",
"103 366 CURVE SMOOTH",
"103 221 LINE SMOOTH",
"103 137 OFFCURVE",
"100 75 OFFCURVE",
"96 67 CURVE",
"85 59 OFFCURVE",
"57 54 OFFCURVE",
"32 50 CURVE",
"35 -5 LINE",
"69 -1 OFFCURVE",
"131 2 OFFCURVE",
"209 2 CURVE SMOOTH",
"252 2 OFFCURVE",
"289 -1 OFFCURVE",
"323 -1 CURVE SMOOTH",
"497 -1 OFFCURVE",
"656 108 OFFCURVE",
"656 301 CURVE SMOOTH",
"656 481 OFFCURVE",
"532 588 OFFCURVE",
"305 588 CURVE SMOOTH",
"275 588 OFFCURVE",
"212 587 OFFCURVE",
"167 587 CURVE SMOOTH",
"124 587 OFFCURVE",
"65 586 OFFCURVE",
"35 589 CURVE"
);
},
{
closed = 1;
nodes = (
"261 523 OFFCURVE",
"285 526 OFFCURVE",
"307 526 CURVE SMOOTH",
"409 526 OFFCURVE",
"503 449 OFFCURVE",
"503 260 CURVE SMOOTH",
"503 123 OFFCURVE",
"443 67 OFFCURVE",
"333 67 CURVE SMOOTH",
"303 67 OFFCURVE",
"271 71 OFFCURVE",
"245 76 CURVE",
"244 87 OFFCURVE",
"240 142 OFFCURVE",
"240 221 CURVE SMOOTH",
"240 366 LINE SMOOTH",
"240 455 OFFCURVE",
"242 507 OFFCURVE",
"242 520 CURVE"
);
}
);
width = 702;
}
);
leftKerningGroup = B;
note = D;
rightKerningGroup = D;
unicode = 0044;
},
{
color = 3;
glyphname = E;
lastChange = "2018-05-24 11:25:42 +0000";
layers = (
{
anchors = (
{
name = bottom;
position = "{282, 0}";
},
{
name = ogonek;
position = "{490, 0}";
},
{
name = top;
position = "{282, 587}";
},
{
name = topleft;
position = "{27, 587}";
}
);
background = {
anchors = (
{
name = bottom;
position = "{282, 0}";
},
{
name = ogonek;
position = "{490, 0}";
},
{
name = top;
position = "{282, 587}";
},
{
name = topleft;
position = "{27, 587}";
}
);
paths = (
{
closed = 1;
nodes = (
"528 141 LINE",
"483 150 LINE",
"461 105 OFFCURVE",
"443 70 OFFCURVE",
"431 52 CURVE",
"420 49 OFFCURVE",
"405 48 OFFCURVE",
"360 48 CURVE SMOOTH",
"266 48 LINE SMOOTH",
"237 48 OFFCURVE",
"219 50 OFFCURVE",
"202 52 CURVE",
"201 62 OFFCURVE",
"200 108 OFFCURVE",
"200 153 CURVE SMOOTH",
"200 423 LINE SMOOTH",
"200 468 OFFCURVE",
"201 529 OFFCURVE",
"202 538 CURVE",
"218 540 OFFCURVE",
"236 542 OFFCURVE",
"263 542 CURVE SMOOTH",
"375 542 LINE SMOOTH",
"388 542 OFFCURVE",
"402 541 OFFCURVE",
"413 539 CURVE",
"425 515 OFFCURVE",
"436 486 OFFCURVE",
"447 452 CURVE",
"492 459 LINE",
"472 591 LINE",
"440 589 OFFCURVE",
"404 587 OFFCURVE",
"372 587 CURVE SMOOTH",
"158 587 LINE SMOOTH",
"127 587 OFFCURVE",
"79 587 OFFCURVE",
"48 589 CURVE",
"46 548 LINE",
"70 546 OFFCURVE",
"101 539 OFFCURVE",
"108 534 CURVE",
"111 528 OFFCURVE",
"114 496 OFFCURVE",
"114 387 CURVE SMOOTH",
"114 199 LINE SMOOTH",
"114 91 OFFCURVE",
"111 59 OFFCURVE",
"108 52 CURVE",
"101 48 OFFCURVE",
"70 40 OFFCURVE",
"46 38 CURVE",
"48 -3 LINE",
"79 -1 OFFCURVE",
"127 0 OFFCURVE",
"158 0 CURVE SMOOTH",
"394 0 LINE SMOOTH",
"427 0 OFFCURVE",
"458 -2 OFFCURVE",
"488 -5 CURVE"
);
},
{
closed = 1;
nodes = (
"420 205 LINE",
"419 237 OFFCURVE",
"418 273 OFFCURVE",
"418 302 CURVE SMOOTH",
"418 332 OFFCURVE",
"419 366 OFFCURVE",
"420 399 CURVE",
"377 399 LINE",
"374 378 OFFCURVE",
"370 346 OFFCURVE",
"365 330 CURVE",
"357 328 OFFCURVE",
"340 327 OFFCURVE",
"319 327 CURVE SMOOTH",
"243 327 LINE SMOOTH",
"225 327 OFFCURVE",
"205 328 OFFCURVE",
"183 329 CURVE",
"183 275 LINE",
"205 276 OFFCURVE",
"225 277 OFFCURVE",
"243 277 CURVE SMOOTH",
"319 277 LINE SMOOTH",
"340 277 OFFCURVE",
"357 276 OFFCURVE",
"365 274 CURVE",
"370 258 OFFCURVE",
"374 225 OFFCURVE",
"377 205 CURVE"
);
}
);
};
color = -1;
layerId = "30A8E426-80C1-4FA7-AECB-85F4920FB6F7";
paths = (
{
closed = 1;
nodes = (
"528 141 LINE",
"483 150 LINE",
"461 105 OFFCURVE",
"443 73 OFFCURVE",
"431 55 CURVE",
"420 52 OFFCURVE",
"405 51 OFFCURVE",
"360 51 CURVE SMOOTH",
"264 51 LINE SMOOTH",
"235 51 OFFCURVE",
"217 53 OFFCURVE",
"200 55 CURVE",
"199 65 OFFCURVE",
"198 108 OFFCURVE",
"198 153 CURVE SMOOTH",
"198 423 LINE SMOOTH",
"198 468 OFFCURVE",
"199 526 OFFCURVE",
"200 535 CURVE",
"216 537 OFFCURVE",
"234 539 OFFCURVE",
"261 539 CURVE SMOOTH",
"375 539 LINE SMOOTH",
"388 539 OFFCURVE",
"402 538 OFFCURVE",
"413 536 CURVE",
"425 512 OFFCURVE",
"436 486 OFFCURVE",
"447 452 CURVE",
"492 459 LINE",
"472 591 LINE",
"440 589 OFFCURVE",
"404 587 OFFCURVE",
"372 587 CURVE SMOOTH",
"158 587 LINE SMOOTH",
"127 587 OFFCURVE",
"79 587 OFFCURVE",
"48 589 CURVE",
"46 548 LINE",
"70 546 OFFCURVE",
"101 539 OFFCURVE",
"108 534 CURVE",
"111 528 OFFCURVE",
"114 496 OFFCURVE",
"114 387 CURVE SMOOTH",
"114 199 LINE SMOOTH",
"114 91 OFFCURVE",
"111 59 OFFCURVE",
"108 52 CURVE",
"101 48 OFFCURVE",
"70 40 OFFCURVE",
"46 38 CURVE",
"48 -3 LINE",
"79 -1 OFFCURVE",
"127 0 OFFCURVE",
"158 0 CURVE SMOOTH",
"394 0 LINE SMOOTH",
"427 0 OFFCURVE",
"458 -2 OFFCURVE",
"488 -5 CURVE"
);
},
{
closed = 1;
nodes = (
"420 205 LINE",
"419 237 OFFCURVE",
"418 273 OFFCURVE",
"418 302 CURVE SMOOTH",
"418 332 OFFCURVE",
"419 366 OFFCURVE",
"420 399 CURVE",
"377 399 LINE",
"374 378 OFFCURVE",
"370 346 OFFCURVE",
"365 330 CURVE",
"357 328 OFFCURVE",
"340 327 OFFCURVE",
"319 327 CURVE SMOOTH",
"243 327 LINE SMOOTH",
"225 327 OFFCURVE",
"205 328 OFFCURVE",
"183 329 CURVE",
"183 275 LINE",
"205 276 OFFCURVE",
"225 277 OFFCURVE",
"243 277 CURVE SMOOTH",
"319 277 LINE SMOOTH",
"340 277 OFFCURVE",
"357 276 OFFCURVE",
"365 274 CURVE",
"370 258 OFFCURVE",
"374 225 OFFCURVE",
"377 205 CURVE"
);
}
);
width = 559;
},
{
anchors = (
{
name = bottom;
position = "{292, 0}";
},
{
name = ogonek;
position = "{522, 0}";
},
{
name = top;
position = "{292, 587}";
},
{
name = topleft;
position = "{27, 587}";
}
);
background = {
anchors = (
{
name = bottom;
position = "{292, 0}";
},
{
name = ogonek;
position = "{522, 0}";
},
{
name = top;
position = "{292, 587}";
},
{
name = topleft;
position = "{27, 587}";
}
);
paths = (
{
closed = 1;
nodes = (
"565 157 LINE",
"508 168 LINE",
"489 130 OFFCURVE",
"472 94 OFFCURVE",
"453 64 CURVE",
"434 60 OFFCURVE",
"424 60 OFFCURVE",
"382 60 CURVE SMOOTH",
"330 60 LINE SMOOTH",
"289 60 OFFCURVE",
"266 62 OFFCURVE",
"242 65 CURVE",
"240 82 OFFCURVE",
"239 126 OFFCURVE",
"239 194 CURVE SMOOTH",
"239 402 LINE SMOOTH",
"239 469 OFFCURVE",
"240 513 OFFCURVE",
"242 528 CURVE",
"259 531 OFFCURVE",
"287 532 OFFCURVE",
"307 532 CURVE SMOOTH",
"381 532 LINE SMOOTH",
"397 532 OFFCURVE",
"409 531 OFFCURVE",
"427 528 CURVE",
"441 500 OFFCURVE",
"449 474 OFFCURVE",
"465 435 CURVE",
"523 443 LINE",
"496 592 LINE",
"461 591 OFFCURVE",
"384 587 OFFCURVE",
"342 587 CURVE SMOOTH",
"171 587 LINE SMOOTH",
"128 587 OFFCURVE",
"65 589 OFFCURVE",
"35 591 CURVE",
"32 536 LINE",
"57 535 OFFCURVE",
"85 529 OFFCURVE",
"96 520 CURVE",
"100 513 OFFCURVE",
"103 451 OFFCURVE",
"103 366 CURVE SMOOTH",
"103 221 LINE SMOOTH",
"103 137 OFFCURVE",
"100 75 OFFCURVE",
"96 67 CURVE",
"85 59 OFFCURVE",
"57 54 OFFCURVE",
"32 50 CURVE",
"35 -5 LINE",
"65 -2 OFFCURVE",
"128 0 OFFCURVE",
"171 0 CURVE SMOOTH",
"380 0 LINE SMOOTH",
"422 0 OFFCURVE",
"485 -4 OFFCURVE",
"520 -6 CURVE"
);
},
{
closed = 1;
nodes = (
"449 199 LINE",
"448 232 OFFCURVE",
"446 269 OFFCURVE",
"446 301 CURVE SMOOTH",
"446 334 OFFCURVE",
"448 367 OFFCURVE",
"449 401 CURVE",
"392 401 LINE",
"390 380 OFFCURVE",
"385 343 OFFCURVE",
"382 335 CURVE",
"373 335 OFFCURVE",
"351 333 OFFCURVE",
"325 333 CURVE SMOOTH",
"273 333 LINE SMOOTH",
"249 333 OFFCURVE",
"228 335 OFFCURVE",
"217 336 CURVE",
"217 266 LINE",
"228 267 OFFCURVE",
"249 269 OFFCURVE",
"273 269 CURVE SMOOTH",
"325 269 LINE SMOOTH",
"351 269 OFFCURVE",
"373 267 OFFCURVE",
"382 267 CURVE",
"385 259 OFFCURVE",
"390 219 OFFCURVE",
"392 199 CURVE"
);
}
);
};
color = -1;
layerId = "C0B3E82F-C341-4413-A405-AFA97EAADFAC";
paths = (
{
closed = 1;
nodes = (
"565 157 LINE",
"508 168 LINE",
"489 130 OFFCURVE",
"472 98 OFFCURVE",
"453 68 CURVE",
"434 64 OFFCURVE",
"424 64 OFFCURVE",
"382 64 CURVE SMOOTH",
"330 64 LINE SMOOTH",
"289 64 OFFCURVE",
"266 66 OFFCURVE",
"242 69 CURVE",
"240 86 OFFCURVE",
"239 126 OFFCURVE",
"239 194 CURVE SMOOTH",
"239 402 LINE SMOOTH",
"239 469 OFFCURVE",
"240 509 OFFCURVE",
"242 524 CURVE",
"259 527 OFFCURVE",
"287 528 OFFCURVE",
"307 528 CURVE SMOOTH",
"381 528 LINE SMOOTH",
"397 528 OFFCURVE",
"409 527 OFFCURVE",
"427 524 CURVE",
"441 496 OFFCURVE",
"450 474 OFFCURVE",
"465 435 CURVE",
"523 443 LINE",
"496 592 LINE",
"461 591 OFFCURVE",
"384 587 OFFCURVE",
"342 587 CURVE SMOOTH",
"171 587 LINE SMOOTH",
"128 587 OFFCURVE",
"65 589 OFFCURVE",
"35 591 CURVE",
"32 536 LINE",
"57 535 OFFCURVE",
"85 529 OFFCURVE",
"96 520 CURVE",
"100 513 OFFCURVE",
"103 451 OFFCURVE",
"103 366 CURVE SMOOTH",
"103 221 LINE SMOOTH",
"103 137 OFFCURVE",
"100 75 OFFCURVE",
"96 67 CURVE",
"85 59 OFFCURVE",
"57 54 OFFCURVE",
"32 50 CURVE",
"35 -5 LINE",
"65 -2 OFFCURVE",
"128 0 OFFCURVE",
"171 0 CURVE SMOOTH",
"380 0 LINE SMOOTH",
"422 0 OFFCURVE",
"485 -4 OFFCURVE",
"520 -6 CURVE"
);
},
{
closed = 1;
nodes = (
"449 199 LINE",
"448 232 OFFCURVE",
"446 269 OFFCURVE",
"446 301 CURVE SMOOTH",
"446 334 OFFCURVE",
"448 368 OFFCURVE",
"449 402 CURVE",
"392 402 LINE",
"390 381 OFFCURVE",
"385 344 OFFCURVE",
"382 336 CURVE",
"373 336 OFFCURVE",
"351 334 OFFCURVE",
"325 334 CURVE SMOOTH",
"273 334 LINE SMOOTH",
"249 334 OFFCURVE",
"228 336 OFFCURVE",
"217 337 CURVE",
"217 266 LINE",
"228 267 OFFCURVE",
"249 269 OFFCURVE",
"273 269 CURVE SMOOTH",
"325 269 LINE SMOOTH",
"351 269 OFFCURVE",
"373 267 OFFCURVE",
"382 267 CURVE",
"385 259 OFFCURVE",
"390 219 OFFCURVE",
"392 199 CURVE"
);
}
);
width = 584;
}
);
leftKerningGroup = B;
note = E;
rightKerningGroup = E;
unicode = 0045;
},
{
color = 3;
glyphname = Eogonek;
lastChange = "2018-05-24 11:25:38 +0000";
layers = (
{
anchors = (
{
name = bottom;
position = "{282, 0}";
},
{
name = top;
position = "{282, 587}";
},
{
name = topleft;
position = "{27, 587}";
}
);
background = {
anchors = (
{
name = bottom;
position = "{1082, 0}";
},
{
name = top;
position = "{1082, 587}";
},
{
name = topleft;
position = "{827, 587}";
}
);
paths = (
{
closed = 1;
nodes = (
"1220 205 LINE",
"1219 237 OFFCURVE",
"1218 273 OFFCURVE",
"1218 302 CURVE SMOOTH",
"1218 332 OFFCURVE",
"1219 366 OFFCURVE",
"1220 399 CURVE",
"1177 399 LINE",
"1174 378 OFFCURVE",
"1170 346 OFFCURVE",
"1165 330 CURVE",
"1157 328 OFFCURVE",
"1140 327 OFFCURVE",
"1119 327 CURVE SMOOTH",
"1043 327 LINE SMOOTH",
"1025 327 OFFCURVE",
"1005 328 OFFCURVE",
"983 329 CURVE",
"983 275 LINE",
"1005 276 OFFCURVE",
"1025 277 OFFCURVE",
"1043 277 CURVE SMOOTH",
"1119 277 LINE SMOOTH",
"1140 277 OFFCURVE",
"1157 276 OFFCURVE",
"1165 274 CURVE",
"1170 258 OFFCURVE",
"1174 225 OFFCURVE",
"1177 205 CURVE"
);
},
{
closed = 1;
nodes = (
"1301 -167 OFFCURVE",
"1279 -181 OFFCURVE",
"1253 -181 CURVE SMOOTH",
"1218 -181 OFFCURVE",
"1195 -158 OFFCURVE",
"1195 -122 CURVE SMOOTH",
"1195 -79 OFFCURVE",
"1227 -38 OFFCURVE",
"1290 0 CURVE",
"1328 141 LINE",
"1283 150 LINE",
"1261 105 OFFCURVE",
"1243 70 OFFCURVE",
"1231 52 CURVE",
"1220 49 OFFCURVE",
"1205 48 OFFCURVE",
"1160 48 CURVE SMOOTH",
"1066 48 LINE SMOOTH",
"1037 48 OFFCURVE",
"1019 50 OFFCURVE",
"1002 52 CURVE",
"1001 62 OFFCURVE",
"1000 108 OFFCURVE",
"1000 153 CURVE SMOOTH",
"1000 423 LINE SMOOTH",
"1000 468 OFFCURVE",
"1001 529 OFFCURVE",
"1002 538 CURVE",
"1018 540 OFFCURVE",
"1036 542 OFFCURVE",
"1063 542 CURVE SMOOTH",
"1175 542 LINE SMOOTH",
"1188 542 OFFCURVE",
"1202 541 OFFCURVE",
"1213 539 CURVE",
"1225 515 OFFCURVE",
"1236 486 OFFCURVE",
"1247 452 CURVE",
"1292 459 LINE",
"1272 591 LINE",
"1240 589 OFFCURVE",
"1204 587 OFFCURVE",
"1172 587 CURVE SMOOTH",
"958 587 LINE SMOOTH",
"927 587 OFFCURVE",
"879 587 OFFCURVE",
"848 589 CURVE",
"846 548 LINE",
"870 546 OFFCURVE",
"901 539 OFFCURVE",
"908 534 CURVE",
"911 528 OFFCURVE",
"914 496 OFFCURVE",
"914 387 CURVE SMOOTH",
"914 199 LINE SMOOTH",
"914 91 OFFCURVE",
"911 59 OFFCURVE",
"908 52 CURVE",
"901 48 OFFCURVE",
"870 40 OFFCURVE",
"846 38 CURVE",
"848 -3 LINE",
"879 -1 OFFCURVE",
"927 0 OFFCURVE",
"958 0 CURVE SMOOTH",
"1238 0 LINE",
"1168 -35 OFFCURVE",
"1125 -81 OFFCURVE",
"1125 -132 CURVE SMOOTH",
"1125 -183 OFFCURVE",
"1169 -223 OFFCURVE",
"1239 -223 CURVE SMOOTH",
"1281 -223 OFFCURVE",
"1318 -203 OFFCURVE",
"1344 -173 CURVE",
"1322 -146 LINE"
);
},
{
closed = 1;
nodes = (
"528 141 LINE",
"483 150 LINE",
"461 105 OFFCURVE",
"443 70 OFFCURVE",
"431 52 CURVE",
"420 49 OFFCURVE",
"405 48 OFFCURVE",
"360 48 CURVE SMOOTH",
"264 48 LINE SMOOTH",
"235 48 OFFCURVE",
"217 50 OFFCURVE",
"200 52 CURVE",
"199 62 OFFCURVE",
"198 108 OFFCURVE",
"198 153 CURVE SMOOTH",
"198 423 LINE SMOOTH",
"198 468 OFFCURVE",
"199 529 OFFCURVE",
"200 538 CURVE",
"216 540 OFFCURVE",
"234 542 OFFCURVE",
"261 542 CURVE SMOOTH",
"375 542 LINE SMOOTH",
"388 542 OFFCURVE",
"402 541 OFFCURVE",
"413 539 CURVE",
"425 515 OFFCURVE",
"436 486 OFFCURVE",
"447 452 CURVE",
"492 459 LINE",
"472 591 LINE",
"440 589 OFFCURVE",
"404 587 OFFCURVE",
"372 587 CURVE SMOOTH",
"158 587 LINE SMOOTH",
"127 587 OFFCURVE",
"79 587 OFFCURVE",
"48 589 CURVE",
"46 548 LINE",
"70 546 OFFCURVE",
"101 539 OFFCURVE",
"108 534 CURVE",
"111 528 OFFCURVE",
"114 496 OFFCURVE",
"114 387 CURVE SMOOTH",
"114 199 LINE SMOOTH",
"114 91 OFFCURVE",
"111 59 OFFCURVE",
"108 52 CURVE",
"101 48 OFFCURVE",
"70 40 OFFCURVE",
"46 38 CURVE",
"48 -3 LINE",
"79 -1 OFFCURVE",
"127 0 OFFCURVE",
"158 0 CURVE SMOOTH",
"394 0 LINE SMOOTH",
"427 0 OFFCURVE",
"458 -2 OFFCURVE",
"488 -5 CURVE"
);
},
{
closed = 1;
nodes = (
"420 205 LINE",
"419 237 OFFCURVE",
"418 273 OFFCURVE",
"418 302 CURVE SMOOTH",
"418 332 OFFCURVE",
"419 366 OFFCURVE",
"420 399 CURVE",
"377 399 LINE",
"374 378 OFFCURVE",
"370 346 OFFCURVE",
"365 330 CURVE",
"357 328 OFFCURVE",
"340 327 OFFCURVE",
"319 327 CURVE SMOOTH",
"243 327 LINE SMOOTH",
"225 327 OFFCURVE",
"205 328 OFFCURVE",
"183 329 CURVE",
"183 275 LINE",
"205 276 OFFCURVE",
"225 277 OFFCURVE",
"243 277 CURVE SMOOTH",
"319 277 LINE SMOOTH",
"340 277 OFFCURVE",
"357 276 OFFCURVE",
"365 274 CURVE",
"370 258 OFFCURVE",
"374 225 OFFCURVE",
"377 205 CURVE"
);
}
);
};
color = -1;
layerId = "30A8E426-80C1-4FA7-AECB-85F4920FB6F7";
paths = (
{
closed = 1;
nodes = (
"420 205 LINE",
"419 237 OFFCURVE",
"418 273 OFFCURVE",
"418 302 CURVE SMOOTH",
"418 332 OFFCURVE",
"419 366 OFFCURVE",
"420 399 CURVE",
"377 399 LINE",
"374 378 OFFCURVE",
"370 346 OFFCURVE",
"365 330 CURVE",
"357 328 OFFCURVE",
"340 327 OFFCURVE",
"319 327 CURVE SMOOTH",
"243 327 LINE SMOOTH",
"225 327 OFFCURVE",
"205 328 OFFCURVE",
"183 329 CURVE",
"183 275 LINE",
"205 276 OFFCURVE",
"225 277 OFFCURVE",
"243 277 CURVE SMOOTH",
"319 277 LINE SMOOTH",
"340 277 OFFCURVE",
"357 276 OFFCURVE",
"365 274 CURVE",
"370 258 OFFCURVE",
"374 225 OFFCURVE",
"377 205 CURVE"
);
},
{
closed = 1;
nodes = (
"501 -167 OFFCURVE",
"479 -181 OFFCURVE",
"453 -181 CURVE SMOOTH",
"418 -181 OFFCURVE",
"395 -158 OFFCURVE",
"395 -122 CURVE SMOOTH",
"395 -79 OFFCURVE",
"427 -38 OFFCURVE",
"490 0 CURVE",
"528 141 LINE",
"483 150 LINE",
"461 105 OFFCURVE",
"443 73 OFFCURVE",
"431 55 CURVE",
"420 52 OFFCURVE",
"405 51 OFFCURVE",
"360 51 CURVE SMOOTH",
"264 51 LINE SMOOTH",
"235 51 OFFCURVE",
"217 53 OFFCURVE",
"200 55 CURVE",
"199 65 OFFCURVE",
"198 108 OFFCURVE",
"198 153 CURVE SMOOTH",
"198 423 LINE SMOOTH",
"198 468 OFFCURVE",
"199 526 OFFCURVE",
"200 535 CURVE",
"216 537 OFFCURVE",
"234 539 OFFCURVE",
"261 539 CURVE SMOOTH",
"375 539 LINE SMOOTH",
"388 539 OFFCURVE",
"402 538 OFFCURVE",
"413 536 CURVE",
"425 512 OFFCURVE",
"436 486 OFFCURVE",
"447 452 CURVE",
"492 459 LINE",
"472 591 LINE",
"440 589 OFFCURVE",
"404 587 OFFCURVE",
"372 587 CURVE SMOOTH",
"158 587 LINE SMOOTH",
"127 587 OFFCURVE",
"79 587 OFFCURVE",
"48 589 CURVE",
"46 548 LINE",
"70 546 OFFCURVE",
"101 539 OFFCURVE",
"108 534 CURVE",
"111 528 OFFCURVE",
"114 496 OFFCURVE",
"114 387 CURVE SMOOTH",
"114 199 LINE SMOOTH",
"114 91 OFFCURVE",
"111 59 OFFCURVE",
"108 52 CURVE",
"101 48 OFFCURVE",
"70 40 OFFCURVE",
"46 38 CURVE",
"48 -3 LINE",
"79 -1 OFFCURVE",
"127 0 OFFCURVE",
"158 0 CURVE SMOOTH",
"438 0 LINE",
"368 -35 OFFCURVE",
"325 -81 OFFCURVE",
"325 -132 CURVE SMOOTH",
"325 -183 OFFCURVE",
"369 -223 OFFCURVE",
"439 -223 CURVE SMOOTH",
"481 -223 OFFCURVE",
"518 -203 OFFCURVE",
"544 -173 CURVE",
"522 -146 LINE"
);
}
);
width = 559;
},
{
anchors = (
{
name = bottom;
position = "{292, 0}";
},
{
name = top;
position = "{292, 587}";
},
{
name = topleft;
position = "{27, 587}";
}
);
background = {
paths = (
{
closed = 1;
nodes = (
"449 199 LINE",
"448 232 OFFCURVE",
"446 269 OFFCURVE",
"446 301 CURVE SMOOTH",
"446 334 OFFCURVE",
"448 367 OFFCURVE",
"449 401 CURVE",
"392 401 LINE",
"390 380 OFFCURVE",
"385 343 OFFCURVE",
"382 335 CURVE",
"373 335 OFFCURVE",
"351 333 OFFCURVE",
"325 333 CURVE SMOOTH",
"273 333 LINE SMOOTH",
"249 333 OFFCURVE",
"228 335 OFFCURVE",
"217 336 CURVE",
"217 266 LINE",
"228 267 OFFCURVE",
"249 269 OFFCURVE",
"273 269 CURVE SMOOTH",
"325 269 LINE SMOOTH",
"351 269 OFFCURVE",
"373 267 OFFCURVE",
"382 267 CURVE",
"385 259 OFFCURVE",
"390 219 OFFCURVE",
"392 199 CURVE"
);
},
{
closed = 1;
nodes = (
"531 -157 OFFCURVE",
"509 -168 OFFCURVE",
"487 -168 CURVE SMOOTH",
"457 -168 OFFCURVE",
"435 -148 OFFCURVE",
"435 -113 CURVE SMOOTH",
"435 -75 OFFCURVE",
"464 -37 OFFCURVE",
"522 0 CURVE",
"565 157 LINE",
"508 168 LINE",
"489 130 OFFCURVE",
"472 95 OFFCURVE",
"453 65 CURVE",
"434 61 OFFCURVE",
"424 61 OFFCURVE",
"382 61 CURVE SMOOTH",
"330 61 LINE SMOOTH",
"289 61 OFFCURVE",
"266 63 OFFCURVE",
"242 66 CURVE",
"240 83 OFFCURVE",
"239 126 OFFCURVE",
"239 194 CURVE SMOOTH",
"239 402 LINE SMOOTH",
"239 469 OFFCURVE",
"240 512 OFFCURVE",
"242 527 CURVE",
"259 530 OFFCURVE",
"287 531 OFFCURVE",
"307 531 CURVE SMOOTH",
"381 531 LINE SMOOTH",
"397 531 OFFCURVE",
"409 530 OFFCURVE",
"427 527 CURVE",
"441 499 OFFCURVE",
"449 474 OFFCURVE",
"465 435 CURVE",
"523 443 LINE",
"496 592 LINE",
"461 591 OFFCURVE",
"384 587 OFFCURVE",
"342 587 CURVE SMOOTH",
"171 587 LINE SMOOTH",
"128 587 OFFCURVE",
"65 589 OFFCURVE",
"35 591 CURVE",
"32 536 LINE",
"57 535 OFFCURVE",
"85 529 OFFCURVE",
"96 520 CURVE",
"100 513 OFFCURVE",
"103 451 OFFCURVE",
"103 366 CURVE SMOOTH",
"103 221 LINE SMOOTH",
"103 137 OFFCURVE",
"100 75 OFFCURVE",
"96 67 CURVE",
"85 59 OFFCURVE",
"57 54 OFFCURVE",
"32 50 CURVE",
"35 -5 LINE",
"65 -2 OFFCURVE",
"128 0 OFFCURVE",
"171 0 CURVE SMOOTH",
"447 0 LINE",
"376 -34 OFFCURVE",
"338 -77 OFFCURVE",
"338 -122 CURVE SMOOTH",
"338 -181 OFFCURVE",
"396 -223 OFFCURVE",
"468 -223 CURVE SMOOTH",
"515 -223 OFFCURVE",
"554 -205 OFFCURVE",
"583 -173 CURVE",
"555 -134 LINE"
);
}
);
};
color = -1;
layerId = "C0B3E82F-C341-4413-A405-AFA97EAADFAC";
paths = (
{
closed = 1;
nodes = (
"449 199 LINE",
"448 232 OFFCURVE",
"446 269 OFFCURVE",
"446 301 CURVE SMOOTH",
"446 335 OFFCURVE",
"448 368 OFFCURVE",
"449 402 CURVE",
"392 402 LINE",
"390 381 OFFCURVE",
"385 344 OFFCURVE",
"382 336 CURVE",
"373 336 OFFCURVE",
"351 334 OFFCURVE",
"325 334 CURVE SMOOTH",
"273 334 LINE SMOOTH",
"249 334 OFFCURVE",
"228 336 OFFCURVE",
"217 337 CURVE",
"217 266 LINE",
"228 267 OFFCURVE",
"249 269 OFFCURVE",
"273 269 CURVE SMOOTH",
"325 269 LINE SMOOTH",
"351 269 OFFCURVE",
"373 267 OFFCURVE",
"382 267 CURVE",
"385 259 OFFCURVE",
"390 219 OFFCURVE",
"392 199 CURVE"
);
},
{
closed = 1;
nodes = (
"531 -157 OFFCURVE",
"509 -168 OFFCURVE",
"487 -168 CURVE SMOOTH",
"457 -168 OFFCURVE",
"435 -148 OFFCURVE",
"435 -113 CURVE SMOOTH",
"435 -75 OFFCURVE",
"464 -37 OFFCURVE",
"522 0 CURVE",
"565 157 LINE",
"508 168 LINE",
"489 130 OFFCURVE",
"472 98 OFFCURVE",
"453 68 CURVE",
"434 64 OFFCURVE",
"424 64 OFFCURVE",
"382 64 CURVE SMOOTH",
"330 64 LINE SMOOTH",
"289 64 OFFCURVE",
"266 66 OFFCURVE",
"242 69 CURVE",
"240 86 OFFCURVE",
"239 126 OFFCURVE",
"239 194 CURVE SMOOTH",
"239 402 LINE SMOOTH",
"239 469 OFFCURVE",
"240 509 OFFCURVE",
"242 524 CURVE",
"259 527 OFFCURVE",
"287 528 OFFCURVE",
"307 528 CURVE SMOOTH",
"381 528 LINE SMOOTH",
"397 528 OFFCURVE",
"409 527 OFFCURVE",
"427 524 CURVE",
"441 496 OFFCURVE",
"450 474 OFFCURVE",
"465 435 CURVE",
"523 443 LINE",
"496 592 LINE",
"461 591 OFFCURVE",
"384 587 OFFCURVE",
"342 587 CURVE SMOOTH",
"171 587 LINE SMOOTH",
"128 587 OFFCURVE",
"65 589 OFFCURVE",
"35 591 CURVE",
"32 536 LINE",
"57 535 OFFCURVE",
"85 529 OFFCURVE",
"96 520 CURVE",
"100 513 OFFCURVE",
"103 451 OFFCURVE",
"103 366 CURVE SMOOTH",
"103 221 LINE SMOOTH",
"103 137 OFFCURVE",
"100 75 OFFCURVE",
"96 67 CURVE",
"85 59 OFFCURVE",
"57 54 OFFCURVE",
"32 50 CURVE",
"35 -5 LINE",
"65 -2 OFFCURVE",
"128 0 OFFCURVE",
"171 0 CURVE SMOOTH",
"447 0 LINE",
"376 -34 OFFCURVE",
"338 -77 OFFCURVE",
"338 -122 CURVE SMOOTH",
"338 -181 OFFCURVE",
"396 -223 OFFCURVE",
"468 -223 CURVE SMOOTH",
"515 -223 OFFCURVE",
"554 -205 OFFCURVE",
"583 -173 CURVE",
"555 -134 LINE"
);
}
);
width = 584;
}
);
leftMetricsKey = E;
widthMetricsKey = E;
note = Eogonek;
unicode = 0118;
},
{
color = 3;
glyphname = F;
lastChange = "2018-05-24 11:27:56 +0000";
layers = (
{
anchors = (
{
name = bottom;
position = "{158, 0}";
},
{
name = top;
position = "{262, 587}";
}
);
background = {
anchors = (
{
name = bottom;
position = "{858, 0}";
},
{
name = top;
position = "{962, 587}";
}
);
paths = (
{
closed = 1;
nodes = (
"782 -1 OFFCURVE",
"836 1 OFFCURVE",
"868 1 CURVE SMOOTH",
"899 1 OFFCURVE",
"954 -1 OFFCURVE",
"985 -3 CURVE",
"987 40 LINE",
"962 43 OFFCURVE",
"918 50 OFFCURVE",
"907 52 CURVE",
"903 59 OFFCURVE",
"900 91 OFFCURVE",
"900 188 CURVE SMOOTH",
"900 423 LINE SMOOTH",
"900 468 OFFCURVE",
"901 528 OFFCURVE",
"902 538 CURVE",
"916 540 OFFCURVE",
"943 542 OFFCURVE",
"963 542 CURVE SMOOTH",
"1068 542 LINE SMOOTH",
"1080 542 OFFCURVE",
"1094 541 OFFCURVE",
"1105 539 CURVE",
"1118 515 OFFCURVE",
"1129 486 OFFCURVE",
"1140 452 CURVE",
"1184 459 LINE",
"1164 591 LINE",
"1132 589 OFFCURVE",
"1096 587 OFFCURVE",
"1065 587 CURVE SMOOTH",
"859 587 LINE SMOOTH",
"828 587 OFFCURVE",
"780 588 OFFCURVE",
"749 589 CURVE",
"747 548 LINE",
"771 547 OFFCURVE",
"802 539 OFFCURVE",
"808 534 CURVE",
"812 528 OFFCURVE",
"815 496 OFFCURVE",
"815 387 CURVE SMOOTH",
"815 199 LINE SMOOTH",
"815 91 OFFCURVE",
"812 59 OFFCURVE",
"808 52 CURVE",
"802 48 OFFCURVE",
"772 40 OFFCURVE",
"752 38 CURVE",
"754 -3 LINE"
);
},
{
closed = 1;
nodes = (
"1113 196 LINE",
"1112 230 OFFCURVE",
"1111 267 OFFCURVE",
"1111 297 CURVE SMOOTH",
"1111 326 OFFCURVE",
"1112 361 OFFCURVE",
"1113 393 CURVE",
"1070 393 LINE",
"1067 372 OFFCURVE",
"1063 341 OFFCURVE",
"1058 325 CURVE",
"1050 323 OFFCURVE",
"1033 321 OFFCURVE",
"1012 321 CURVE SMOOTH",
"929 321 LINE SMOOTH",
"911 321 OFFCURVE",
"893 323 OFFCURVE",
"877 324 CURVE",
"877 270 LINE",
"893 271 OFFCURVE",
"911 272 OFFCURVE",
"929 272 CURVE SMOOTH",
"1012 272 LINE SMOOTH",
"1033 272 OFFCURVE",
"1050 271 OFFCURVE",
"1058 268 CURVE",
"1063 252 OFFCURVE",
"1067 218 OFFCURVE",
"1070 196 CURVE"
);
},
{
closed = 1;
nodes = (
"529 141 LINE",
"484 150 LINE",
"462 105 OFFCURVE",
"444 73 OFFCURVE",
"432 55 CURVE",
"421 52 OFFCURVE",
"406 51 OFFCURVE",
"361 51 CURVE SMOOTH",
"265 51 LINE SMOOTH",
"236 51 OFFCURVE",
"218 53 OFFCURVE",
"201 55 CURVE",
"200 65 OFFCURVE",
"199 108 OFFCURVE",
"199 153 CURVE SMOOTH",
"199 423 LINE SMOOTH",
"199 468 OFFCURVE",
"200 526 OFFCURVE",
"201 535 CURVE",
"217 537 OFFCURVE",
"235 539 OFFCURVE",
"262 539 CURVE SMOOTH",
"376 539 LINE SMOOTH",
"389 539 OFFCURVE",
"403 538 OFFCURVE",
"414 536 CURVE",
"426 512 OFFCURVE",
"437 486 OFFCURVE",
"448 452 CURVE",
"493 459 LINE",
"473 591 LINE",
"441 589 OFFCURVE",
"405 587 OFFCURVE",
"373 587 CURVE SMOOTH",
"159 587 LINE SMOOTH",
"128 587 OFFCURVE",
"80 587 OFFCURVE",
"49 589 CURVE",
"47 548 LINE",
"71 546 OFFCURVE",
"102 539 OFFCURVE",
"109 534 CURVE",
"112 528 OFFCURVE",
"115 496 OFFCURVE",
"115 387 CURVE SMOOTH",
"115 199 LINE SMOOTH",
"115 91 OFFCURVE",
"112 59 OFFCURVE",
"109 52 CURVE",
"102 48 OFFCURVE",
"71 40 OFFCURVE",
"47 38 CURVE",
"49 -3 LINE",
"80 -1 OFFCURVE",
"128 0 OFFCURVE",
"159 0 CURVE SMOOTH",
"395 0 LINE SMOOTH",
"428 0 OFFCURVE",
"459 -2 OFFCURVE",
"489 -5 CURVE"
);
},
{
closed = 1;
nodes = (
"421 205 LINE",
"420 237 OFFCURVE",
"419 273 OFFCURVE",
"419 302 CURVE SMOOTH",
"419 332 OFFCURVE",
"420 366 OFFCURVE",
"421 399 CURVE",
"378 399 LINE",
"375 378 OFFCURVE",
"371 346 OFFCURVE",
"366 330 CURVE",
"358 328 OFFCURVE",
"341 327 OFFCURVE",
"320 327 CURVE SMOOTH",
"244 327 LINE SMOOTH",
"226 327 OFFCURVE",
"206 328 OFFCURVE",
"184 329 CURVE",
"184 275 LINE",
"206 276 OFFCURVE",
"226 277 OFFCURVE",
"244 277 CURVE SMOOTH",
"320 277 LINE SMOOTH",
"341 277 OFFCURVE",
"358 276 OFFCURVE",
"366 274 CURVE",
"371 258 OFFCURVE",
"375 225 OFFCURVE",
"378 205 CURVE"
);
}
);
};
color = -1;
layerId = "30A8E426-80C1-4FA7-AECB-85F4920FB6F7";
paths = (
{
closed = 1;
nodes = (
"82 -1 OFFCURVE",
"136 1 OFFCURVE",
"168 1 CURVE SMOOTH",
"199 1 OFFCURVE",
"254 -1 OFFCURVE",
"285 -3 CURVE",
"287 40 LINE",
"262 43 OFFCURVE",
"217 50 OFFCURVE",
"206 52 CURVE",
"202 59 OFFCURVE",
"199 91 OFFCURVE",
"199 188 CURVE SMOOTH",
"199 423 LINE SMOOTH",
"199 468 OFFCURVE",
"200 525 OFFCURVE",
"201 535 CURVE",
"215 537 OFFCURVE",
"242 539 OFFCURVE",
"262 539 CURVE SMOOTH",
"372 539 LINE SMOOTH",
"384 539 OFFCURVE",
"398 538 OFFCURVE",
"409 536 CURVE",
"422 512 OFFCURVE",
"433 486 OFFCURVE",
"444 452 CURVE",
"489 459 LINE",
"469 591 LINE",
"437 589 OFFCURVE",
"400 587 OFFCURVE",
"369 587 CURVE SMOOTH",
"159 587 LINE SMOOTH",
"128 587 OFFCURVE",
"80 588 OFFCURVE",
"49 589 CURVE",
"47 548 LINE",
"71 547 OFFCURVE",
"102 539 OFFCURVE",
"108 534 CURVE",
"112 528 OFFCURVE",
"115 496 OFFCURVE",
"115 387 CURVE SMOOTH",
"115 199 LINE SMOOTH",
"115 91 OFFCURVE",
"112 59 OFFCURVE",
"108 52 CURVE",
"102 48 OFFCURVE",
"72 40 OFFCURVE",
"52 38 CURVE",
"54 -3 LINE"
);
},
{
closed = 1;
nodes = (
"417 198 LINE",
"416 232 OFFCURVE",
"415 269 OFFCURVE",
"415 299 CURVE SMOOTH",
"415 328 OFFCURVE",
"416 363 OFFCURVE",
"417 395 CURVE",
"374 395 LINE",
"371 374 OFFCURVE",
"366 343 OFFCURVE",
"361 327 CURVE",
"353 325 OFFCURVE",
"337 323 OFFCURVE",
"312 323 CURVE SMOOTH",
"229 323 LINE SMOOTH",
"211 323 OFFCURVE",
"193 325 OFFCURVE",
"177 326 CURVE",
"177 272 LINE",
"193 273 OFFCURVE",
"211 274 OFFCURVE",
"229 274 CURVE SMOOTH",
"312 274 LINE SMOOTH",
"337 274 OFFCURVE",
"353 273 OFFCURVE",
"361 270 CURVE",
"366 254 OFFCURVE",
"371 220 OFFCURVE",
"374 198 CURVE"
);
}
);
width = 508;
},
{
anchors = (
{
name = bottom;
position = "{171, 0}";
},
{
name = top;
position = "{262, 587}";
}
);
background = {
anchors = (
{
name = bottom;
position = "{671, 0}";
},
{
name = top;
position = "{762, 587}";
}
);
paths = (
{
closed = 1;
nodes = (
"967 -2 OFFCURVE",
"1036 -1 OFFCURVE",
"1080 -1 CURVE SMOOTH",
"1124 -1 OFFCURVE",
"1195 -2 OFFCURVE",
"1225 -5 CURVE",
"1227 52 LINE",
"1203 55 OFFCURVE",
"1176 59 OFFCURVE",
"1146 67 CURVE",
"1143 75 OFFCURVE",
"1139 137 OFFCURVE",
"1139 170 CURVE SMOOTH",
"1139 402 LINE SMOOTH",
"1139 469 OFFCURVE",
"1139 510 OFFCURVE",
"1140 526 CURVE",
"1154 530 OFFCURVE",
"1178 532 OFFCURVE",
"1201 532 CURVE SMOOTH",
"1261 532 LINE SMOOTH",
"1277 532 OFFCURVE",
"1288 531 OFFCURVE",
"1306 528 CURVE",
"1320 500 OFFCURVE",
"1328 474 OFFCURVE",
"1344 435 CURVE",
"1403 443 LINE",
"1375 592 LINE",
"1341 591 OFFCURVE",
"1263 587 OFFCURVE",
"1221 587 CURVE SMOOTH",
"1072 587 LINE SMOOTH",
"1029 587 OFFCURVE",
"966 589 OFFCURVE",
"936 591 CURVE",
"933 536 LINE",
"959 535 OFFCURVE",
"986 529 OFFCURVE",
"997 520 CURVE",
"1001 513 OFFCURVE",
"1004 451 OFFCURVE",
"1004 366 CURVE SMOOTH",
"1004 221 LINE SMOOTH",
"1004 137 OFFCURVE",
"1001 75 OFFCURVE",
"997 67 CURVE",
"986 59 OFFCURVE",
"960 54 OFFCURVE",
"937 50 CURVE",
"940 -5 LINE"
);
},
{
closed = 1;
nodes = (
"1332 190 LINE",
"1331 225 OFFCURVE",
"1329 263 OFFCURVE",
"1329 296 CURVE SMOOTH",
"1329 328 OFFCURVE",
"1331 362 OFFCURVE",
"1332 395 CURVE",
"1276 395 LINE",
"1273 374 OFFCURVE",
"1268 338 OFFCURVE",
"1265 330 CURVE",
"1256 330 OFFCURVE",
"1235 327 OFFCURVE",
"1208 327 CURVE SMOOTH",
"1161 327 LINE SMOOTH",
"1137 327 OFFCURVE",
"1116 330 OFFCURVE",
"1102 331 CURVE",
"1102 261 LINE",
"1116 262 OFFCURVE",
"1137 264 OFFCURVE",
"1161 264 CURVE SMOOTH",
"1208 264 LINE SMOOTH",
"1235 264 OFFCURVE",
"1256 262 OFFCURVE",
"1265 261 CURVE",
"1268 253 OFFCURVE",
"1273 212 OFFCURVE",
"1276 190 CURVE"
);
},
{
closed = 1;
nodes = (
"565 157 LINE",
"508 168 LINE",
"489 130 OFFCURVE",
"472 98 OFFCURVE",
"453 68 CURVE",
"434 64 OFFCURVE",
"424 64 OFFCURVE",
"382 64 CURVE SMOOTH",
"330 64 LINE SMOOTH",
"289 64 OFFCURVE",
"266 66 OFFCURVE",
"242 69 CURVE",
"240 86 OFFCURVE",
"239 126 OFFCURVE",
"239 194 CURVE SMOOTH",
"239 402 LINE SMOOTH",
"239 469 OFFCURVE",
"240 509 OFFCURVE",
"242 524 CURVE",
"259 527 OFFCURVE",
"287 528 OFFCURVE",
"307 528 CURVE SMOOTH",
"381 528 LINE SMOOTH",
"397 528 OFFCURVE",
"409 527 OFFCURVE",
"427 524 CURVE",
"441 496 OFFCURVE",
"450 474 OFFCURVE",
"465 435 CURVE",
"523 443 LINE",
"496 592 LINE",
"461 591 OFFCURVE",
"384 587 OFFCURVE",
"342 587 CURVE SMOOTH",
"171 587 LINE SMOOTH",
"128 587 OFFCURVE",
"65 589 OFFCURVE",
"35 591 CURVE",
"32 536 LINE",
"57 535 OFFCURVE",
"85 529 OFFCURVE",
"96 520 CURVE",
"100 513 OFFCURVE",
"103 451 OFFCURVE",
"103 366 CURVE SMOOTH",
"103 221 LINE SMOOTH",
"103 137 OFFCURVE",
"100 75 OFFCURVE",
"96 67 CURVE",
"85 59 OFFCURVE",
"57 54 OFFCURVE",
"32 50 CURVE",
"35 -5 LINE",
"65 -2 OFFCURVE",
"128 0 OFFCURVE",
"171 0 CURVE SMOOTH",
"380 0 LINE SMOOTH",
"422 0 OFFCURVE",
"485 -4 OFFCURVE",
"520 -6 CURVE"
);
},
{
closed = 1;
nodes = (
"449 199 LINE",
"448 232 OFFCURVE",
"446 269 OFFCURVE",
"446 301 CURVE SMOOTH",
"446 334 OFFCURVE",
"448 367 OFFCURVE",
"449 401 CURVE",
"392 401 LINE",
"390 380 OFFCURVE",
"385 343 OFFCURVE",
"382 335 CURVE",
"373 335 OFFCURVE",
"351 333 OFFCURVE",
"325 333 CURVE SMOOTH",
"273 333 LINE SMOOTH",
"249 333 OFFCURVE",
"228 335 OFFCURVE",
"217 336 CURVE",
"217 266 LINE",
"228 267 OFFCURVE",
"249 269 OFFCURVE",
"273 269 CURVE SMOOTH",
"325 269 LINE SMOOTH",
"351 269 OFFCURVE",
"373 267 OFFCURVE",
"382 267 CURVE",
"385 259 OFFCURVE",
"390 219 OFFCURVE",
"392 199 CURVE"
);
}
);
};
color = -1;
layerId = "C0B3E82F-C341-4413-A405-AFA97EAADFAC";
paths = (
{
closed = 1;
nodes = (
"67 -2 OFFCURVE",
"136 -1 OFFCURVE",
"180 -1 CURVE SMOOTH",
"224 -1 OFFCURVE",
"295 -2 OFFCURVE",
"325 -5 CURVE",
"327 52 LINE",
"303 55 OFFCURVE",
"276 59 OFFCURVE",
"246 67 CURVE",
"243 75 OFFCURVE",
"239 137 OFFCURVE",
"239 170 CURVE SMOOTH",
"239 402 LINE SMOOTH",
"239 469 OFFCURVE",
"239 506 OFFCURVE",
"240 522 CURVE",
"254 526 OFFCURVE",
"278 528 OFFCURVE",
"301 528 CURVE SMOOTH",
"375 528 LINE SMOOTH",
"391 528 OFFCURVE",
"402 527 OFFCURVE",
"420 524 CURVE",
"433 496 OFFCURVE",
"444 474 OFFCURVE",
"458 435 CURVE",
"517 443 LINE",
"489 592 LINE",
"455 591 OFFCURVE",
"377 587 OFFCURVE",
"335 587 CURVE SMOOTH",
"172 587 LINE SMOOTH",
"129 587 OFFCURVE",
"66 589 OFFCURVE",
"36 591 CURVE",
"33 536 LINE",
"59 535 OFFCURVE",
"86 529 OFFCURVE",
"97 520 CURVE",
"101 513 OFFCURVE",
"104 451 OFFCURVE",
"104 366 CURVE SMOOTH",
"104 221 LINE SMOOTH",
"104 137 OFFCURVE",
"101 75 OFFCURVE",
"97 67 CURVE",
"86 59 OFFCURVE",
"60 54 OFFCURVE",
"37 50 CURVE",
"40 -5 LINE"
);
},
{
closed = 1;
nodes = (
"441 189 LINE",
"440 224 OFFCURVE",
"438 262 OFFCURVE",
"438 295 CURVE SMOOTH",
"438 328 OFFCURVE",
"440 363 OFFCURVE",
"441 396 CURVE",
"385 396 LINE",
"382 375 OFFCURVE",
"377 339 OFFCURVE",
"374 331 CURVE",
"365 331 OFFCURVE",
"344 328 OFFCURVE",
"317 328 CURVE SMOOTH",
"261 328 LINE SMOOTH",
"237 328 OFFCURVE",
"216 331 OFFCURVE",
"202 332 CURVE",
"202 260 LINE",
"216 261 OFFCURVE",
"237 263 OFFCURVE",
"261 263 CURVE SMOOTH",
"317 263 LINE SMOOTH",
"344 263 OFFCURVE",
"365 261 OFFCURVE",
"374 260 CURVE",
"377 252 OFFCURVE",
"382 211 OFFCURVE",
"385 189 CURVE"
);
}
);
width = 540;
}
);
leftKerningGroup = B;
note = F;
rightKerningGroup = F;
unicode = 0046;
},
{
color = 3;
glyphname = G;
lastChange = "2018-05-24 20:26:03 +0000";
layers = (
{
anchors = (
{
name = bottom;
position = "{353, 0}";
},
{
name = top;
position = "{353, 587}";
}
);
background = {
anchors = (
{
name = bottom;
position = "{1053, 0}";
},
{
name = top;
position = "{1053, 587}";
}
);
paths = (
{
closed = 1;
nodes = (
"1133 -9 OFFCURVE",
"1220 12 OFFCURVE",
"1272 46 CURVE",
"1270 81 OFFCURVE",
"1269 109 OFFCURVE",
"1269 155 CURVE SMOOTH",
"1269 191 OFFCURVE",
"1272 218 OFFCURVE",
"1273 225 CURVE",
"1280 230 OFFCURVE",
"1299 235 OFFCURVE",
"1314 237 CURVE",
"1312 277 LINE",
"1294 276 OFFCURVE",
"1257 274 OFFCURVE",
"1225 274 CURVE SMOOTH",
"1193 274 OFFCURVE",
"1147 274 OFFCURVE",
"1115 276 CURVE",
"1114 235 LINE",
"1139 234 OFFCURVE",
"1171 228 OFFCURVE",
"1179 224 CURVE",
"1182 217 OFFCURVE",
"1186 191 OFFCURVE",
"1186 108 CURVE SMOOTH",
"1186 23 LINE",
"1210 80 LINE",
"1174 53 OFFCURVE",
"1124 43 OFFCURVE",
"1087 43 CURVE SMOOTH",
"957 43 OFFCURVE",
"857 136 OFFCURVE",
"857 307 CURVE SMOOTH",
"857 436 OFFCURVE",
"925 545 OFFCURVE",
"1076 545 CURVE SMOOTH",
"1113 545 OFFCURVE",
"1160 537 OFFCURVE",
"1186 519 CURVE",
"1198 491 OFFCURVE",
"1207 461 OFFCURVE",
"1215 430 CURVE",
"1260 434 LINE",
"1253 565 LINE",
"1207 585 OFFCURVE",
"1139 596 OFFCURVE",
"1085 596 CURVE SMOOTH",
"877 596 OFFCURVE",
"752 456 OFFCURVE",
"752 288 CURVE SMOOTH",
"752 92 OFFCURVE",
"895 -9 OFFCURVE",
"1079 -9 CURVE SMOOTH"
);
},
{
closed = 1;
nodes = (
"437 -9 OFFCURVE",
"502 11 OFFCURVE",
"548 35 CURVE",
"559 76 OFFCURVE",
"569 119 OFFCURVE",
"576 161 CURVE",
"530 166 LINE",
"514 129 OFFCURVE",
"502 102 OFFCURVE",
"486 72 CURVE",
"455 53 OFFCURVE",
"420 44 OFFCURVE",
"378 44 CURVE SMOOTH",
"256 44 OFFCURVE",
"158 136 OFFCURVE",
"158 307 CURVE SMOOTH",
"158 436 OFFCURVE",
"222 545 OFFCURVE",
"372 545 CURVE SMOOTH",
"410 545 OFFCURVE",
"456 536 OFFCURVE",
"482 519 CURVE",
"494 488 OFFCURVE",
"503 456 OFFCURVE",
"512 424 CURVE",
"557 428 LINE",
"550 565 LINE",
"502 585 OFFCURVE",
"435 596 OFFCURVE",
"381 596 CURVE SMOOTH",
"173 596 OFFCURVE",
"52 456 OFFCURVE",
"52 289 CURVE SMOOTH",
"52 92 OFFCURVE",
"194 -9 OFFCURVE",
"368 -9 CURVE SMOOTH"
);
}
);
};
color = -1;
layerId = "30A8E426-80C1-4FA7-AECB-85F4920FB6F7";
paths = (
{
closed = 1;
nodes = (
"440 -9 OFFCURVE",
"520 12 OFFCURVE",
"572 46 CURVE",
"570 81 OFFCURVE",
"569 109 OFFCURVE",
"569 155 CURVE SMOOTH",
"569 191 OFFCURVE",
"569 218 OFFCURVE",
"570 225 CURVE",
"577 230 OFFCURVE",
"599 235 OFFCURVE",
"614 237 CURVE",
"612 277 LINE",
"594 276 OFFCURVE",
"557 274 OFFCURVE",
"525 274 CURVE SMOOTH",
"493 274 OFFCURVE",
"447 274 OFFCURVE",
"415 276 CURVE",
"414 235 LINE",
"439 234 OFFCURVE",
"471 228 OFFCURVE",
"479 224 CURVE",
"482 217 OFFCURVE",
"486 191 OFFCURVE",
"486 128 CURVE SMOOTH",
"486 23 LINE",
"510 79 LINE",
"474 54 OFFCURVE",
"424 44 OFFCURVE",
"387 44 CURVE SMOOTH",
"256 44 OFFCURVE",
"157 136 OFFCURVE",
"157 307 CURVE SMOOTH",
"157 436 OFFCURVE",
"222 545 OFFCURVE",
"376 545 CURVE SMOOTH",
"413 545 OFFCURVE",
"460 537 OFFCURVE",
"486 519 CURVE",
"498 491 OFFCURVE",
"507 461 OFFCURVE",
"515 430 CURVE",
"560 434 LINE",
"553 565 LINE",
"507 585 OFFCURVE",
"439 596 OFFCURVE",
"385 596 CURVE SMOOTH",
"174 596 OFFCURVE",
"52 456 OFFCURVE",
"52 288 CURVE SMOOTH",
"52 92 OFFCURVE",
"194 -9 OFFCURVE",
"376 -9 CURVE SMOOTH"
);
}
);
width = 657;
},
{
anchors = (
{
name = bottom;
position = "{354, 0}";
},
{
name = top;
position = "{354, 587}";
}
);
background = {
anchors = (
{
name = bottom;
position = "{1154, 0}";
},
{
name = top;
position = "{1154, 587}";
}
);
paths = (
{
closed = 1;
nodes = (
"1246 -9 OFFCURVE",
"1324 16 OFFCURVE",
"1382 55 CURVE",
"1380 93 OFFCURVE",
"1379 119 OFFCURVE",
"1379 135 CURVE SMOOTH",
"1379 165 OFFCURVE",
"1378 200 OFFCURVE",
"1381 207 CURVE",
"1390 217 OFFCURVE",
"1410 224 OFFCURVE",
"1429 227 CURVE",
"1426 279 LINE",
"1403 277 OFFCURVE",
"1352 275 OFFCURVE",
"1301 275 CURVE SMOOTH",
"1249 275 OFFCURVE",
"1204 276 OFFCURVE",
"1172 278 CURVE",
"1171 225 LINE",
"1199 223 OFFCURVE",
"1224 217 OFFCURVE",
"1237 209 CURVE",
"1240 201 OFFCURVE",
"1246 165 OFFCURVE",
"1246 108 CURVE SMOOTH",
"1246 22 LINE",
"1263 72 LINE",
"1242 64 OFFCURVE",
"1217 60 OFFCURVE",
"1200 60 CURVE SMOOTH",
"1094 60 OFFCURVE",
"1008 154 OFFCURVE",
"1008 321 CURVE SMOOTH",
"1008 442 OFFCURVE",
"1076 529 OFFCURVE",
"1190 529 CURVE SMOOTH",
"1213 529 OFFCURVE",
"1246 525 OFFCURVE",
"1276 510 CURVE",
"1289 479 OFFCURVE",
"1297 450 OFFCURVE",
"1308 417 CURVE",
"1371 420 LINE",
"1366 562 LINE",
"1326 582 OFFCURVE",
"1260 596 OFFCURVE",
"1201 596 CURVE SMOOTH",
"998 596 OFFCURVE",
"846 478 OFFCURVE",
"846 280 CURVE SMOOTH",
"846 98 OFFCURVE",
"981 -9 OFFCURVE",
"1174 -9 CURVE SMOOTH"
);
},
{
closed = 1;
nodes = (
"453 -9 OFFCURVE",
"532 16 OFFCURVE",
"572 42 CURVE",
"584 88 OFFCURVE",
"593 131 OFFCURVE",
"601 176 CURVE",
"533 183 LINE",
"523 159 OFFCURVE",
"513 127 OFFCURVE",
"498 94 CURVE",
"478 72 OFFCURVE",
"431 61 OFFCURVE",
"400 61 CURVE SMOOTH",
"294 61 OFFCURVE",
"210 154 OFFCURVE",
"210 308 CURVE SMOOTH",
"210 444 OFFCURVE",
"274 529 OFFCURVE",
"388 529 CURVE SMOOTH",
"421 529 OFFCURVE",
"450 522 OFFCURVE",
"476 510 CURVE",
"489 475 OFFCURVE",
"500 439 OFFCURVE",
"512 404 CURVE",
"574 408 LINE",
"567 562 LINE",
"525 582 OFFCURVE",
"459 596 OFFCURVE",
"397 596 CURVE SMOOTH",
"195 596 OFFCURVE",
"46 478 OFFCURVE",
"46 283 CURVE SMOOTH",
"46 98 OFFCURVE",
"179 -9 OFFCURVE",
"375 -9 CURVE SMOOTH"
);
}
);
};
color = -1;
layerId = "C0B3E82F-C341-4413-A405-AFA97EAADFAC";
paths = (
{
closed = 1;
nodes = (
"446 -9 OFFCURVE",
"524 9 OFFCURVE",
"582 45 CURVE",
"580 93 OFFCURVE",
"579 119 OFFCURVE",
"579 135 CURVE SMOOTH",
"579 165 OFFCURVE",
"578 201 OFFCURVE",
"581 210 CURVE",
"590 218 OFFCURVE",
"610 224 OFFCURVE",
"629 227 CURVE",
"626 279 LINE",
"603 277 OFFCURVE",
"552 275 OFFCURVE",
"501 275 CURVE SMOOTH",
"449 275 OFFCURVE",
"404 276 OFFCURVE",
"372 278 CURVE",
"371 225 LINE",
"399 223 OFFCURVE",
"424 217 OFFCURVE",
"437 209 CURVE",
"440 201 OFFCURVE",
"446 165 OFFCURVE",
"446 128 CURVE SMOOTH",
"446 22 LINE",
"463 76 LINE",
"442 66 OFFCURVE",
"417 60 OFFCURVE",
"400 60 CURVE SMOOTH",
"293 60 OFFCURVE",
"208 154 OFFCURVE",
"208 308 CURVE SMOOTH",
"208 444 OFFCURVE",
"274 529 OFFCURVE",
"390 529 CURVE SMOOTH",
"413 529 OFFCURVE",
"446 525 OFFCURVE",
"476 510 CURVE",
"489 479 OFFCURVE",
"497 450 OFFCURVE",
"508 417 CURVE",
"571 420 LINE",
"566 562 LINE",
"526 582 OFFCURVE",
"460 596 OFFCURVE",
"401 596 CURVE SMOOTH",
"195 596 OFFCURVE",
"46 478 OFFCURVE",
"46 280 CURVE SMOOTH",
"46 98 OFFCURVE",
"181 -9 OFFCURVE",
"374 -9 CURVE SMOOTH"
);
}
);
width = 662;
}
);
leftKerningGroup = C;
note = G;
rightKerningGroup = G;
unicode = 0047;
},
{
color = 3;
glyphname = H;
lastChange = "2018-05-25 07:24:09 +0000";
layers = (
{
anchors = (
{
name = bottom;
position = "{338, 0}";
},
{
name = center;
position = "{338, 434}";
},
{
name = top;
position = "{338, 587}";
},
{
name = topleft;
position = "{27, 587}";
}
);
background = {
anchors = (
{
name = bottom;
position = "{335, 0}";
},
{
name = center;
position = "{335, 434}";
},
{
name = top;
position = "{335, 587}";
},
{
name = topleft;
position = "{27, 587}";
}
);
paths = (
{
closed = 1;
nodes = (
"435 -1 OFFCURVE",
"480 2 OFFCURVE",
"513 2 CURVE SMOOTH",
"546 2 OFFCURVE",
"590 -1 OFFCURVE",
"621 -3 CURVE",
"623 38 LINE",
"600 40 OFFCURVE",
"569 48 OFFCURVE",
"562 52 CURVE",
"558 59 OFFCURVE",
"555 91 OFFCURVE",
"555 199 CURVE SMOOTH",
"555 387 LINE SMOOTH",
"555 496 OFFCURVE",
"558 528 OFFCURVE",
"562 534 CURVE",
"569 539 OFFCURVE",
"600 547 OFFCURVE",
"623 548 CURVE",
"621 589 LINE",
"590 587 OFFCURVE",
"546 585 OFFCURVE",
"513 585 CURVE SMOOTH",
"480 585 OFFCURVE",
"435 587 OFFCURVE",
"404 589 CURVE",
"402 548 LINE",
"425 547 OFFCURVE",
"455 539 OFFCURVE",
"462 534 CURVE",
"466 528 OFFCURVE",
"469 496 OFFCURVE",
"469 387 CURVE SMOOTH",
"469 199 LINE SMOOTH",
"469 91 OFFCURVE",
"466 59 OFFCURVE",
"462 52 CURVE",
"455 48 OFFCURVE",
"425 40 OFFCURVE",
"402 38 CURVE",
"404 -3 LINE"
);
},
{
closed = 1;
nodes = (
"79 -1 OFFCURVE",
"124 2 OFFCURVE",
"157 2 CURVE SMOOTH",
"190 2 OFFCURVE",
"235 -1 OFFCURVE",
"266 -3 CURVE",
"268 38 LINE",
"244 40 OFFCURVE",
"214 48 OFFCURVE",
"207 52 CURVE",
"203 59 OFFCURVE",
"200 91 OFFCURVE",
"200 199 CURVE SMOOTH",
"200 387 LINE SMOOTH",
"200 496 OFFCURVE",
"203 528 OFFCURVE",
"207 534 CURVE",
"214 539 OFFCURVE",
"244 547 OFFCURVE",
"268 548 CURVE",
"266 589 LINE",
"235 587 OFFCURVE",
"190 585 OFFCURVE",
"157 585 CURVE SMOOTH",
"124 585 OFFCURVE",
"79 587 OFFCURVE",
"48 589 CURVE",
"46 548 LINE",
"70 547 OFFCURVE",
"101 539 OFFCURVE",
"108 534 CURVE",
"111 528 OFFCURVE",
"114 496 OFFCURVE",
"114 387 CURVE SMOOTH",
"114 199 LINE SMOOTH",
"114 91 OFFCURVE",
"111 59 OFFCURVE",
"108 52 CURVE",
"101 48 OFFCURVE",
"70 40 OFFCURVE",
"46 38 CURVE",
"48 -3 LINE"
);
},
{
closed = 1;
nodes = (
"219 274 OFFCURVE",
"266 276 OFFCURVE",
"335 276 CURVE SMOOTH",
"405 276 OFFCURVE",
"450 274 OFFCURVE",
"479 272 CURVE",
"479 331 LINE",
"453 329 OFFCURVE",
"405 328 OFFCURVE",
"335 328 CURVE SMOOTH",
"266 328 OFFCURVE",
"216 329 OFFCURVE",
"190 331 CURVE",
"190 272 LINE"
);
}
);
};
color = -1;
layerId = "30A8E426-80C1-4FA7-AECB-85F4920FB6F7";
paths = (
{
closed = 1;
nodes = (
"442 -1 OFFCURVE",
"486 2 OFFCURVE",
"519 2 CURVE SMOOTH",
"552 2 OFFCURVE",
"596 -1 OFFCURVE",
"627 -3 CURVE",
"629 38 LINE",
"606 40 OFFCURVE",
"575 48 OFFCURVE",
"568 52 CURVE",
"564 59 OFFCURVE",
"561 91 OFFCURVE",
"561 199 CURVE SMOOTH",
"561 387 LINE SMOOTH",
"561 496 OFFCURVE",
"564 528 OFFCURVE",
"568 534 CURVE",
"575 539 OFFCURVE",
"606 547 OFFCURVE",
"629 548 CURVE",
"627 589 LINE",
"596 587 OFFCURVE",
"552 585 OFFCURVE",
"519 585 CURVE SMOOTH",
"487 585 OFFCURVE",
"442 587 OFFCURVE",
"411 589 CURVE",
"409 548 LINE",
"432 547 OFFCURVE",
"462 539 OFFCURVE",
"469 534 CURVE",
"473 528 OFFCURVE",
"476 496 OFFCURVE",
"476 387 CURVE SMOOTH",
"476 199 LINE SMOOTH",
"476 91 OFFCURVE",
"473 59 OFFCURVE",
"469 52 CURVE",
"462 48 OFFCURVE",
"432 40 OFFCURVE",
"409 38 CURVE",
"411 -3 LINE"
);
},
{
closed = 1;
nodes = (
"79 -1 OFFCURVE",
"124 2 OFFCURVE",
"157 2 CURVE SMOOTH",
"190 2 OFFCURVE",
"234 -1 OFFCURVE",
"265 -3 CURVE",
"267 38 LINE",
"243 40 OFFCURVE",
"213 48 OFFCURVE",
"206 52 CURVE",
"202 59 OFFCURVE",
"199 91 OFFCURVE",
"199 199 CURVE SMOOTH",
"199 387 LINE SMOOTH",
"199 496 OFFCURVE",
"202 528 OFFCURVE",
"206 534 CURVE",
"213 539 OFFCURVE",
"243 547 OFFCURVE",
"267 548 CURVE",
"265 589 LINE",
"234 587 OFFCURVE",
"190 585 OFFCURVE",
"157 585 CURVE SMOOTH",
"124 585 OFFCURVE",
"79 587 OFFCURVE",
"48 589 CURVE",
"46 548 LINE",
"70 547 OFFCURVE",
"101 539 OFFCURVE",
"108 534 CURVE",
"111 528 OFFCURVE",
"114 496 OFFCURVE",
"114 387 CURVE SMOOTH",
"114 199 LINE SMOOTH",
"114 91 OFFCURVE",
"111 59 OFFCURVE",
"108 52 CURVE",
"101 48 OFFCURVE",
"70 40 OFFCURVE",
"46 38 CURVE",
"48 -3 LINE"
);
},
{
closed = 1;
nodes = (
"218 274 OFFCURVE",
"265 276 OFFCURVE",
"338 276 CURVE SMOOTH",
"411 276 OFFCURVE",
"457 274 OFFCURVE",
"486 272 CURVE",
"486 331 LINE",
"460 329 OFFCURVE",
"411 328 OFFCURVE",
"338 328 CURVE SMOOTH",
"265 328 OFFCURVE",
"215 329 OFFCURVE",
"189 331 CURVE",
"189 272 LINE"
);
}
);
width = 675;
},
{
anchors = (
{
name = bottom;
position = "{350, 0}";
},
{
name = center;
position = "{350, 434}";
},
{
name = top;
position = "{350, 587}";
},
{
name = topleft;
position = "{27, 587}";
}
);
background = {
anchors = (
{
name = bottom;
position = "{346, 0}";
},
{
name = center;
position = "{346, 434}";
},
{
name = top;
position = "{346, 587}";
},
{
name = topleft;
position = "{27, 587}";
}
);
paths = (
{
closed = 1;
nodes = (
"416 -2 OFFCURVE",
"466 2 OFFCURVE",
"520 2 CURVE SMOOTH",
"574 2 OFFCURVE",
"627 -2 OFFCURVE",
"658 -5 CURVE",
"661 50 LINE",
"635 54 OFFCURVE",
"607 59 OFFCURVE",
"597 67 CURVE",
"593 75 OFFCURVE",
"589 137 OFFCURVE",
"589 221 CURVE SMOOTH",
"589 366 LINE SMOOTH",
"589 451 OFFCURVE",
"593 513 OFFCURVE",
"597 520 CURVE",
"607 529 OFFCURVE",
"635 534 OFFCURVE",
"661 536 CURVE",
"658 591 LINE",
"627 589 OFFCURVE",
"574 586 OFFCURVE",
"520 586 CURVE SMOOTH",
"466 586 OFFCURVE",
"416 589 OFFCURVE",
"386 591 CURVE",
"383 536 LINE",
"408 534 OFFCURVE",
"434 529 OFFCURVE",
"445 520 CURVE",
"448 513 OFFCURVE",
"452 451 OFFCURVE",
"452 366 CURVE SMOOTH",
"452 221 LINE SMOOTH",
"452 137 OFFCURVE",
"448 75 OFFCURVE",
"445 67 CURVE",
"434 59 OFFCURVE",
"408 54 OFFCURVE",
"383 50 CURVE",
"386 -5 LINE"
);
},
{
closed = 1;
nodes = (
"65 -2 OFFCURVE",
"118 2 OFFCURVE",
"172 2 CURVE SMOOTH",
"226 2 OFFCURVE",
"277 -2 OFFCURVE",
"306 -5 CURVE",
"309 50 LINE",
"284 54 OFFCURVE",
"258 59 OFFCURVE",
"247 67 CURVE",
"244 75 OFFCURVE",
"240 137 OFFCURVE",
"240 221 CURVE SMOOTH",
"240 366 LINE SMOOTH",
"240 451 OFFCURVE",
"244 513 OFFCURVE",
"247 520 CURVE",
"258 529 OFFCURVE",
"284 534 OFFCURVE",
"309 536 CURVE",
"306 591 LINE",
"277 589 OFFCURVE",
"226 586 OFFCURVE",
"172 586 CURVE SMOOTH",
"118 586 OFFCURVE",
"65 589 OFFCURVE",
"35 591 CURVE",
"32 536 LINE",
"57 534 OFFCURVE",
"85 529 OFFCURVE",
"96 520 CURVE",
"100 513 OFFCURVE",
"103 451 OFFCURVE",
"103 366 CURVE SMOOTH",
"103 221 LINE SMOOTH",
"103 137 OFFCURVE",
"100 75 OFFCURVE",
"96 67 CURVE",
"85 59 OFFCURVE",
"57 54 OFFCURVE",
"32 50 CURVE",
"35 -5 LINE"
);
},
{
closed = 1;
nodes = (
"245 262 OFFCURVE",
"284 265 OFFCURVE",
"346 265 CURVE SMOOTH",
"408 265 OFFCURVE",
"447 262 OFFCURVE",
"475 261 CURVE",
"475 338 LINE",
"446 336 OFFCURVE",
"408 334 OFFCURVE",
"346 334 CURVE SMOOTH",
"284 334 OFFCURVE",
"246 336 OFFCURVE",
"217 338 CURVE",
"217 261 LINE"
);
}
);
};
color = -1;
layerId = "C0B3E82F-C341-4413-A405-AFA97EAADFAC";
paths = (
{
closed = 1;
nodes = (
"424 -2 OFFCURVE",
"474 2 OFFCURVE",
"528 2 CURVE SMOOTH",
"582 2 OFFCURVE",
"635 -2 OFFCURVE",
"666 -5 CURVE",
"669 50 LINE",
"643 54 OFFCURVE",
"615 59 OFFCURVE",
"605 67 CURVE",
"601 75 OFFCURVE",
"597 137 OFFCURVE",
"597 221 CURVE SMOOTH",
"597 366 LINE SMOOTH",
"597 451 OFFCURVE",
"601 513 OFFCURVE",
"605 520 CURVE",
"615 529 OFFCURVE",
"643 534 OFFCURVE",
"669 536 CURVE",
"666 591 LINE",
"635 589 OFFCURVE",
"582 586 OFFCURVE",
"528 586 CURVE SMOOTH",
"474 586 OFFCURVE",
"424 589 OFFCURVE",
"394 591 CURVE",
"391 536 LINE",
"416 534 OFFCURVE",
"442 529 OFFCURVE",
"453 520 CURVE",
"456 513 OFFCURVE",
"460 451 OFFCURVE",
"460 366 CURVE SMOOTH",
"460 221 LINE SMOOTH",
"460 137 OFFCURVE",
"456 75 OFFCURVE",
"453 67 CURVE",
"442 59 OFFCURVE",
"416 54 OFFCURVE",
"391 50 CURVE",
"394 -5 LINE"
);
},
{
closed = 1;
nodes = (
"65 -2 OFFCURVE",
"118 2 OFFCURVE",
"172 2 CURVE SMOOTH",
"226 2 OFFCURVE",
"277 -2 OFFCURVE",
"306 -5 CURVE",
"309 50 LINE",
"284 54 OFFCURVE",
"258 59 OFFCURVE",
"247 67 CURVE",
"244 75 OFFCURVE",
"240 137 OFFCURVE",
"240 221 CURVE SMOOTH",
"240 366 LINE SMOOTH",
"240 451 OFFCURVE",
"244 513 OFFCURVE",
"247 520 CURVE",
"258 529 OFFCURVE",
"284 534 OFFCURVE",
"309 536 CURVE",
"306 591 LINE",
"277 589 OFFCURVE",
"226 586 OFFCURVE",
"172 586 CURVE SMOOTH",
"118 586 OFFCURVE",
"65 589 OFFCURVE",
"35 591 CURVE",
"32 536 LINE",
"57 534 OFFCURVE",
"85 529 OFFCURVE",
"96 520 CURVE",
"100 513 OFFCURVE",
"103 451 OFFCURVE",
"103 366 CURVE SMOOTH",
"103 221 LINE SMOOTH",
"103 137 OFFCURVE",
"100 75 OFFCURVE",
"96 67 CURVE",
"85 59 OFFCURVE",
"57 54 OFFCURVE",
"32 50 CURVE",
"35 -5 LINE"
);
},
{
closed = 1;
nodes = (
"245 262 OFFCURVE",
"284 265 OFFCURVE",
"350 265 CURVE SMOOTH",
"416 265 OFFCURVE",
"455 262 OFFCURVE",
"483 261 CURVE",
"483 338 LINE",
"454 336 OFFCURVE",
"416 334 OFFCURVE",
"350 334 CURVE SMOOTH",
"284 334 OFFCURVE",
"246 336 OFFCURVE",
"217 338 CURVE",
"217 261 LINE"
);
}
);
width = 700;
}
);
leftKerningGroup = B;
note = H;
rightKerningGroup = H;
unicode = 0048;
},
{
color = 3;
glyphname = I;
lastChange = "2018-05-24 13:34:10 +0000";
layers = (
{
anchors = (
{
name = bottom;
position = "{157, 0}";
},
{
name = ogonek;
position = "{214, 0}";
},
{
name = top;
position = "{157, 587}";
},
{
name = topleft;
position = "{27, 587}";
}
);
background = {
anchors = (
{
name = bottom;
position = "{157, 0}";
},
{
name = ogonek;
position = "{214, 0}";
},
{
name = top;
position = "{157, 587}";
},
{
name = topleft;
position = "{27, 587}";
}
);
paths = (
{
closed = 1;
nodes = (
"79 -1 OFFCURVE",
"124 2 OFFCURVE",
"157 2 CURVE SMOOTH",
"190 2 OFFCURVE",
"235 -1 OFFCURVE",
"266 -3 CURVE",
"268 38 LINE",
"244 40 OFFCURVE",
"214 48 OFFCURVE",
"207 52 CURVE",
"203 59 OFFCURVE",
"200 91 OFFCURVE",
"200 199 CURVE SMOOTH",
"200 387 LINE SMOOTH",
"200 496 OFFCURVE",
"203 528 OFFCURVE",
"207 534 CURVE",
"214 539 OFFCURVE",
"244 547 OFFCURVE",
"268 548 CURVE",
"266 589 LINE",
"235 587 OFFCURVE",
"190 586 OFFCURVE",
"157 586 CURVE SMOOTH",
"124 586 OFFCURVE",
"79 587 OFFCURVE",
"48 589 CURVE",
"46 548 LINE",
"70 547 OFFCURVE",
"101 539 OFFCURVE",
"108 534 CURVE",
"111 528 OFFCURVE",
"114 496 OFFCURVE",
"114 387 CURVE SMOOTH",
"114 199 LINE SMOOTH",
"114 91 OFFCURVE",
"111 59 OFFCURVE",
"108 52 CURVE",
"101 48 OFFCURVE",
"70 40 OFFCURVE",
"46 38 CURVE",
"48 -3 LINE"
);
}
);
};
color = -1;
layerId = "30A8E426-80C1-4FA7-AECB-85F4920FB6F7";
paths = (
{
closed = 1;
nodes = (
"79 -1 OFFCURVE",
"124 2 OFFCURVE",
"157 2 CURVE SMOOTH",
"189 2 OFFCURVE",
"234 -1 OFFCURVE",
"265 -3 CURVE",
"267 38 LINE",
"243 40 OFFCURVE",
"213 48 OFFCURVE",
"206 52 CURVE",
"202 59 OFFCURVE",
"199 91 OFFCURVE",
"199 199 CURVE SMOOTH",
"199 387 LINE SMOOTH",
"199 496 OFFCURVE",
"202 528 OFFCURVE",
"206 534 CURVE",
"213 539 OFFCURVE",
"243 547 OFFCURVE",
"267 548 CURVE",
"265 589 LINE",
"234 587 OFFCURVE",
"189 585 OFFCURVE",
"157 585 CURVE SMOOTH",
"124 585 OFFCURVE",
"79 587 OFFCURVE",
"48 589 CURVE",
"46 548 LINE",
"70 547 OFFCURVE",
"101 539 OFFCURVE",
"108 534 CURVE",
"111 528 OFFCURVE",
"114 496 OFFCURVE",
"114 387 CURVE SMOOTH",
"114 199 LINE SMOOTH",
"114 91 OFFCURVE",
"111 59 OFFCURVE",
"108 52 CURVE",
"101 48 OFFCURVE",
"70 40 OFFCURVE",
"46 38 CURVE",
"48 -3 LINE"
);
}
);
width = 313;
},
{
anchors = (
{
name = bottom;
position = "{172, 0}";
},
{
name = ogonek;
position = "{246, 0}";
},
{
name = top;
position = "{172, 587}";
},
{
name = topleft;
position = "{27, 587}";
}
);
background = {
anchors = (
{
name = bottom;
position = "{172, 0}";
},
{
name = ogonek;
position = "{246, 0}";
},
{
name = top;
position = "{172, 587}";
},
{
name = topleft;
position = "{27, 587}";
}
);
paths = (
{
closed = 1;
nodes = (
"65 -2 OFFCURVE",
"118 2 OFFCURVE",
"172 2 CURVE SMOOTH",
"226 2 OFFCURVE",
"279 -2 OFFCURVE",
"309 -5 CURVE",
"312 50 LINE",
"286 54 OFFCURVE",
"258 59 OFFCURVE",
"247 67 CURVE",
"244 75 OFFCURVE",
"240 137 OFFCURVE",
"240 221 CURVE SMOOTH",
"240 366 LINE SMOOTH",
"240 451 OFFCURVE",
"244 513 OFFCURVE",
"247 520 CURVE",
"258 529 OFFCURVE",
"286 534 OFFCURVE",
"312 536 CURVE",
"309 591 LINE",
"279 589 OFFCURVE",
"226 588 OFFCURVE",
"172 588 CURVE SMOOTH",
"118 588 OFFCURVE",
"65 589 OFFCURVE",
"35 591 CURVE",
"32 536 LINE",
"57 534 OFFCURVE",
"85 529 OFFCURVE",
"96 520 CURVE",
"100 513 OFFCURVE",
"103 451 OFFCURVE",
"103 366 CURVE SMOOTH",
"103 221 LINE SMOOTH",
"103 137 OFFCURVE",
"100 75 OFFCURVE",
"96 67 CURVE",
"85 59 OFFCURVE",
"57 54 OFFCURVE",
"32 50 CURVE",
"35 -5 LINE"
);
}
);
};
color = -1;
layerId = "C0B3E82F-C341-4413-A405-AFA97EAADFAC";
paths = (
{
closed = 1;
nodes = (
"65 -2 OFFCURVE",
"118 2 OFFCURVE",
"172 2 CURVE SMOOTH",
"226 2 OFFCURVE",
"279 -2 OFFCURVE",
"309 -5 CURVE",
"312 50 LINE",
"286 54 OFFCURVE",
"258 59 OFFCURVE",
"247 67 CURVE",
"244 75 OFFCURVE",
"240 137 OFFCURVE",
"240 221 CURVE SMOOTH",
"240 366 LINE SMOOTH",
"240 451 OFFCURVE",
"244 513 OFFCURVE",
"247 520 CURVE",
"258 529 OFFCURVE",
"286 534 OFFCURVE",
"312 536 CURVE",
"309 591 LINE",
"279 589 OFFCURVE",
"226 586 OFFCURVE",
"172 586 CURVE SMOOTH",
"118 586 OFFCURVE",
"65 589 OFFCURVE",
"35 591 CURVE",
"32 536 LINE",
"57 534 OFFCURVE",
"85 529 OFFCURVE",
"96 520 CURVE",
"100 513 OFFCURVE",
"103 451 OFFCURVE",
"103 366 CURVE SMOOTH",
"103 221 LINE SMOOTH",
"103 137 OFFCURVE",
"100 75 OFFCURVE",
"96 67 CURVE",
"85 59 OFFCURVE",
"57 54 OFFCURVE",
"32 50 CURVE",
"35 -5 LINE"
);
}
);
width = 343;
}
);
leftKerningGroup = B;
note = I;
rightKerningGroup = H;
unicode = 0049;
},
{
color = 3;
glyphname = Iogonek;
lastChange = "2018-05-24 13:34:21 +0000";
layers = (
{
anchors = (
{
name = top;
position = "{157, 587}";
},
{
name = topleft;
position = "{27, 587}";
}
);
background = {
anchors = (
{
name = top;
position = "{157, 587}";
},
{
name = topleft;
position = "{27, 587}";
}
);
paths = (
{
closed = 1;
nodes = (
"200 387 LINE SMOOTH",
"200 496 OFFCURVE",
"203 528 OFFCURVE",
"207 534 CURVE",
"214 539 OFFCURVE",
"244 547 OFFCURVE",
"268 548 CURVE",
"266 589 LINE",
"235 587 OFFCURVE",
"190 586 OFFCURVE",
"157 586 CURVE SMOOTH",
"124 586 OFFCURVE",
"79 587 OFFCURVE",
"48 589 CURVE",
"46 548 LINE",
"70 547 OFFCURVE",
"101 539 OFFCURVE",
"108 534 CURVE",
"111 528 OFFCURVE",
"114 496 OFFCURVE",
"114 387 CURVE SMOOTH",
"114 199 LINE SMOOTH",
"114 91 OFFCURVE",
"111 59 OFFCURVE",
"108 52 CURVE",
"101 48 OFFCURVE",
"70 40 OFFCURVE",
"46 38 CURVE",
"48 -3 LINE",
"86 0 OFFCURVE",
"145 2 OFFCURVE",
"191 2 CURVE",
"183 11 LINE",
"87 -9 OFFCURVE",
"35 -70 OFFCURVE",
"35 -128 CURVE SMOOTH",
"35 -178 OFFCURVE",
"82 -223 OFFCURVE",
"152 -223 CURVE SMOOTH",
"195 -223 OFFCURVE",
"232 -204 OFFCURVE",
"257 -173 CURVE",
"235 -146 LINE",
"214 -167 OFFCURVE",
"192 -181 OFFCURVE",
"166 -181 CURVE SMOOTH",
"129 -181 OFFCURVE",
"105 -158 OFFCURVE",
"105 -116 CURVE SMOOTH",
"105 -67 OFFCURVE",
"154 0 OFFCURVE",
"266 0 CURVE",
"268 38 LINE",
"244 40 OFFCURVE",
"214 48 OFFCURVE",
"207 52 CURVE",
"203 59 OFFCURVE",
"200 91 OFFCURVE",
"200 199 CURVE SMOOTH"
);
}
);
};
color = -1;
layerId = "30A8E426-80C1-4FA7-AECB-85F4920FB6F7";
paths = (
{
closed = 1;
nodes = (
"199 387 LINE SMOOTH",
"199 496 OFFCURVE",
"202 528 OFFCURVE",
"206 534 CURVE",
"213 539 OFFCURVE",
"243 547 OFFCURVE",
"267 548 CURVE",
"265 589 LINE",
"234 587 OFFCURVE",
"189 585 OFFCURVE",
"157 585 CURVE SMOOTH",
"124 585 OFFCURVE",
"79 587 OFFCURVE",
"48 589 CURVE",
"46 548 LINE",
"70 547 OFFCURVE",
"101 539 OFFCURVE",
"108 534 CURVE",
"111 528 OFFCURVE",
"114 496 OFFCURVE",
"114 387 CURVE SMOOTH",
"114 199 LINE SMOOTH",
"114 91 OFFCURVE",
"111 59 OFFCURVE",
"108 52 CURVE",
"101 48 OFFCURVE",
"70 40 OFFCURVE",
"46 38 CURVE",
"48 -3 LINE",
"86 0 OFFCURVE",
"145 2 OFFCURVE",
"191 2 CURVE",
"191 11 LINE",
"87 -9 OFFCURVE",
"45 -69 OFFCURVE",
"45 -125 CURVE SMOOTH",
"45 -177 OFFCURVE",
"89 -223 OFFCURVE",
"160 -223 CURVE SMOOTH",
"199 -223 OFFCURVE",
"235 -204 OFFCURVE",
"260 -173 CURVE",
"236 -147 LINE",
"217 -167 OFFCURVE",
"197 -181 OFFCURVE",
"172 -181 CURVE SMOOTH",
"136 -181 OFFCURVE",
"115 -158 OFFCURVE",
"115 -115 CURVE SMOOTH",
"115 -51 OFFCURVE",
"182 0 OFFCURVE",
"265 0 CURVE",
"267 38 LINE",
"243 40 OFFCURVE",
"213 48 OFFCURVE",
"206 52 CURVE",
"202 59 OFFCURVE",
"199 91 OFFCURVE",
"199 199 CURVE SMOOTH"
);
}
);
width = 313;
},
{
anchors = (
{
name = top;
position = "{172, 587}";
},
{
name = topleft;
position = "{27, 587}";
}
);
background = {
anchors = (
{
name = top;
position = "{172, 587}";
},
{
name = topleft;
position = "{27, 587}";
}
);
paths = (
{
closed = 1;
nodes = (
"240 366 LINE SMOOTH",
"240 451 OFFCURVE",
"244 513 OFFCURVE",
"247 520 CURVE",
"258 529 OFFCURVE",
"286 534 OFFCURVE",
"312 536 CURVE",
"309 591 LINE",
"279 589 OFFCURVE",
"226 588 OFFCURVE",
"172 588 CURVE SMOOTH",
"118 588 OFFCURVE",
"65 589 OFFCURVE",
"35 591 CURVE",
"32 536 LINE",
"57 534 OFFCURVE",
"85 529 OFFCURVE",
"96 520 CURVE",
"100 513 OFFCURVE",
"103 451 OFFCURVE",
"103 366 CURVE SMOOTH",
"103 221 LINE SMOOTH",
"103 137 OFFCURVE",
"100 75 OFFCURVE",
"96 67 CURVE",
"85 59 OFFCURVE",
"57 54 OFFCURVE",
"32 50 CURVE",
"35 -5 LINE",
"71 -1 OFFCURVE",
"123 2 OFFCURVE",
"217 2 CURVE",
"216 14 LINE",
"104 -10 OFFCURVE",
"44 -67 OFFCURVE",
"44 -122 CURVE SMOOTH",
"44 -181 OFFCURVE",
"102 -223 OFFCURVE",
"174 -223 CURVE SMOOTH",
"221 -223 OFFCURVE",
"260 -205 OFFCURVE",
"289 -173 CURVE",
"261 -134 LINE",
"237 -157 OFFCURVE",
"215 -168 OFFCURVE",
"193 -168 CURVE SMOOTH",
"163 -168 OFFCURVE",
"141 -148 OFFCURVE",
"141 -109 CURVE SMOOTH",
"141 -50 OFFCURVE",
"220 0 OFFCURVE",
"309 0 CURVE",
"312 50 LINE",
"286 54 OFFCURVE",
"258 59 OFFCURVE",
"247 67 CURVE",
"244 75 OFFCURVE",
"240 137 OFFCURVE",
"240 221 CURVE SMOOTH"
);
}
);
};
color = -1;
layerId = "C0B3E82F-C341-4413-A405-AFA97EAADFAC";
paths = (
{
closed = 1;
nodes = (
"240 366 LINE SMOOTH",
"240 451 OFFCURVE",
"244 513 OFFCURVE",
"247 520 CURVE",
"258 529 OFFCURVE",
"286 534 OFFCURVE",
"312 536 CURVE",
"309 591 LINE",
"279 589 OFFCURVE",
"226 586 OFFCURVE",
"172 586 CURVE SMOOTH",
"118 586 OFFCURVE",
"65 589 OFFCURVE",
"35 591 CURVE",
"32 536 LINE",
"57 534 OFFCURVE",
"85 529 OFFCURVE",
"96 520 CURVE",
"100 513 OFFCURVE",
"103 451 OFFCURVE",
"103 366 CURVE SMOOTH",
"103 221 LINE SMOOTH",
"103 137 OFFCURVE",
"100 75 OFFCURVE",
"96 67 CURVE",
"85 59 OFFCURVE",
"57 54 OFFCURVE",
"32 50 CURVE",
"35 -5 LINE",
"71 -1 OFFCURVE",
"123 2 OFFCURVE",
"217 2 CURVE",
"216 14 LINE",
"94 -12 OFFCURVE",
"44 -67 OFFCURVE",
"44 -122 CURVE SMOOTH",
"44 -181 OFFCURVE",
"99 -223 OFFCURVE",
"174 -223 CURVE SMOOTH",
"221 -223 OFFCURVE",
"260 -205 OFFCURVE",
"289 -173 CURVE",
"261 -134 LINE",
"239 -157 OFFCURVE",
"216 -168 OFFCURVE",
"195 -168 CURVE SMOOTH",
"164 -168 OFFCURVE",
"141 -148 OFFCURVE",
"141 -109 CURVE SMOOTH",
"141 -51 OFFCURVE",
"219 0 OFFCURVE",
"309 0 CURVE",
"312 50 LINE",
"286 54 OFFCURVE",
"258 59 OFFCURVE",
"247 67 CURVE",
"244 75 OFFCURVE",
"240 137 OFFCURVE",
"240 221 CURVE SMOOTH"
);
}
);
width = 343;
}
);
widthMetricsKey = I;
note = Iogonek;
rightMetricsKey = I;
unicode = 012E;
},
{
color = 3;
glyphname = J;
lastChange = "2018-05-24 13:47:17 +0000";
layers = (
{
anchors = (
{
name = top;
position = "{160, 587}";
}
);
background = {
paths = (
{
closed = 1;
nodes = (
"82 -1 OFFCURVE",
"127 2 OFFCURVE",
"160 2 CURVE SMOOTH",
"192 2 OFFCURVE",
"237 -1 OFFCURVE",
"268 -3 CURVE",
"270 38 LINE",
"246 40 OFFCURVE",
"216 48 OFFCURVE",
"209 52 CURVE",
"205 59 OFFCURVE",
"202 91 OFFCURVE",
"202 199 CURVE SMOOTH",
"202 387 LINE SMOOTH",
"202 496 OFFCURVE",
"205 528 OFFCURVE",
"209 534 CURVE",
"216 539 OFFCURVE",
"246 547 OFFCURVE",
"270 548 CURVE",
"268 589 LINE",
"237 587 OFFCURVE",
"192 585 OFFCURVE",
"160 585 CURVE SMOOTH",
"127 585 OFFCURVE",
"82 587 OFFCURVE",
"51 589 CURVE",
"49 548 LINE",
"73 547 OFFCURVE",
"104 539 OFFCURVE",
"111 534 CURVE",
"114 528 OFFCURVE",
"117 496 OFFCURVE",
"117 387 CURVE SMOOTH",
"117 199 LINE SMOOTH",
"117 91 OFFCURVE",
"114 59 OFFCURVE",
"111 52 CURVE",
"104 48 OFFCURVE",
"73 40 OFFCURVE",
"49 38 CURVE",
"51 -3 LINE"
);
}
);
};
color = -1;
layerId = "30A8E426-80C1-4FA7-AECB-85F4920FB6F7";
paths = (
{
closed = 1;
nodes = (
"215 537 OFFCURVE",
"245 547 OFFCURVE",
"266 548 CURVE",
"264 589 LINE",
"235 587 OFFCURVE",
"191 585 OFFCURVE",
"160 585 CURVE SMOOTH",
"127 585 OFFCURVE",
"79 587 OFFCURVE",
"45 589 CURVE",
"43 548 LINE",
"70 547 OFFCURVE",
"104 537 OFFCURVE",
"111 534 CURVE",
"114 526 OFFCURVE",
"117 496 OFFCURVE",
"117 387 CURVE",
"116 -27 LINE",
"116 -148 OFFCURVE",
"83 -169 OFFCURVE",
"36 -161 CURVE",
"71 -173 LINE",
"19 -121 LINE SMOOTH",
"1 -103 OFFCURVE",
"-15 -95 OFFCURVE",
"-33 -95 CURVE SMOOTH",
"-56 -95 OFFCURVE",
"-72 -109 OFFCURVE",
"-72 -132 CURVE SMOOTH",
"-72 -171 OFFCURVE",
"-18 -203 OFFCURVE",
"41 -203 CURVE SMOOTH",
"131 -203 OFFCURVE",
"203 -132 OFFCURVE",
"203 16 CURVE",
"202 387 LINE",
"202 496 OFFCURVE",
"205 528 OFFCURVE",
"209 534 CURVE"
);
}
);
width = 313;
},
{
anchors = (
{
name = top;
position = "{174, 587}";
}
);
background = {
anchors = (
{
name = top;
position = "{174, 587}";
}
);
paths = (
{
closed = 1;
nodes = (
"260 526 OFFCURVE",
"289 532 OFFCURVE",
"314 533 CURVE",
"311 590 LINE",
"281 589 OFFCURVE",
"228 588 OFFCURVE",
"174 588 CURVE SMOOTH",
"120 588 OFFCURVE",
"67 589 OFFCURVE",
"37 590 CURVE",
"34 533 LINE",
"60 532 OFFCURVE",
"87 526 OFFCURVE",
"98 518 CURVE",
"101 510 OFFCURVE",
"105 451 OFFCURVE",
"105 368 CURVE SMOOTH",
"106 -21 LINE",
"106 -141 OFFCURVE",
"92 -154 OFFCURVE",
"48 -147 CURVE",
"105 -167 LINE",
"33 -100 LINE SMOOTH",
"4 -73 OFFCURVE",
"-15 -66 OFFCURVE",
"-37 -66 CURVE SMOOTH",
"-65 -66 OFFCURVE",
"-87 -84 OFFCURVE",
"-87 -117 CURVE SMOOTH",
"-87 -169 OFFCURVE",
"-24 -203 OFFCURVE",
"65 -203 CURVE SMOOTH",
"159 -203 OFFCURVE",
"244 -133 OFFCURVE",
"244 3 CURVE",
"242 366 LINE",
"242 451 OFFCURVE",
"245 510 OFFCURVE",
"249 518 CURVE"
);
}
);
};
color = -1;
layerId = "C0B3E82F-C341-4413-A405-AFA97EAADFAC";
paths = (
{
closed = 1;
nodes = (
"260 528 OFFCURVE",
"289 534 OFFCURVE",
"313 535 CURVE",
"310 590 LINE",
"281 589 OFFCURVE",
"228 586 OFFCURVE",
"174 586 CURVE SMOOTH",
"120 586 OFFCURVE",
"66 589 OFFCURVE",
"34 590 CURVE",
"31 535 LINE",
"59 534 OFFCURVE",
"87 528 OFFCURVE",
"98 521 CURVE",
"101 512 OFFCURVE",
"105 453 OFFCURVE",
"105 370 CURVE",
"106 -21 LINE",
"106 -141 OFFCURVE",
"92 -154 OFFCURVE",
"48 -147 CURVE",
"105 -167 LINE",
"33 -100 LINE SMOOTH",
"4 -73 OFFCURVE",
"-15 -66 OFFCURVE",
"-37 -66 CURVE SMOOTH",
"-65 -66 OFFCURVE",
"-87 -85 OFFCURVE",
"-87 -119 CURVE SMOOTH",
"-87 -170 OFFCURVE",
"-24 -203 OFFCURVE",
"55 -203 CURVE SMOOTH",
"159 -203 OFFCURVE",
"244 -133 OFFCURVE",
"244 3 CURVE",
"242 368 LINE",
"242 453 OFFCURVE",
"245 512 OFFCURVE",
"249 520 CURVE"
);
}
);
width = 344;
}
);
leftKerningGroup = J;
note = J;
rightKerningGroup = J;
unicode = 004A;
},
{
color = 3;
glyphname = K;
lastChange = "2018-05-24 13:49:38 +0000";
layers = (
{
anchors = (
{
name = bottom;
position = "{316, 0}";
},
{
name = top;
position = "{316, 587}";
}
);
background = {
anchors = (
{
name = bottom;
position = "{316, 0}";
},
{
name = top;
position = "{316, 587}";
}
);
paths = (
{
closed = 1;
nodes = (
"401 -1 OFFCURVE",
"447 2 OFFCURVE",
"479 2 CURVE SMOOTH",
"514 2 OFFCURVE",
"558 1 OFFCURVE",
"602 -2 CURVE",
"602 39 LINE",
"581 42 OFFCURVE",
"566 45 OFFCURVE",
"548 51 CURVE",
"533 64 OFFCURVE",
"510 87 OFFCURVE",
"479 126 CURVE SMOOTH",
"287 341 LINE",
"284 309 LINE",
"527 537 LINE",
"545 541 OFFCURVE",
"569 545 OFFCURVE",
"585 547 CURVE",
"583 588 LINE",
"558 587 OFFCURVE",
"518 586 OFFCURVE",
"491 586 CURVE SMOOTH",
"465 586 OFFCURVE",
"417 586 OFFCURVE",
"388 587 CURVE",
"387 546 LINE",
"405 545 OFFCURVE",
"430 541 OFFCURVE",
"449 536 CURVE",
"241 323 LINE",
"188 309 LINE",
"188 272 LINE",
"227 272 LINE",
"387 98 LINE SMOOTH",
"405 78 OFFCURVE",
"418 61 OFFCURVE",
"427 49 CURVE",
"419 46 OFFCURVE",
"390 40 OFFCURVE",
"368 38 CURVE",
"370 -3 LINE"
);
},
{
closed = 1;
nodes = (
"80 -1 OFFCURVE",
"124 2 OFFCURVE",
"157 2 CURVE SMOOTH",
"190 2 OFFCURVE",
"234 -1 OFFCURVE",
"264 -3 CURVE",
"266 38 LINE",
"244 40 OFFCURVE",
"213 48 OFFCURVE",
"205 52 CURVE",
"202 59 OFFCURVE",
"200 91 OFFCURVE",
"200 199 CURVE SMOOTH",
"200 387 LINE SMOOTH",
"200 496 OFFCURVE",
"203 528 OFFCURVE",
"207 534 CURVE",
"214 539 OFFCURVE",
"244 547 OFFCURVE",
"268 547 CURVE",
"266 589 LINE",
"235 587 OFFCURVE",
"190 585 OFFCURVE",
"157 585 CURVE SMOOTH",
"124 585 OFFCURVE",
"79 587 OFFCURVE",
"48 589 CURVE",
"46 547 LINE",
"70 547 OFFCURVE",
"101 539 OFFCURVE",
"108 534 CURVE",
"111 528 OFFCURVE",
"114 496 OFFCURVE",
"114 387 CURVE SMOOTH",
"114 199 LINE SMOOTH",
"114 91 OFFCURVE",
"111 59 OFFCURVE",
"108 52 CURVE",
"101 48 OFFCURVE",
"71 40 OFFCURVE",
"48 38 CURVE",
"50 -3 LINE"
);
}
);
};
color = -1;
layerId = "30A8E426-80C1-4FA7-AECB-85F4920FB6F7";
paths = (
{
closed = 1;
nodes = (
"396 -1 OFFCURVE",
"443 2 OFFCURVE",
"476 2 CURVE SMOOTH",
"513 2 OFFCURVE",
"557 1 OFFCURVE",
"601 -2 CURVE",
"601 39 LINE",
"580 42 OFFCURVE",
"565 45 OFFCURVE",
"547 51 CURVE",
"532 64 OFFCURVE",
"511 89 OFFCURVE",
"478 126 CURVE SMOOTH",
"287 339 LINE",
"284 309 LINE",
"525 537 LINE",
"543 541 OFFCURVE",
"567 545 OFFCURVE",
"583 547 CURVE",
"581 588 LINE",
"556 587 OFFCURVE",
"516 586 OFFCURVE",
"489 586 CURVE SMOOTH",
"463 586 OFFCURVE",
"415 586 OFFCURVE",
"386 587 CURVE",
"385 546 LINE",
"403 545 OFFCURVE",
"428 541 OFFCURVE",
"447 536 CURVE",
"241 323 LINE",
"188 309 LINE",
"188 272 LINE",
"229 272 LINE",
"382 98 LINE SMOOTH",
"400 78 OFFCURVE",
"413 61 OFFCURVE",
"422 49 CURVE",
"414 46 OFFCURVE",
"385 40 OFFCURVE",
"363 38 CURVE",
"365 -3 LINE"
);
},
{
closed = 1;
nodes = (
"80 -1 OFFCURVE",
"124 2 OFFCURVE",
"157 2 CURVE SMOOTH",
"190 2 OFFCURVE",
"234 -1 OFFCURVE",
"264 -3 CURVE",
"266 38 LINE",
"244 40 OFFCURVE",
"213 48 OFFCURVE",
"205 52 CURVE",
"202 59 OFFCURVE",
"200 91 OFFCURVE",
"200 199 CURVE SMOOTH",
"200 387 LINE SMOOTH",
"200 496 OFFCURVE",
"203 529 OFFCURVE",
"207 535 CURVE",
"214 540 OFFCURVE",
"244 548 OFFCURVE",
"268 548 CURVE",
"266 589 LINE",
"235 587 OFFCURVE",
"190 585 OFFCURVE",
"157 585 CURVE SMOOTH",
"124 585 OFFCURVE",
"79 587 OFFCURVE",
"48 589 CURVE",
"46 548 LINE",
"70 548 OFFCURVE",
"101 540 OFFCURVE",
"108 535 CURVE",
"111 529 OFFCURVE",
"114 496 OFFCURVE",
"114 387 CURVE SMOOTH",
"114 199 LINE SMOOTH",
"114 91 OFFCURVE",
"111 59 OFFCURVE",
"108 52 CURVE",
"101 48 OFFCURVE",
"71 40 OFFCURVE",
"48 38 CURVE",
"50 -3 LINE"
);
}
);
width = 596;
},
{
anchors = (
{
name = bottom;
position = "{330, 0}";
},
{
name = top;
position = "{330, 587}";
}
);
background = {
anchors = (
{
name = bottom;
position = "{330, 0}";
},
{
name = top;
position = "{330, 587}";
}
);
paths = (
{
closed = 1;
nodes = (
"392 -3 OFFCURVE",
"466 2 OFFCURVE",
"520 2 CURVE SMOOTH",
"573 2 OFFCURVE",
"638 1 OFFCURVE",
"665 -2 CURVE",
"665 53 LINE",
"650 53 OFFCURVE",
"631 57 OFFCURVE",
"618 59 CURVE",
"608 69 OFFCURVE",
"591 84 OFFCURVE",
"545 142 CURVE SMOOTH",
"354 374 LINE",
"355 329 LINE",
"573 524 LINE",
"593 528 OFFCURVE",
"617 531 OFFCURVE",
"641 533 CURVE",
"638 588 LINE",
"613 587 OFFCURVE",
"553 586 OFFCURVE",
"520 586 CURVE SMOOTH",
"487 586 OFFCURVE",
"437 586 OFFCURVE",
"407 587 CURVE",
"406 532 LINE",
"419 532 OFFCURVE",
"453 530 OFFCURVE",
"470 525 CURVE",
"264 314 LINE",
"233 308 LINE",
"233 258 LINE",
"258 258 LINE",
"381 109 LINE SMOOTH",
"398 88 OFFCURVE",
"406 76 OFFCURVE",
"415 60 CURVE",
"402 56 OFFCURVE",
"379 52 OFFCURVE",
"363 50 CURVE",
"366 -5 LINE"
);
},
{
closed = 1;
nodes = (
"67 -2 OFFCURVE",
"118 2 OFFCURVE",
"172 2 CURVE SMOOTH",
"226 2 OFFCURVE",
"273 -2 OFFCURVE",
"296 -5 CURVE",
"299 50 LINE",
"279 53 OFFCURVE",
"255 59 OFFCURVE",
"245 67 CURVE",
"242 75 OFFCURVE",
"240 137 OFFCURVE",
"240 221 CURVE SMOOTH",
"240 366 LINE SMOOTH",
"240 451 OFFCURVE",
"244 513 OFFCURVE",
"247 520 CURVE",
"258 529 OFFCURVE",
"286 535 OFFCURVE",
"312 536 CURVE",
"309 592 LINE",
"279 590 OFFCURVE",
"226 586 OFFCURVE",
"172 586 CURVE SMOOTH",
"118 586 OFFCURVE",
"65 590 OFFCURVE",
"35 592 CURVE",
"32 536 LINE",
"57 535 OFFCURVE",
"85 529 OFFCURVE",
"96 520 CURVE",
"100 513 OFFCURVE",
"103 451 OFFCURVE",
"103 366 CURVE SMOOTH",
"103 221 LINE SMOOTH",
"103 137 OFFCURVE",
"101 75 OFFCURVE",
"98 67 CURVE",
"86 59 OFFCURVE",
"59 54 OFFCURVE",
"35 50 CURVE",
"38 -5 LINE"
);
}
);
};
color = -1;
layerId = "C0B3E82F-C341-4413-A405-AFA97EAADFAC";
paths = (
{
closed = 1;
nodes = (
"391 -3 OFFCURVE",
"466 2 OFFCURVE",
"520 2 CURVE SMOOTH",
"575 2 OFFCURVE",
"640 1 OFFCURVE",
"667 -2 CURVE",
"667 53 LINE",
"652 55 OFFCURVE",
"633 57 OFFCURVE",
"620 59 CURVE",
"610 69 OFFCURVE",
"594 85 OFFCURVE",
"547 142 CURVE SMOOTH",
"354 373 LINE",
"355 329 LINE",
"573 524 LINE",
"593 529 OFFCURVE",
"617 532 OFFCURVE",
"641 534 CURVE",
"638 588 LINE",
"613 587 OFFCURVE",
"553 586 OFFCURVE",
"520 586 CURVE SMOOTH",
"487 586 OFFCURVE",
"437 586 OFFCURVE",
"407 587 CURVE",
"406 532 LINE",
"419 532 OFFCURVE",
"453 530 OFFCURVE",
"470 525 CURVE",
"264 314 LINE",
"223 305 LINE",
"223 258 LINE",
"258 258 LINE",
"380 109 LINE SMOOTH",
"397 88 OFFCURVE",
"405 76 OFFCURVE",
"414 60 CURVE",
"401 56 OFFCURVE",
"378 52 OFFCURVE",
"362 50 CURVE",
"365 -5 LINE"
);
},
{
closed = 1;
nodes = (
"67 -2 OFFCURVE",
"118 2 OFFCURVE",
"172 2 CURVE SMOOTH",
"226 2 OFFCURVE",
"273 -2 OFFCURVE",
"296 -5 CURVE",
"299 50 LINE",
"279 53 OFFCURVE",
"255 59 OFFCURVE",
"245 67 CURVE",
"242 75 OFFCURVE",
"240 137 OFFCURVE",
"240 221 CURVE SMOOTH",
"240 366 LINE SMOOTH",
"240 452 OFFCURVE",
"244 514 OFFCURVE",
"247 521 CURVE",
"258 530 OFFCURVE",
"286 536 OFFCURVE",
"312 537 CURVE",
"309 592 LINE",
"279 590 OFFCURVE",
"226 586 OFFCURVE",
"172 586 CURVE SMOOTH",
"118 586 OFFCURVE",
"65 590 OFFCURVE",
"35 592 CURVE",
"32 537 LINE",
"57 536 OFFCURVE",
"85 530 OFFCURVE",
"96 521 CURVE",
"100 514 OFFCURVE",
"103 452 OFFCURVE",
"103 366 CURVE SMOOTH",
"103 221 LINE SMOOTH",
"103 137 OFFCURVE",
"101 75 OFFCURVE",
"98 67 CURVE",
"86 59 OFFCURVE",
"59 54 OFFCURVE",
"35 50 CURVE",
"38 -5 LINE"
);
}
);
width = 667;
}
);
leftKerningGroup = B;
note = K;
rightKerningGroup = K;
unicode = 004B;
},
{
color = 3;
glyphname = L;
lastChange = "2018-05-24 14:00:42 +0000";
layers = (
{
anchors = (
{
name = bottom;
position = "{282, 0}";
},
{
name = center;
position = "{195, 303}";
},
{
name = dotacc;
position = "{349, 320}";
},
{
name = top;
position = "{159, 587}";
},
{
name = topright;
position = "{368, 587}";
}
);
background = {
anchors = (
{
name = bottom;
position = "{282, 0}";
},
{
name = center;
position = "{195, 303}";
},
{
name = dotacc;
position = "{349, 320}";
},
{
name = top;
position = "{159, 587}";
},
{
name = topright;
position = "{368, 587}";
}
);
paths = (
{
closed = 1;
nodes = (
"511 148 LINE",
"466 158 LINE",
"443 111 OFFCURVE",
"426 76 OFFCURVE",
"414 58 CURVE",
"389 54 OFFCURVE",
"369 54 OFFCURVE",
"342 54 CURVE SMOOTH",
"268 54 LINE SMOOTH",
"239 54 OFFCURVE",
"221 55 OFFCURVE",
"205 57 CURVE",
"204 67 OFFCURVE",
"202 115 OFFCURVE",
"202 199 CURVE SMOOTH",
"202 387 LINE SMOOTH",
"202 496 OFFCURVE",
"205 528 OFFCURVE",
"209 534 CURVE",
"216 539 OFFCURVE",
"249 544 OFFCURVE",
"292 547 CURVE",
"290 589 LINE",
"254 587 OFFCURVE",
"209 586 OFFCURVE",
"171 586 CURVE SMOOTH",
"139 586 OFFCURVE",
"81 587 OFFCURVE",
"50 589 CURVE",
"48 548 LINE",
"72 546 OFFCURVE",
"103 539 OFFCURVE",
"110 534 CURVE",
"113 528 OFFCURVE",
"116 496 OFFCURVE",
"116 387 CURVE SMOOTH",
"116 199 LINE SMOOTH",
"116 91 OFFCURVE",
"113 59 OFFCURVE",
"110 52 CURVE",
"103 48 OFFCURVE",
"72 40 OFFCURVE",
"48 38 CURVE",
"50 -3 LINE",
"81 -1 OFFCURVE",
"129 0 OFFCURVE",
"160 0 CURVE SMOOTH",
"373 0 LINE SMOOTH",
"405 0 OFFCURVE",
"439 -2 OFFCURVE",
"470 -5 CURVE"
);
}
);
};
color = -1;
layerId = "30A8E426-80C1-4FA7-AECB-85F4920FB6F7";
paths = (
{
closed = 1;
nodes = (
"511 148 LINE",
"466 158 LINE",
"448 120 OFFCURVE",
"432 88 OFFCURVE",
"414 60 CURVE",
"389 56 OFFCURVE",
"369 56 OFFCURVE",
"342 56 CURVE SMOOTH",
"268 56 LINE SMOOTH",
"239 56 OFFCURVE",
"221 57 OFFCURVE",
"205 59 CURVE",
"204 69 OFFCURVE",
"202 115 OFFCURVE",
"202 199 CURVE SMOOTH",
"202 387 LINE SMOOTH",
"202 496 OFFCURVE",
"205 528 OFFCURVE",
"209 534 CURVE",
"216 539 OFFCURVE",
"249 544 OFFCURVE",
"292 547 CURVE",
"290 589 LINE",
"254 587 OFFCURVE",
"209 586 OFFCURVE",
"171 586 CURVE SMOOTH",
"139 586 OFFCURVE",
"81 587 OFFCURVE",
"50 589 CURVE",
"48 548 LINE",
"72 546 OFFCURVE",
"103 539 OFFCURVE",
"110 534 CURVE",
"113 528 OFFCURVE",
"116 496 OFFCURVE",
"116 387 CURVE SMOOTH",
"116 199 LINE SMOOTH",
"116 91 OFFCURVE",
"113 59 OFFCURVE",
"110 52 CURVE",
"103 48 OFFCURVE",
"72 40 OFFCURVE",
"48 38 CURVE",
"50 -3 LINE",
"81 -1 OFFCURVE",
"129 0 OFFCURVE",
"160 0 CURVE SMOOTH",
"373 0 LINE SMOOTH",
"405 0 OFFCURVE",
"439 -2 OFFCURVE",
"470 -5 CURVE"
);
}
);
width = 520;
},
{
anchors = (
{
name = bottom;
position = "{300, 0}";
},
{
name = center;
position = "{204, 303}";
},
{
name = dotacc;
position = "{390, 320}";
},
{
name = top;
position = "{175, 587}";
},
{
name = topright;
position = "{384, 587}";
}
);
background = {
anchors = (
{
name = bottom;
position = "{300, 0}";
},
{
name = center;
position = "{204, 303}";
},
{
name = dotacc;
position = "{390, 320}";
},
{
name = top;
position = "{175, 587}";
},
{
name = topright;
position = "{384, 587}";
}
);
paths = (
{
closed = 1;
nodes = (
"550 174 LINE",
"488 189 LINE",
"467 148 OFFCURVE",
"451 111 OFFCURVE",
"432 81 CURVE",
"418 78 OFFCURVE",
"411 75 OFFCURVE",
"361 75 CURVE SMOOTH",
"334 75 LINE SMOOTH",
"294 75 OFFCURVE",
"271 76 OFFCURVE",
"248 79 CURVE",
"246 95 OFFCURVE",
"244 137 OFFCURVE",
"244 221 CURVE SMOOTH",
"244 366 LINE SMOOTH",
"244 451 OFFCURVE",
"247 512 OFFCURVE",
"251 519 CURVE",
"262 528 OFFCURVE",
"288 533 OFFCURVE",
"339 536 CURVE",
"336 592 LINE",
"275 589 OFFCURVE",
"240 586 OFFCURVE",
"187 586 CURVE SMOOTH",
"144 586 OFFCURVE",
"68 589 OFFCURVE",
"38 591 CURVE",
"35 536 LINE",
"61 535 OFFCURVE",
"89 529 OFFCURVE",
"100 520 CURVE",
"103 513 OFFCURVE",
"107 451 OFFCURVE",
"107 366 CURVE SMOOTH",
"107 221 LINE SMOOTH",
"107 137 OFFCURVE",
"103 75 OFFCURVE",
"100 67 CURVE",
"89 59 OFFCURVE",
"61 54 OFFCURVE",
"35 50 CURVE",
"38 -5 LINE",
"68 -2 OFFCURVE",
"132 0 OFFCURVE",
"175 0 CURVE SMOOTH",
"342 0 LINE SMOOTH",
"384 0 OFFCURVE",
"466 -4 OFFCURVE",
"501 -7 CURVE"
);
}
);
};
color = -1;
layerId = "C0B3E82F-C341-4413-A405-AFA97EAADFAC";
paths = (
{
closed = 1;
nodes = (
"550 174 LINE",
"488 189 LINE",
"467 148 OFFCURVE",
"451 110 OFFCURVE",
"432 80 CURVE",
"418 77 OFFCURVE",
"411 74 OFFCURVE",
"361 74 CURVE SMOOTH",
"334 74 LINE SMOOTH",
"295 74 OFFCURVE",
"272 75 OFFCURVE",
"249 78 CURVE",
"247 94 OFFCURVE",
"245 137 OFFCURVE",
"245 221 CURVE SMOOTH",
"245 366 LINE SMOOTH",
"245 451 OFFCURVE",
"248 512 OFFCURVE",
"252 519 CURVE",
"263 528 OFFCURVE",
"289 533 OFFCURVE",
"340 536 CURVE",
"337 592 LINE",
"276 589 OFFCURVE",
"241 586 OFFCURVE",
"188 586 CURVE SMOOTH",
"145 586 OFFCURVE",
"68 589 OFFCURVE",
"38 591 CURVE",
"35 536 LINE",
"61 535 OFFCURVE",
"89 529 OFFCURVE",
"100 520 CURVE",
"103 513 OFFCURVE",
"107 451 OFFCURVE",
"107 366 CURVE SMOOTH",
"107 221 LINE SMOOTH",
"107 137 OFFCURVE",
"103 75 OFFCURVE",
"100 67 CURVE",
"89 59 OFFCURVE",
"61 54 OFFCURVE",
"35 50 CURVE",
"38 -5 LINE",
"68 -2 OFFCURVE",
"132 0 OFFCURVE",
"175 0 CURVE SMOOTH",
"342 0 LINE SMOOTH",
"384 0 OFFCURVE",
"466 -4 OFFCURVE",
"501 -7 CURVE"
);
}
);
width = 554;
}
);
leftKerningGroup = B;
note = L;
rightKerningGroup = L;
unicode = 004C;
},
{
color = 3;
glyphname = M;
lastChange = "2018-05-24 18:32:54 +0000";
layers = (
{
anchors = (
{
name = bottom;
position = "{414, 0}";
},
{
name = top;
position = "{414, 587}";
}
);
background = {
anchors = (
{
name = bottom;
position = "{1214, 0}";
},
{
name = top;
position = "{1214, 587}";
}
);
paths = (
{
closed = 1;
nodes = (
"862 548 LINE",
"887 547 OFFCURVE",
"920 539 OFFCURVE",
"928 534 CURVE",
"929 520 OFFCURVE",
"929 493 OFFCURVE",
"925 401 CURVE SMOOTH",
"918 253 LINE SMOOTH",
"913 142 OFFCURVE",
"909 65 OFFCURVE",
"905 52 CURVE",
"898 48 OFFCURVE",
"867 40 OFFCURVE",
"841 39 CURVE",
"843 -3 LINE",
"877 -1 OFFCURVE",
"909 1 OFFCURVE",
"936 1 CURVE SMOOTH",
"961 1 OFFCURVE",
"997 -1 OFFCURVE",
"1030 -3 CURVE",
"1032 39 LINE",
"1007 40 OFFCURVE",
"975 48 OFFCURVE",
"968 52 CURVE",
"966 66 OFFCURVE",
"966 148 OFFCURVE",
"972 269 CURVE SMOOTH",
"986 558 LINE",
"962 558 LINE",
"1193 -3 LINE",
"1228 -3 LINE",
"1444 558 LINE",
"1427 558 LINE",
"1452 203 LINE SMOOTH",
"1459 106 OFFCURVE",
"1459 66 OFFCURVE",
"1459 52 CURVE",
"1452 48 OFFCURVE",
"1421 40 OFFCURVE",
"1398 38 CURVE",
"1400 -3 LINE",
"1430 -1 OFFCURVE",
"1479 2 OFFCURVE",
"1506 2 CURVE SMOOTH",
"1534 2 OFFCURVE",
"1584 -1 OFFCURVE",
"1615 -3 CURVE",
"1617 38 LINE",
"1594 40 OFFCURVE",
"1562 48 OFFCURVE",
"1555 52 CURVE",
"1552 72 OFFCURVE",
"1548 118 OFFCURVE",
"1541 218 CURVE SMOOTH",
"1529 401 LINE SMOOTH",
"1523 493 OFFCURVE",
"1520 528 OFFCURVE",
"1521 534 CURVE",
"1528 539 OFFCURVE",
"1561 547 OFFCURVE",
"1586 548 CURVE",
"1584 588 LINE",
"1555 587 OFFCURVE",
"1518 586 OFFCURVE",
"1491 586 CURVE SMOOTH",
"1463 586 OFFCURVE",
"1428 587 OFFCURVE",
"1401 588 CURVE",
"1216 109 LINE",
"1239 109 LINE",
"1047 588 LINE",
"1020 587 OFFCURVE",
"985 586 OFFCURVE",
"958 586 CURVE SMOOTH",
"930 586 OFFCURVE",
"893 587 OFFCURVE",
"864 588 CURVE"
);
},
{
closed = 1;
nodes = (
"519 146 LINE",
"182 588 LINE",
"165 587 OFFCURVE",
"138 586 OFFCURVE",
"116 586 CURVE SMOOTH",
"94 586 OFFCURVE",
"74 586 OFFCURVE",
"43 588 CURVE",
"41 546 LINE",
"64 547 OFFCURVE",
"95 539 OFFCURVE",
"102 534 CURVE",
"106 522 OFFCURVE",
"109 496 OFFCURVE",
"109 394 CURVE SMOOTH",
"109 223 LINE SMOOTH",
"109 103 OFFCURVE",
"105 59 OFFCURVE",
"102 52 CURVE",
"95 48 OFFCURVE",
"63 40 OFFCURVE",
"37 38 CURVE",
"39 -3 LINE",
"72 -1 OFFCURVE",
"106 2 OFFCURVE",
"133 2 CURVE SMOOTH",
"161 2 OFFCURVE",
"203 -1 OFFCURVE",
"237 -3 CURVE",
"239 38 LINE",
"213 40 OFFCURVE",
"180 48 OFFCURVE",
"174 52 CURVE",
"170 59 OFFCURVE",
"166 103 OFFCURVE",
"166 223 CURVE SMOOTH",
"166 488 LINE",
"144 488 LINE",
"513 -4 LINE",
"557 -4 LINE",
"557 43 OFFCURVE",
"556 87 OFFCURVE",
"556 129 CURVE SMOOTH",
"556 367 LINE SMOOTH",
"556 484 OFFCURVE",
"560 529 OFFCURVE",
"563 535 CURVE",
"570 540 OFFCURVE",
"603 547 OFFCURVE",
"628 548 CURVE",
"626 589 LINE",
"593 587 OFFCURVE",
"560 586 OFFCURVE",
"532 586 CURVE SMOOTH",
"505 586 OFFCURVE",
"464 587 OFFCURVE",
"431 589 CURVE",
"429 548 LINE",
"455 547 OFFCURVE",
"487 540 OFFCURVE",
"494 535 CURVE",
"497 529 OFFCURVE",
"501 484 OFFCURVE",
"501 367 CURVE SMOOTH",
"501 146 LINE"
);
}
);
};
color = -1;
layerId = "30A8E426-80C1-4FA7-AECB-85F4920FB6F7";
paths = (
{
closed = 1;
nodes = (
"51 547 LINE",
"75 546 OFFCURVE",
"108 539 OFFCURVE",
"116 534 CURVE",
"117 520 OFFCURVE",
"118 493 OFFCURVE",
"117 401 CURVE SMOOTH",
"114 203 LINE SMOOTH",
"113 122 OFFCURVE",
"112 65 OFFCURVE",
"109 52 CURVE",
"102 48 OFFCURVE",
"71 40 OFFCURVE",
"45 39 CURVE",
"47 -3 LINE",
"80 -1 OFFCURVE",
"112 1 OFFCURVE",
"143 1 CURVE SMOOTH",
"168 1 OFFCURVE",
"205 -1 OFFCURVE",
"238 -3 CURVE",
"240 39 LINE",
"214 40 OFFCURVE",
"183 48 OFFCURVE",
"176 52 CURVE",
"173 66 OFFCURVE",
"173 128 OFFCURVE",
"173 219 CURVE SMOOTH",
"172 558 LINE",
"148 558 LINE",
"394 -3 LINE",
"429 -3 LINE",
"671 558 LINE",
"645 558 LINE",
"648 203 LINE SMOOTH",
"649 106 OFFCURVE",
"649 66 OFFCURVE",
"647 52 CURVE",
"640 48 OFFCURVE",
"609 40 OFFCURVE",
"585 38 CURVE",
"587 -3 LINE",
"618 -1 OFFCURVE",
"665 2 OFFCURVE",
"692 2 CURVE SMOOTH",
"722 2 OFFCURVE",
"770 -1 OFFCURVE",
"802 -3 CURVE",
"804 38 LINE",
"781 40 OFFCURVE",
"750 48 OFFCURVE",
"743 52 CURVE",
"740 72 OFFCURVE",
"741 118 OFFCURVE",
"738 218 CURVE SMOOTH",
"732 401 LINE SMOOTH",
"729 493 OFFCURVE",
"731 528 OFFCURVE",
"732 535 CURVE",
"740 539 OFFCURVE",
"770 546 OFFCURVE",
"797 547 CURVE",
"795 588 LINE",
"765 587 OFFCURVE",
"730 586 OFFCURVE",
"705 586 CURVE SMOOTH",
"681 586 OFFCURVE",
"655 587 OFFCURVE",
"629 588 CURVE",
"422 109 LINE",
"440 109 LINE",
"231 588 LINE",
"204 587 OFFCURVE",
"169 586 OFFCURVE",
"143 586 CURVE SMOOTH",
"110 586 OFFCURVE",
"81 587 OFFCURVE",
"53 588 CURVE"
);
}
);
width = 853;
},
{
anchors = (
{
name = bottom;
position = "{416, 0}";
},
{
name = top;
position = "{416, 587}";
}
);
background = {
paths = (
{
closed = 1;
nodes = (
"43 534 LINE",
"70 532 OFFCURVE",
"99 529 OFFCURVE",
"110 520 CURVE",
"110 513 OFFCURVE",
"111 486 OFFCURVE",
"108 394 CURVE SMOOTH",
"102 203 LINE SMOOTH",
"100 129 OFFCURVE",
"96 75 OFFCURVE",
"94 67 CURVE",
"83 59 OFFCURVE",
"51 55 OFFCURVE",
"24 51 CURVE",
"27 -4 LINE",
"59 -1 OFFCURVE",
"103 1 OFFCURVE",
"131 1 CURVE SMOOTH",
"160 1 OFFCURVE",
"214 -1 OFFCURVE",
"246 -4 CURVE",
"249 51 LINE",
"221 55 OFFCURVE",
"192 59 OFFCURVE",
"181 67 CURVE",
"179 75 OFFCURVE",
"179 129 OFFCURVE",
"180 213 CURVE SMOOTH",
"186 558 LINE",
"122 558 LINE",
"382 -3 LINE",
"446 -3 LINE",
"680 558 LINE",
"636 558 LINE",
"646 221 LINE SMOOTH",
"648 137 OFFCURVE",
"648 75 OFFCURVE",
"645 67 CURVE",
"632 59 OFFCURVE",
"608 54 OFFCURVE",
"583 50 CURVE",
"586 -5 LINE",
"616 -2 OFFCURVE",
"665 2 OFFCURVE",
"716 2 CURVE SMOOTH",
"767 2 OFFCURVE",
"829 -2 OFFCURVE",
"860 -5 CURVE",
"863 50 LINE",
"837 54 OFFCURVE",
"809 59 OFFCURVE",
"799 67 CURVE",
"796 75 OFFCURVE",
"790 150 OFFCURVE",
"786 221 CURVE SMOOTH",
"776 396 LINE SMOOTH",
"773 451 OFFCURVE",
"770 509 OFFCURVE",
"774 523 CURVE",
"786 529 OFFCURVE",
"814 534 OFFCURVE",
"841 536 CURVE",
"838 591 LINE",
"806 589 OFFCURVE",
"755 586 OFFCURVE",
"705 586 CURVE SMOOTH",
"677 586 OFFCURVE",
"641 587 OFFCURVE",
"614 588 CURVE",
"433 145 LINE",
"463 145 LINE",
"262 588 LINE",
"236 587 OFFCURVE",
"178 586 OFFCURVE",
"151 586 CURVE SMOOTH",
"125 586 OFFCURVE",
"80 588 OFFCURVE",
"46 589 CURVE"
);
}
);
};
color = -1;
layerId = "C0B3E82F-C341-4413-A405-AFA97EAADFAC";
paths = (
{
closed = 1;
nodes = (
"39 534 LINE",
"66 532 OFFCURVE",
"95 529 OFFCURVE",
"106 520 CURVE",
"106 513 OFFCURVE",
"107 486 OFFCURVE",
"106 394 CURVE SMOOTH",
"104 203 LINE SMOOTH",
"103 129 OFFCURVE",
"100 75 OFFCURVE",
"98 67 CURVE",
"87 59 OFFCURVE",
"55 55 OFFCURVE",
"28 51 CURVE",
"31 -4 LINE",
"63 -1 OFFCURVE",
"107 1 OFFCURVE",
"135 1 CURVE SMOOTH",
"164 1 OFFCURVE",
"218 -1 OFFCURVE",
"250 -4 CURVE",
"253 51 LINE",
"225 55 OFFCURVE",
"196 59 OFFCURVE",
"185 67 CURVE",
"182 75 OFFCURVE",
"182 129 OFFCURVE",
"182 213 CURVE SMOOTH",
"181 558 LINE",
"117 558 LINE",
"385 -3 LINE",
"449 -3 LINE",
"687 558 LINE",
"640 558 LINE",
"644 221 LINE SMOOTH",
"645 137 OFFCURVE",
"644 75 OFFCURVE",
"641 67 CURVE",
"628 59 OFFCURVE",
"604 54 OFFCURVE",
"579 50 CURVE",
"582 -5 LINE",
"612 -2 OFFCURVE",
"661 2 OFFCURVE",
"712 2 CURVE SMOOTH",
"763 2 OFFCURVE",
"825 -2 OFFCURVE",
"856 -5 CURVE",
"859 50 LINE",
"833 54 OFFCURVE",
"805 59 OFFCURVE",
"795 67 CURVE",
"792 75 OFFCURVE",
"788 150 OFFCURVE",
"785 221 CURVE SMOOTH",
"778 396 LINE SMOOTH",
"776 451 OFFCURVE",
"774 509 OFFCURVE",
"778 523 CURVE",
"790 529 OFFCURVE",
"818 534 OFFCURVE",
"845 536 CURVE",
"843 591 LINE",
"811 589 OFFCURVE",
"760 586 OFFCURVE",
"717 586 CURVE SMOOTH",
"688 586 OFFCURVE",
"652 587 OFFCURVE",
"625 588 CURVE",
"436 145 LINE",
"466 145 LINE",
"257 588 LINE",
"231 587 OFFCURVE",
"173 586 OFFCURVE",
"146 586 CURVE SMOOTH",
"120 586 OFFCURVE",
"75 588 OFFCURVE",
"41 589 CURVE"
);
}
);
width = 890;
}
);
leftKerningGroup = M;
note = M;
rightKerningGroup = M;
unicode = 004D;
},
{
color = 3;
glyphname = N;
lastChange = "2018-05-24 19:49:30 +0000";
layers = (
{
anchors = (
{
name = bottom;
position = "{338, 0}";
},
{
name = top;
position = "{338, 587}";
}
);
background = {
anchors = (
{
name = bottom;
position = "{337, 0}";
},
{
name = top;
position = "{337, 587}";
}
);
paths = (
{
closed = 1;
nodes = (
"522 146 LINE",
"187 588 LINE",
"170 587 OFFCURVE",
"143 586 OFFCURVE",
"121 586 CURVE SMOOTH",
"99 586 OFFCURVE",
"79 586 OFFCURVE",
"48 588 CURVE",
"46 546 LINE",
"69 547 OFFCURVE",
"100 539 OFFCURVE",
"107 534 CURVE",
"111 522 OFFCURVE",
"114 496 OFFCURVE",
"114 394 CURVE SMOOTH",
"114 223 LINE SMOOTH",
"114 103 OFFCURVE",
"110 59 OFFCURVE",
"107 52 CURVE",
"100 48 OFFCURVE",
"68 40 OFFCURVE",
"42 38 CURVE",
"44 -3 LINE",
"77 -1 OFFCURVE",
"111 2 OFFCURVE",
"138 2 CURVE SMOOTH",
"166 2 OFFCURVE",
"208 -1 OFFCURVE",
"242 -3 CURVE",
"244 38 LINE",
"218 40 OFFCURVE",
"185 48 OFFCURVE",
"179 52 CURVE",
"175 59 OFFCURVE",
"171 103 OFFCURVE",
"171 223 CURVE SMOOTH",
"171 488 LINE",
"149 488 LINE",
"516 -4 LINE",
"560 -4 LINE",
"560 43 OFFCURVE",
"559 87 OFFCURVE",
"559 129 CURVE SMOOTH",
"559 367 LINE SMOOTH",
"559 484 OFFCURVE",
"563 529 OFFCURVE",
"566 535 CURVE",
"573 540 OFFCURVE",
"606 547 OFFCURVE",
"631 548 CURVE",
"629 589 LINE",
"596 587 OFFCURVE",
"563 586 OFFCURVE",
"535 586 CURVE SMOOTH",
"508 586 OFFCURVE",
"467 587 OFFCURVE",
"434 589 CURVE",
"432 548 LINE",
"458 547 OFFCURVE",
"490 540 OFFCURVE",
"497 535 CURVE",
"500 529 OFFCURVE",
"504 484 OFFCURVE",
"504 367 CURVE SMOOTH",
"504 146 LINE"
);
}
);
};
color = -1;
layerId = "30A8E426-80C1-4FA7-AECB-85F4920FB6F7";
paths = (
{
closed = 1;
nodes = (
"524 146 LINE",
"187 588 LINE",
"170 587 OFFCURVE",
"143 586 OFFCURVE",
"121 586 CURVE SMOOTH",
"99 586 OFFCURVE",
"79 586 OFFCURVE",
"48 588 CURVE",
"46 547 LINE",
"69 548 OFFCURVE",
"100 539 OFFCURVE",
"107 534 CURVE",
"111 522 OFFCURVE",
"114 496 OFFCURVE",
"114 394 CURVE SMOOTH",
"114 223 LINE SMOOTH",
"114 103 OFFCURVE",
"110 59 OFFCURVE",
"107 52 CURVE",
"100 48 OFFCURVE",
"68 40 OFFCURVE",
"42 38 CURVE",
"44 -3 LINE",
"77 -1 OFFCURVE",
"111 1 OFFCURVE",
"138 1 CURVE SMOOTH",
"166 1 OFFCURVE",
"208 -1 OFFCURVE",
"242 -3 CURVE",
"244 38 LINE",
"218 40 OFFCURVE",
"185 48 OFFCURVE",
"179 52 CURVE",
"175 59 OFFCURVE",
"171 103 OFFCURVE",
"171 223 CURVE SMOOTH",
"171 488 LINE",
"149 488 LINE",
"518 -4 LINE",
"562 -4 LINE",
"562 43 OFFCURVE",
"561 87 OFFCURVE",
"561 129 CURVE SMOOTH",
"561 367 LINE SMOOTH",
"561 484 OFFCURVE",
"565 529 OFFCURVE",
"568 535 CURVE",
"575 540 OFFCURVE",
"608 547 OFFCURVE",
"633 548 CURVE",
"631 589 LINE",
"598 587 OFFCURVE",
"565 586 OFFCURVE",
"537 586 CURVE SMOOTH",
"510 586 OFFCURVE",
"469 587 OFFCURVE",
"436 589 CURVE",
"434 548 LINE",
"460 547 OFFCURVE",
"492 540 OFFCURVE",
"499 535 CURVE",
"502 529 OFFCURVE",
"506 484 OFFCURVE",
"506 367 CURVE SMOOTH",
"506 146 LINE"
);
}
);
width = 675;
},
{
anchors = (
{
name = bottom;
position = "{346, 0}";
},
{
name = top;
position = "{346, 587}";
}
);
background = {
paths = (
{
closed = 1;
nodes = (
"556 187 LINE",
"195 588 LINE",
"179 587 OFFCURVE",
"142 587 OFFCURVE",
"120 587 CURVE SMOOTH",
"97 587 OFFCURVE",
"66 588 OFFCURVE",
"35 591 CURVE",
"32 536 LINE",
"57 535 OFFCURVE",
"85 529 OFFCURVE",
"96 520 CURVE",
"99 517 OFFCURVE",
"103 451 OFFCURVE",
"103 394 CURVE SMOOTH",
"103 263 LINE SMOOTH",
"103 129 OFFCURVE",
"99 75 OFFCURVE",
"96 67 CURVE",
"85 59 OFFCURVE",
"55 54 OFFCURVE",
"27 50 CURVE",
"30 -5 LINE",
"63 -2 OFFCURVE",
"109 2 OFFCURVE",
"138 2 CURVE SMOOTH",
"167 2 OFFCURVE",
"221 -2 OFFCURVE",
"253 -5 CURVE",
"256 50 LINE",
"228 54 OFFCURVE",
"199 59 OFFCURVE",
"188 67 CURVE",
"184 75 OFFCURVE",
"178 129 OFFCURVE",
"180 263 CURVE SMOOTH",
"181 459 LINE",
"125 459 LINE",
"527 -5 LINE",
"588 -5 LINE",
"588 42 OFFCURVE",
"588 86 OFFCURVE",
"588 148 CURVE SMOOTH",
"588 337 LINE SMOOTH",
"588 458 OFFCURVE",
"591 513 OFFCURVE",
"595 520 CURVE",
"606 529 OFFCURVE",
"635 533 OFFCURVE",
"663 536 CURVE",
"660 591 LINE",
"627 588 OFFCURVE",
"588 587 OFFCURVE",
"556 587 CURVE SMOOTH",
"526 587 OFFCURVE",
"475 588 OFFCURVE",
"442 591 CURVE",
"439 536 LINE",
"467 533 OFFCURVE",
"497 529 OFFCURVE",
"508 520 CURVE",
"511 513 OFFCURVE",
"515 458 OFFCURVE",
"515 337 CURVE SMOOTH",
"515 187 LINE"
);
}
);
};
color = -1;
layerId = "C0B3E82F-C341-4413-A405-AFA97EAADFAC";
paths = (
{
closed = 1;
nodes = (
"558 187 LINE",
"195 588 LINE",
"179 587 OFFCURVE",
"142 587 OFFCURVE",
"120 587 CURVE SMOOTH",
"97 587 OFFCURVE",
"66 588 OFFCURVE",
"35 591 CURVE",
"32 536 LINE",
"57 535 OFFCURVE",
"85 529 OFFCURVE",
"96 520 CURVE",
"99 517 OFFCURVE",
"103 451 OFFCURVE",
"103 394 CURVE SMOOTH",
"103 263 LINE SMOOTH",
"103 129 OFFCURVE",
"99 75 OFFCURVE",
"96 67 CURVE",
"85 59 OFFCURVE",
"55 54 OFFCURVE",
"27 50 CURVE",
"30 -5 LINE",
"63 -2 OFFCURVE",
"109 1 OFFCURVE",
"138 1 CURVE SMOOTH",
"167 1 OFFCURVE",
"221 -2 OFFCURVE",
"253 -5 CURVE",
"256 50 LINE",
"228 54 OFFCURVE",
"199 59 OFFCURVE",
"188 67 CURVE",
"184 75 OFFCURVE",
"178 129 OFFCURVE",
"180 263 CURVE SMOOTH",
"181 459 LINE",
"125 459 LINE",
"529 -5 LINE",
"590 -5 LINE",
"590 42 OFFCURVE",
"590 86 OFFCURVE",
"590 148 CURVE SMOOTH",
"590 337 LINE SMOOTH",
"590 458 OFFCURVE",
"593 513 OFFCURVE",
"597 520 CURVE",
"608 529 OFFCURVE",
"637 533 OFFCURVE",
"665 536 CURVE",
"662 591 LINE",
"629 588 OFFCURVE",
"590 587 OFFCURVE",
"558 587 CURVE SMOOTH",
"528 587 OFFCURVE",
"477 588 OFFCURVE",
"444 591 CURVE",
"441 536 LINE",
"469 533 OFFCURVE",
"499 529 OFFCURVE",
"510 520 CURVE",
"513 513 OFFCURVE",
"517 458 OFFCURVE",
"517 337 CURVE SMOOTH",
"517 187 LINE"
);
}
);
width = 693;
}
);
leftKerningGroup = N;
note = N;
rightKerningGroup = N;
unicode = 004E;
},
{
color = 3;
glyphname = Eng;
lastChange = "2018-05-24 19:49:26 +0000";
layers = (
{
background = {
paths = (
{
closed = 1;
nodes = (
"1198 -228 OFFCURVE",
"1259 -148 OFFCURVE",
"1259 16 CURVE SMOOTH",
"1259 367 LINE SMOOTH",
"1259 484 OFFCURVE",
"1263 529 OFFCURVE",
"1266 535 CURVE",
"1273 540 OFFCURVE",
"1306 547 OFFCURVE",
"1331 548 CURVE",
"1329 589 LINE",
"1296 587 OFFCURVE",
"1263 586 OFFCURVE",
"1235 586 CURVE SMOOTH",
"1208 586 OFFCURVE",
"1167 587 OFFCURVE",
"1134 589 CURVE",
"1132 548 LINE",
"1158 547 OFFCURVE",
"1190 540 OFFCURVE",
"1197 535 CURVE",
"1200 529 OFFCURVE",
"1204 484 OFFCURVE",
"1204 367 CURVE SMOOTH",
"1204 146 LINE",
"1222 146 LINE",
"887 588 LINE",
"870 587 OFFCURVE",
"843 586 OFFCURVE",
"821 586 CURVE SMOOTH",
"799 586 OFFCURVE",
"779 586 OFFCURVE",
"748 588 CURVE",
"746 546 LINE",
"769 547 OFFCURVE",
"800 539 OFFCURVE",
"807 534 CURVE",
"811 522 OFFCURVE",
"814 496 OFFCURVE",
"814 394 CURVE SMOOTH",
"814 223 LINE SMOOTH",
"814 103 OFFCURVE",
"810 59 OFFCURVE",
"807 52 CURVE",
"800 48 OFFCURVE",
"768 40 OFFCURVE",
"742 38 CURVE",
"744 -3 LINE",
"777 -1 OFFCURVE",
"811 2 OFFCURVE",
"838 2 CURVE SMOOTH",
"866 2 OFFCURVE",
"908 -1 OFFCURVE",
"942 -3 CURVE",
"944 38 LINE",
"918 40 OFFCURVE",
"885 48 OFFCURVE",
"879 52 CURVE",
"875 59 OFFCURVE",
"871 103 OFFCURVE",
"871 223 CURVE SMOOTH",
"871 488 LINE",
"849 488 LINE",
"1216 -4 LINE",
"1202 55 LINE",
"1202 -22 LINE SMOOTH",
"1202 -143 OFFCURVE",
"1146 -192 OFFCURVE",
"1092 -183 CURVE",
"1136 -196 LINE",
"1081 -143 LINE SMOOTH",
"1062 -125 OFFCURVE",
"1045 -116 OFFCURVE",
"1026 -116 CURVE SMOOTH",
"1001 -116 OFFCURVE",
"985 -130 OFFCURVE",
"985 -153 CURVE SMOOTH",
"985 -192 OFFCURVE",
"1042 -228 OFFCURVE",
"1102 -228 CURVE SMOOTH"
);
},
{
closed = 1;
nodes = (
"524 146 LINE",
"187 588 LINE",
"170 587 OFFCURVE",
"143 586 OFFCURVE",
"121 586 CURVE SMOOTH",
"99 586 OFFCURVE",
"79 586 OFFCURVE",
"48 588 CURVE",
"46 546 LINE",
"69 547 OFFCURVE",
"100 539 OFFCURVE",
"107 534 CURVE",
"111 522 OFFCURVE",
"114 496 OFFCURVE",
"114 394 CURVE SMOOTH",
"114 223 LINE SMOOTH",
"114 103 OFFCURVE",
"110 59 OFFCURVE",
"107 52 CURVE",
"100 48 OFFCURVE",
"68 40 OFFCURVE",
"42 38 CURVE",
"44 -3 LINE",
"77 -1 OFFCURVE",
"111 1 OFFCURVE",
"138 1 CURVE SMOOTH",
"166 1 OFFCURVE",
"208 -1 OFFCURVE",
"242 -3 CURVE",
"244 38 LINE",
"218 40 OFFCURVE",
"185 48 OFFCURVE",
"179 52 CURVE",
"175 59 OFFCURVE",
"171 103 OFFCURVE",
"171 223 CURVE SMOOTH",
"171 488 LINE",
"149 488 LINE",
"518 -4 LINE",
"562 -4 LINE",
"562 43 OFFCURVE",
"561 87 OFFCURVE",
"561 129 CURVE SMOOTH",
"561 367 LINE SMOOTH",
"561 484 OFFCURVE",
"565 529 OFFCURVE",
"568 535 CURVE",
"575 540 OFFCURVE",
"608 547 OFFCURVE",
"633 548 CURVE",
"631 589 LINE",
"598 587 OFFCURVE",
"565 586 OFFCURVE",
"537 586 CURVE SMOOTH",
"510 586 OFFCURVE",
"469 587 OFFCURVE",
"436 589 CURVE",
"434 548 LINE",
"460 547 OFFCURVE",
"492 540 OFFCURVE",
"499 535 CURVE",
"502 529 OFFCURVE",
"506 484 OFFCURVE",
"506 367 CURVE SMOOTH",
"506 146 LINE"
);
}
);
};
color = -1;
layerId = "30A8E426-80C1-4FA7-AECB-85F4920FB6F7";
paths = (
{
closed = 1;
nodes = (
"500 -228 OFFCURVE",
"561 -148 OFFCURVE",
"561 16 CURVE SMOOTH",
"561 367 LINE SMOOTH",
"561 484 OFFCURVE",
"565 529 OFFCURVE",
"568 535 CURVE",
"575 540 OFFCURVE",
"608 547 OFFCURVE",
"633 548 CURVE",
"631 589 LINE",
"598 587 OFFCURVE",
"565 586 OFFCURVE",
"537 586 CURVE SMOOTH",
"510 586 OFFCURVE",
"469 587 OFFCURVE",
"436 589 CURVE",
"434 548 LINE",
"460 547 OFFCURVE",
"492 540 OFFCURVE",
"499 535 CURVE",
"502 529 OFFCURVE",
"506 484 OFFCURVE",
"506 367 CURVE SMOOTH",
"506 146 LINE",
"524 146 LINE",
"187 588 LINE",
"170 587 OFFCURVE",
"143 586 OFFCURVE",
"121 586 CURVE SMOOTH",
"99 586 OFFCURVE",
"79 586 OFFCURVE",
"48 588 CURVE",
"46 547 LINE",
"69 548 OFFCURVE",
"100 539 OFFCURVE",
"107 534 CURVE",
"111 522 OFFCURVE",
"114 496 OFFCURVE",
"114 394 CURVE SMOOTH",
"114 223 LINE SMOOTH",
"114 103 OFFCURVE",
"110 59 OFFCURVE",
"107 52 CURVE",
"100 48 OFFCURVE",
"68 40 OFFCURVE",
"42 38 CURVE",
"44 -3 LINE",
"77 -1 OFFCURVE",
"111 2 OFFCURVE",
"138 2 CURVE SMOOTH",
"166 2 OFFCURVE",
"208 -1 OFFCURVE",
"242 -3 CURVE",
"244 38 LINE",
"218 40 OFFCURVE",
"185 48 OFFCURVE",
"179 52 CURVE",
"175 59 OFFCURVE",
"171 103 OFFCURVE",
"171 223 CURVE SMOOTH",
"171 488 LINE",
"149 488 LINE",
"518 -4 LINE",
"504 55 LINE",
"504 -22 LINE SMOOTH",
"504 -143 OFFCURVE",
"448 -192 OFFCURVE",
"394 -183 CURVE",
"438 -196 LINE",
"383 -143 LINE SMOOTH",
"364 -125 OFFCURVE",
"347 -116 OFFCURVE",
"328 -116 CURVE SMOOTH",
"303 -116 OFFCURVE",
"287 -130 OFFCURVE",
"287 -153 CURVE SMOOTH",
"287 -192 OFFCURVE",
"344 -228 OFFCURVE",
"404 -228 CURVE SMOOTH"
);
}
);
width = 675;
},
{
background = {
paths = (
{
closed = 1;
nodes = (
"1328 -228 OFFCURVE",
"1388 -147 OFFCURVE",
"1388 22 CURVE SMOOTH",
"1388 337 LINE SMOOTH",
"1388 458 OFFCURVE",
"1391 513 OFFCURVE",
"1395 520 CURVE",
"1406 529 OFFCURVE",
"1435 533 OFFCURVE",
"1463 536 CURVE",
"1460 591 LINE",
"1427 588 OFFCURVE",
"1388 587 OFFCURVE",
"1356 587 CURVE SMOOTH",
"1326 587 OFFCURVE",
"1275 588 OFFCURVE",
"1242 591 CURVE",
"1239 536 LINE",
"1267 533 OFFCURVE",
"1297 529 OFFCURVE",
"1308 520 CURVE",
"1311 513 OFFCURVE",
"1315 458 OFFCURVE",
"1315 337 CURVE SMOOTH",
"1315 187 LINE",
"1356 187 LINE",
"995 588 LINE",
"979 587 OFFCURVE",
"942 587 OFFCURVE",
"920 587 CURVE SMOOTH",
"897 587 OFFCURVE",
"866 588 OFFCURVE",
"835 591 CURVE",
"832 536 LINE",
"857 535 OFFCURVE",
"885 529 OFFCURVE",
"896 520 CURVE",
"899 517 OFFCURVE",
"903 451 OFFCURVE",
"903 394 CURVE SMOOTH",
"903 263 LINE SMOOTH",
"903 129 OFFCURVE",
"899 75 OFFCURVE",
"896 67 CURVE",
"885 59 OFFCURVE",
"855 54 OFFCURVE",
"827 50 CURVE",
"830 -5 LINE",
"863 -2 OFFCURVE",
"909 2 OFFCURVE",
"938 2 CURVE SMOOTH",
"967 2 OFFCURVE",
"1021 -2 OFFCURVE",
"1053 -5 CURVE",
"1056 50 LINE",
"1028 54 OFFCURVE",
"999 59 OFFCURVE",
"988 67 CURVE",
"984 75 OFFCURVE",
"979 129 OFFCURVE",
"980 263 CURVE SMOOTH",
"981 459 LINE",
"925 459 LINE",
"1327 -5 LINE",
"1314 61 LINE",
"1314 -30 LINE SMOOTH",
"1314 -142 OFFCURVE",
"1261 -176 OFFCURVE",
"1211 -168 CURVE",
"1268 -190 LINE",
"1193 -122 LINE SMOOTH",
"1164 -96 OFFCURVE",
"1144 -87 OFFCURVE",
"1120 -87 CURVE SMOOTH",
"1091 -87 OFFCURVE",
"1068 -105 OFFCURVE",
"1068 -138 CURVE SMOOTH",
"1068 -190 OFFCURVE",
"1134 -228 OFFCURVE",
"1214 -228 CURVE SMOOTH"
);
},
{
closed = 1;
nodes = (
"558 187 LINE",
"195 588 LINE",
"179 587 OFFCURVE",
"142 587 OFFCURVE",
"120 587 CURVE SMOOTH",
"97 587 OFFCURVE",
"66 588 OFFCURVE",
"35 591 CURVE",
"32 536 LINE",
"57 535 OFFCURVE",
"85 529 OFFCURVE",
"96 520 CURVE",
"99 517 OFFCURVE",
"103 451 OFFCURVE",
"103 394 CURVE SMOOTH",
"103 263 LINE SMOOTH",
"103 129 OFFCURVE",
"99 75 OFFCURVE",
"96 67 CURVE",
"85 59 OFFCURVE",
"55 54 OFFCURVE",
"27 50 CURVE",
"30 -5 LINE",
"63 -2 OFFCURVE",
"109 1 OFFCURVE",
"138 1 CURVE SMOOTH",
"167 1 OFFCURVE",
"221 -2 OFFCURVE",
"253 -5 CURVE",
"256 50 LINE",
"228 54 OFFCURVE",
"199 59 OFFCURVE",
"188 67 CURVE",
"184 75 OFFCURVE",
"178 129 OFFCURVE",
"180 263 CURVE SMOOTH",
"181 459 LINE",
"125 459 LINE",
"529 -5 LINE",
"590 -5 LINE",
"590 42 OFFCURVE",
"590 86 OFFCURVE",
"590 148 CURVE SMOOTH",
"590 337 LINE SMOOTH",
"590 458 OFFCURVE",
"593 513 OFFCURVE",
"597 520 CURVE",
"608 529 OFFCURVE",
"637 533 OFFCURVE",
"665 536 CURVE",
"662 591 LINE",
"629 588 OFFCURVE",
"590 587 OFFCURVE",
"558 587 CURVE SMOOTH",
"528 587 OFFCURVE",
"477 588 OFFCURVE",
"444 591 CURVE",
"441 536 LINE",
"469 533 OFFCURVE",
"499 529 OFFCURVE",
"510 520 CURVE",
"513 513 OFFCURVE",
"517 458 OFFCURVE",
"517 337 CURVE SMOOTH",
"517 187 LINE"
);
}
);
};
color = -1;
layerId = "C0B3E82F-C341-4413-A405-AFA97EAADFAC";
paths = (
{
closed = 1;
nodes = (
"530 -228 OFFCURVE",
"590 -147 OFFCURVE",
"590 22 CURVE SMOOTH",
"590 337 LINE SMOOTH",
"590 458 OFFCURVE",
"593 513 OFFCURVE",
"597 520 CURVE",
"608 529 OFFCURVE",
"637 533 OFFCURVE",
"665 536 CURVE",
"662 591 LINE",
"629 588 OFFCURVE",
"590 587 OFFCURVE",
"558 587 CURVE SMOOTH",
"528 587 OFFCURVE",
"477 588 OFFCURVE",
"444 591 CURVE",
"441 536 LINE",
"469 533 OFFCURVE",
"499 529 OFFCURVE",
"510 520 CURVE",
"513 513 OFFCURVE",
"517 458 OFFCURVE",
"517 337 CURVE SMOOTH",
"517 187 LINE",
"558 187 LINE",
"195 588 LINE",
"179 587 OFFCURVE",
"142 587 OFFCURVE",
"120 587 CURVE SMOOTH",
"97 587 OFFCURVE",
"66 588 OFFCURVE",
"35 591 CURVE",
"32 536 LINE",
"57 535 OFFCURVE",
"85 529 OFFCURVE",
"96 520 CURVE",
"99 517 OFFCURVE",
"103 451 OFFCURVE",
"103 394 CURVE SMOOTH",
"103 263 LINE SMOOTH",
"103 129 OFFCURVE",
"99 75 OFFCURVE",
"96 67 CURVE",
"85 59 OFFCURVE",
"55 54 OFFCURVE",
"27 50 CURVE",
"30 -5 LINE",
"63 -2 OFFCURVE",
"109 2 OFFCURVE",
"138 2 CURVE SMOOTH",
"167 2 OFFCURVE",
"221 -2 OFFCURVE",
"253 -5 CURVE",
"256 50 LINE",
"228 54 OFFCURVE",
"199 59 OFFCURVE",
"188 67 CURVE",
"184 75 OFFCURVE",
"178 129 OFFCURVE",
"180 263 CURVE SMOOTH",
"181 459 LINE",
"125 459 LINE",
"529 -5 LINE",
"516 61 LINE",
"516 -30 LINE SMOOTH",
"516 -142 OFFCURVE",
"463 -176 OFFCURVE",
"413 -168 CURVE",
"470 -190 LINE",
"395 -122 LINE SMOOTH",
"366 -96 OFFCURVE",
"346 -87 OFFCURVE",
"322 -87 CURVE SMOOTH",
"293 -87 OFFCURVE",
"270 -105 OFFCURVE",
"270 -138 CURVE SMOOTH",
"270 -190 OFFCURVE",
"336 -228 OFFCURVE",
"416 -228 CURVE SMOOTH"
);
}
);
width = 693;
}
);
leftMetricsKey = N;
widthMetricsKey = N;
note = Eng;
unicode = 014A;
},
{
color = 3;
glyphname = O;
lastChange = "2018-05-24 18:47:35 +0000";
layers = (
{
anchors = (
{
name = bottom;
position = "{344, 0}";
},
{
name = center;
position = "{344, 294}";
},
{
name = ogonek;
position = "{418, 0}";
},
{
name = top;
position = "{344, 587}";
},
{
name = topleft;
position = "{19, 587}";
},
{
name = topright;
position = "{670, 587}";
}
);
background = {
anchors = (
{
name = bottom;
position = "{344, 0}";
},
{
name = center;
position = "{344, 294}";
},
{
name = ogonek;
position = "{418, 0}";
},
{
name = top;
position = "{344, 587}";
},
{
name = topleft;
position = "{19, 587}";
},
{
name = topright;
position = "{670, 587}";
}
);
paths = (
{
closed = 1;
nodes = (
"504 -9 OFFCURVE",
"637 119 OFFCURVE",
"637 298 CURVE SMOOTH",
"637 474 OFFCURVE",
"520 596 OFFCURVE",
"353 596 CURVE SMOOTH",
"181 596 OFFCURVE",
"52 467 OFFCURVE",
"52 291 CURVE SMOOTH",
"52 114 OFFCURVE",
"175 -9 OFFCURVE",
"350 -9 CURVE SMOOTH"
);
},
{
closed = 1;
nodes = (
"241 45 OFFCURVE",
"156 155 OFFCURVE",
"156 310 CURVE SMOOTH",
"156 455 OFFCURVE",
"226 545 OFFCURVE",
"341 545 CURVE SMOOTH",
"457 545 OFFCURVE",
"536 435 OFFCURVE",
"536 274 CURVE SMOOTH",
"536 134 OFFCURVE",
"467 45 OFFCURVE",
"360 45 CURVE SMOOTH"
);
}
);
};
color = -1;
layerId = "30A8E426-80C1-4FA7-AECB-85F4920FB6F7";
paths = (
{
closed = 1;
nodes = (
"504 -9 OFFCURVE",
"637 119 OFFCURVE",
"637 298 CURVE SMOOTH",
"637 474 OFFCURVE",
"520 596 OFFCURVE",
"353 596 CURVE SMOOTH",
"180 596 OFFCURVE",
"52 466 OFFCURVE",
"52 291 CURVE SMOOTH",
"52 114 OFFCURVE",
"175 -9 OFFCURVE",
"350 -9 CURVE SMOOTH"
);
},
{
closed = 1;
nodes = (
"241 45 OFFCURVE",
"156 155 OFFCURVE",
"156 310 CURVE SMOOTH",
"156 456 OFFCURVE",
"226 546 OFFCURVE",
"341 546 CURVE SMOOTH",
"457 546 OFFCURVE",
"536 435 OFFCURVE",
"536 274 CURVE SMOOTH",
"536 134 OFFCURVE",
"467 45 OFFCURVE",
"360 45 CURVE SMOOTH"
);
}
);
width = 689;
},
{
anchors = (
{
name = bottom;
position = "{357, 0}";
},
{
name = center;
position = "{357, 294}";
},
{
name = ogonek;
position = "{432, 0}";
},
{
name = top;
position = "{357, 587}";
},
{
name = topleft;
position = "{19, 587}";
},
{
name = topright;
position = "{695, 587}";
}
);
background = {
anchors = (
{
name = bottom;
position = "{357, 0}";
},
{
name = center;
position = "{357, 294}";
},
{
name = ogonek;
position = "{432, 0}";
},
{
name = top;
position = "{357, 587}";
},
{
name = topleft;
position = "{19, 587}";
},
{
name = topright;
position = "{695, 587}";
}
);
paths = (
{
closed = 1;
nodes = (
"496 -9 OFFCURVE",
"668 94 OFFCURVE",
"668 302 CURVE SMOOTH",
"668 476 OFFCURVE",
"542 596 OFFCURVE",
"364 596 CURVE SMOOTH",
"181 596 OFFCURVE",
"46 466 OFFCURVE",
"46 286 CURVE SMOOTH",
"46 113 OFFCURVE",
"180 -9 OFFCURVE",
"364 -9 CURVE SMOOTH"
);
},
{
closed = 1;
nodes = (
"275 66 OFFCURVE",
"207 168 OFFCURVE",
"207 316 CURVE SMOOTH",
"207 446 OFFCURVE",
"260 529 OFFCURVE",
"352 529 CURVE SMOOTH",
"448 529 OFFCURVE",
"509 428 OFFCURVE",
"509 276 CURVE SMOOTH",
"509 140 OFFCURVE",
"461 66 OFFCURVE",
"371 66 CURVE SMOOTH"
);
}
);
};
color = -1;
layerId = "C0B3E82F-C341-4413-A405-AFA97EAADFAC";
paths = (
{
closed = 1;
nodes = (
"496 -9 OFFCURVE",
"668 94 OFFCURVE",
"668 302 CURVE SMOOTH",
"668 475 OFFCURVE",
"543 596 OFFCURVE",
"364 596 CURVE SMOOTH",
"180 596 OFFCURVE",
"46 465 OFFCURVE",
"46 286 CURVE SMOOTH",
"46 114 OFFCURVE",
"179 -9 OFFCURVE",
"364 -9 CURVE SMOOTH"
);
},
{
closed = 1;
nodes = (
"274 66 OFFCURVE",
"207 169 OFFCURVE",
"207 316 CURVE SMOOTH",
"207 449 OFFCURVE",
"262 529 OFFCURVE",
"352 529 CURVE SMOOTH",
"447 529 OFFCURVE",
"509 429 OFFCURVE",
"509 276 CURVE SMOOTH",
"509 140 OFFCURVE",
"461 66 OFFCURVE",
"371 66 CURVE SMOOTH"
);
}
);
width = 714;
}
);
leftKerningGroup = C;
note = O;
rightKerningGroup = D;
unicode = 004F;
},
{
color = 3;
glyphname = Ohorn;
lastChange = "2018-05-24 18:55:35 +0000";
layers = (
{
anchors = (
{
name = bottom;
position = "{344, 0}";
},
{
name = center;
position = "{344, 294}";
},
{
name = top;
position = "{344, 587}";
},
{
name = topleft;
position = "{19, 587}";
}
);
background = {
anchors = (
{
name = bottom;
position = "{1044, 0}";
},
{
name = center;
position = "{1044, 294}";
},
{
name = top;
position = "{1044, 587}";
},
{
name = topleft;
position = "{719, 587}";
}
);
paths = (
{
closed = 1;
nodes = (
"1367 703 OFFCURVE",
"1327 719 OFFCURVE",
"1277 710 CURVE",
"1275 659 LINE SMOOTH",
"1273 600 OFFCURVE",
"1246 579 OFFCURVE",
"1202 579 CURVE SMOOTH",
"1164 579 OFFCURVE",
"1117 596 OFFCURVE",
"1056 596 CURVE SMOOTH",
"879 596 OFFCURVE",
"752 467 OFFCURVE",
"752 291 CURVE SMOOTH",
"752 114 OFFCURVE",
"875 -9 OFFCURVE",
"1050 -9 CURVE SMOOTH",
"1204 -9 OFFCURVE",
"1337 119 OFFCURVE",
"1337 298 CURVE SMOOTH",
"1337 412 OFFCURVE",
"1287 504 OFFCURVE",
"1206 555 CURVE",
"1175 534 LINE",
"1302 513 OFFCURVE",
"1367 593 OFFCURVE",
"1367 651 CURVE SMOOTH"
);
},
{
closed = 1;
nodes = (
"941 45 OFFCURVE",
"856 155 OFFCURVE",
"856 310 CURVE SMOOTH",
"856 455 OFFCURVE",
"926 545 OFFCURVE",
"1041 545 CURVE SMOOTH",
"1157 545 OFFCURVE",
"1236 435 OFFCURVE",
"1236 274 CURVE SMOOTH",
"1236 134 OFFCURVE",
"1167 45 OFFCURVE",
"1060 45 CURVE SMOOTH"
);
},
{
closed = 1;
nodes = (
"504 -9 OFFCURVE",
"637 119 OFFCURVE",
"637 298 CURVE SMOOTH",
"637 474 OFFCURVE",
"520 596 OFFCURVE",
"353 596 CURVE SMOOTH",
"180 596 OFFCURVE",
"52 466 OFFCURVE",
"52 291 CURVE SMOOTH",
"52 114 OFFCURVE",
"175 -9 OFFCURVE",
"350 -9 CURVE SMOOTH"
);
},
{
closed = 1;
nodes = (
"241 45 OFFCURVE",
"156 155 OFFCURVE",
"156 310 CURVE SMOOTH",
"156 456 OFFCURVE",
"226 546 OFFCURVE",
"341 546 CURVE SMOOTH",
"457 546 OFFCURVE",
"536 435 OFFCURVE",
"536 274 CURVE SMOOTH",
"536 134 OFFCURVE",
"467 45 OFFCURVE",
"360 45 CURVE SMOOTH"
);
}
);
};
color = -1;
layerId = "30A8E426-80C1-4FA7-AECB-85F4920FB6F7";
paths = (
{
closed = 1;
nodes = (
"667 703 OFFCURVE",
"627 719 OFFCURVE",
"577 710 CURVE",
"575 659 LINE SMOOTH",
"573 600 OFFCURVE",
"546 579 OFFCURVE",
"502 579 CURVE SMOOTH",
"464 579 OFFCURVE",
"417 596 OFFCURVE",
"356 596 CURVE SMOOTH",
"180 596 OFFCURVE",
"52 466 OFFCURVE",
"52 291 CURVE SMOOTH",
"52 114 OFFCURVE",
"175 -9 OFFCURVE",
"350 -9 CURVE SMOOTH",
"504 -9 OFFCURVE",
"637 119 OFFCURVE",
"637 298 CURVE SMOOTH",
"637 412 OFFCURVE",
"587 504 OFFCURVE",
"506 555 CURVE",
"475 534 LINE",
"602 513 OFFCURVE",
"667 593 OFFCURVE",
"667 651 CURVE SMOOTH"
);
},
{
closed = 1;
nodes = (
"241 45 OFFCURVE",
"156 155 OFFCURVE",
"156 310 CURVE SMOOTH",
"156 456 OFFCURVE",
"226 546 OFFCURVE",
"341 546 CURVE SMOOTH",
"457 546 OFFCURVE",
"536 435 OFFCURVE",
"536 274 CURVE SMOOTH",
"536 134 OFFCURVE",
"467 45 OFFCURVE",
"360 45 CURVE SMOOTH"
);
}
);
width = 689;
},
{
anchors = (
{
name = bottom;
position = "{357, 0}";
},
{
name = center;
position = "{357, 294}";
},
{
name = top;
position = "{357, 587}";
},
{
name = topleft;
position = "{19, 587}";
}
);
background = {
anchors = (
{
name = bottom;
position = "{1157, 0}";
},
{
name = center;
position = "{1157, 294}";
},
{
name = top;
position = "{1157, 587}";
},
{
name = topleft;
position = "{819, 587}";
}
);
paths = (
{
closed = 1;
nodes = (
"1503 717 OFFCURVE",
"1450 726 OFFCURVE",
"1388 718 CURVE",
"1386 658 LINE SMOOTH",
"1384 612 OFFCURVE",
"1356 580 OFFCURVE",
"1311 580 CURVE SMOOTH",
"1279 580 OFFCURVE",
"1231 596 OFFCURVE",
"1172 596 CURVE SMOOTH",
"978 596 OFFCURVE",
"846 466 OFFCURVE",
"846 286 CURVE SMOOTH",
"846 113 OFFCURVE",
"980 -9 OFFCURVE",
"1164 -9 CURVE SMOOTH",
"1296 -9 OFFCURVE",
"1468 94 OFFCURVE",
"1468 302 CURVE SMOOTH",
"1468 410 OFFCURVE",
"1418 497 OFFCURVE",
"1340 547 CURVE",
"1272 531 LINE",
"1410 498 OFFCURVE",
"1503 576 OFFCURVE",
"1503 654 CURVE SMOOTH"
);
},
{
closed = 1;
nodes = (
"1075 66 OFFCURVE",
"1007 168 OFFCURVE",
"1007 316 CURVE SMOOTH",
"1007 446 OFFCURVE",
"1060 529 OFFCURVE",
"1152 529 CURVE SMOOTH",
"1248 529 OFFCURVE",
"1309 428 OFFCURVE",
"1309 276 CURVE SMOOTH",
"1309 140 OFFCURVE",
"1261 66 OFFCURVE",
"1171 66 CURVE SMOOTH"
);
},
{
closed = 1;
nodes = (
"496 -9 OFFCURVE",
"668 94 OFFCURVE",
"668 302 CURVE SMOOTH",
"668 475 OFFCURVE",
"543 596 OFFCURVE",
"364 596 CURVE SMOOTH",
"180 596 OFFCURVE",
"46 465 OFFCURVE",
"46 286 CURVE SMOOTH",
"46 114 OFFCURVE",
"179 -9 OFFCURVE",
"364 -9 CURVE SMOOTH"
);
},
{
closed = 1;
nodes = (
"274 66 OFFCURVE",
"207 169 OFFCURVE",
"207 316 CURVE SMOOTH",
"207 449 OFFCURVE",
"262 529 OFFCURVE",
"352 529 CURVE SMOOTH",
"447 529 OFFCURVE",
"509 429 OFFCURVE",
"509 276 CURVE SMOOTH",
"509 140 OFFCURVE",
"461 66 OFFCURVE",
"371 66 CURVE SMOOTH"
);
}
);
};
color = -1;
layerId = "C0B3E82F-C341-4413-A405-AFA97EAADFAC";
paths = (
{
closed = 1;
nodes = (
"703 717 OFFCURVE",
"650 726 OFFCURVE",
"588 718 CURVE",
"586 658 LINE SMOOTH",
"584 612 OFFCURVE",
"556 580 OFFCURVE",
"511 580 CURVE SMOOTH",
"479 580 OFFCURVE",
"431 596 OFFCURVE",
"372 596 CURVE SMOOTH",
"180 596 OFFCURVE",
"46 465 OFFCURVE",
"46 286 CURVE SMOOTH",
"46 114 OFFCURVE",
"179 -9 OFFCURVE",
"364 -9 CURVE SMOOTH",
"496 -9 OFFCURVE",
"668 94 OFFCURVE",
"668 302 CURVE SMOOTH",
"668 410 OFFCURVE",
"618 497 OFFCURVE",
"540 547 CURVE",
"472 531 LINE",
"610 498 OFFCURVE",
"703 576 OFFCURVE",
"703 654 CURVE SMOOTH"
);
},
{
closed = 1;
nodes = (
"274 66 OFFCURVE",
"207 169 OFFCURVE",
"207 316 CURVE SMOOTH",
"207 449 OFFCURVE",
"262 529 OFFCURVE",
"352 529 CURVE SMOOTH",
"447 529 OFFCURVE",
"509 429 OFFCURVE",
"509 276 CURVE SMOOTH",
"509 140 OFFCURVE",
"461 66 OFFCURVE",
"371 66 CURVE SMOOTH"
);
}
);
width = 714;
}
);
leftMetricsKey = O;
widthMetricsKey = O;
note = Ohorn;
unicode = 01A0;
},
{
color = 3;
glyphname = Oogonek;
lastChange = "2018-05-24 18:59:25 +0000";
layers = (
{
anchors = (
{
name = center;
position = "{344, 294}";
},
{
name = top;
position = "{344, 587}";
},
{
name = topleft;
position = "{19, 587}";
},
{
name = topright;
position = "{670, 587}";
}
);
background = {
paths = (
{
closed = 1;
nodes = (
"504 -9 OFFCURVE",
"637 119 OFFCURVE",
"637 298 CURVE SMOOTH",
"637 474 OFFCURVE",
"520 596 OFFCURVE",
"353 596 CURVE SMOOTH",
"180 596 OFFCURVE",
"52 466 OFFCURVE",
"52 291 CURVE SMOOTH",
"52 114 OFFCURVE",
"175 -9 OFFCURVE",
"350 -9 CURVE SMOOTH"
);
},
{
closed = 1;
nodes = (
"241 45 OFFCURVE",
"156 155 OFFCURVE",
"156 310 CURVE SMOOTH",
"156 456 OFFCURVE",
"226 546 OFFCURVE",
"341 546 CURVE SMOOTH",
"457 546 OFFCURVE",
"536 435 OFFCURVE",
"536 274 CURVE SMOOTH",
"536 134 OFFCURVE",
"467 45 OFFCURVE",
"360 45 CURVE SMOOTH"
);
}
);
};
layerId = "30A8E426-80C1-4FA7-AECB-85F4920FB6F7";
paths = (
{
closed = 1;
nodes = (
"420 -223 OFFCURVE",
"456 -203 OFFCURVE",
"482 -173 CURVE",
"460 -146 LINE",
"439 -167 OFFCURVE",
"417 -181 OFFCURVE",
"391 -181 CURVE SMOOTH",
"356 -181 OFFCURVE",
"333 -158 OFFCURVE",
"333 -122 CURVE SMOOTH",
"333 -74 OFFCURVE",
"372 -21 OFFCURVE",
"453 11 CURVE SMOOTH",
"556 52 OFFCURVE",
"637 158 OFFCURVE",
"637 298 CURVE SMOOTH",
"637 474 OFFCURVE",
"520 596 OFFCURVE",
"353 596 CURVE SMOOTH",
"180 596 OFFCURVE",
"52 466 OFFCURVE",
"52 291 CURVE SMOOTH",
"52 114 OFFCURVE",
"175 -9 OFFCURVE",
"350 -9 CURVE SMOOTH",
"379 -9 LINE",
"413 19 LINE",
"319 -17 OFFCURVE",
"263 -71 OFFCURVE",
"263 -132 CURVE SMOOTH",
"263 -183 OFFCURVE",
"307 -223 OFFCURVE",
"377 -223 CURVE SMOOTH"
);
},
{
closed = 1;
nodes = (
"241 45 OFFCURVE",
"156 155 OFFCURVE",
"156 310 CURVE SMOOTH",
"156 456 OFFCURVE",
"226 546 OFFCURVE",
"341 546 CURVE SMOOTH",
"457 546 OFFCURVE",
"536 435 OFFCURVE",
"536 274 CURVE SMOOTH",
"536 134 OFFCURVE",
"467 45 OFFCURVE",
"360 45 CURVE SMOOTH"
);
}
);
width = 689;
},
{
anchors = (
{
name = center;
position = "{357, 294}";
},
{
name = top;
position = "{357, 587}";
},
{
name = topleft;
position = "{19, 587}";
},
{
name = topright;
position = "{695, 587}";
}
);
background = {
paths = (
{
closed = 1;
nodes = (
"496 -9 OFFCURVE",
"668 94 OFFCURVE",
"668 302 CURVE SMOOTH",
"668 475 OFFCURVE",
"543 596 OFFCURVE",
"364 596 CURVE SMOOTH",
"180 596 OFFCURVE",
"46 465 OFFCURVE",
"46 286 CURVE SMOOTH",
"46 114 OFFCURVE",
"179 -9 OFFCURVE",
"364 -9 CURVE SMOOTH"
);
},
{
closed = 1;
nodes = (
"274 66 OFFCURVE",
"207 169 OFFCURVE",
"207 316 CURVE SMOOTH",
"207 449 OFFCURVE",
"262 529 OFFCURVE",
"352 529 CURVE SMOOTH",
"447 529 OFFCURVE",
"509 429 OFFCURVE",
"509 276 CURVE SMOOTH",
"509 140 OFFCURVE",
"461 66 OFFCURVE",
"371 66 CURVE SMOOTH"
);
}
);
};
layerId = "C0B3E82F-C341-4413-A405-AFA97EAADFAC";
paths = (
{
closed = 1;
nodes = (
"433 -223 OFFCURVE",
"474 -207 OFFCURVE",
"503 -173 CURVE",
"475 -134 LINE",
"451 -157 OFFCURVE",
"429 -168 OFFCURVE",
"407 -168 CURVE SMOOTH",
"377 -168 OFFCURVE",
"355 -148 OFFCURVE",
"355 -113 CURVE SMOOTH",
"355 -71 OFFCURVE",
"386 -21 OFFCURVE",
"475 14 CURVE SMOOTH",
"574 53 OFFCURVE",
"668 147 OFFCURVE",
"668 302 CURVE SMOOTH",
"668 475 OFFCURVE",
"543 596 OFFCURVE",
"364 596 CURVE SMOOTH",
"180 596 OFFCURVE",
"46 465 OFFCURVE",
"46 286 CURVE SMOOTH",
"46 114 OFFCURVE",
"179 -9 OFFCURVE",
"364 -9 CURVE SMOOTH",
"386 -9 LINE",
"418 24 LINE",
"316 -12 OFFCURVE",
"258 -65 OFFCURVE",
"258 -122 CURVE SMOOTH",
"258 -181 OFFCURVE",
"316 -223 OFFCURVE",
"388 -223 CURVE SMOOTH"
);
},
{
closed = 1;
nodes = (
"274 66 OFFCURVE",
"207 169 OFFCURVE",
"207 316 CURVE SMOOTH",
"207 449 OFFCURVE",
"262 529 OFFCURVE",
"352 529 CURVE SMOOTH",
"447 529 OFFCURVE",
"509 429 OFFCURVE",
"509 276 CURVE SMOOTH",
"509 140 OFFCURVE",
"461 66 OFFCURVE",
"371 66 CURVE SMOOTH"
);
}
);
width = 714;
}
);
leftMetricsKey = O;
widthMetricsKey = O;
unicode = 01EA;
},
{
color = 3;
glyphname = OE;
lastChange = "2018-05-24 19:43:28 +0000";
layers = (
{
anchors = (
{
name = bottom;
position = "{524, 0}";
},
{
name = top;
position = "{524, 587}";
}
);
background = {
anchors = (
{
name = bottom;
position = "{1525, 0}";
},
{
name = top;
position = "{1525, 587}";
}
);
paths = (
{
closed = 1;
nodes = (
"1441 -9 OFFCURVE",
"1490 0 OFFCURVE",
"1528 0 CURVE SMOOTH",
"1767 0 LINE SMOOTH",
"1800 0 OFFCURVE",
"1831 -2 OFFCURVE",
"1862 -5 CURVE",
"1901 141 LINE",
"1856 150 LINE",
"1834 105 OFFCURVE",
"1816 70 OFFCURVE",
"1805 52 CURVE",
"1793 49 OFFCURVE",
"1778 48 OFFCURVE",
"1733 48 CURVE SMOOTH",
"1634 48 LINE SMOOTH",
"1605 48 OFFCURVE",
"1587 50 OFFCURVE",
"1570 52 CURVE",
"1569 62 OFFCURVE",
"1567 108 OFFCURVE",
"1567 153 CURVE SMOOTH",
"1567 423 LINE SMOOTH",
"1567 468 OFFCURVE",
"1569 529 OFFCURVE",
"1570 538 CURVE",
"1586 540 OFFCURVE",
"1604 542 OFFCURVE",
"1631 542 CURVE SMOOTH",
"1749 542 LINE SMOOTH",
"1761 542 OFFCURVE",
"1775 541 OFFCURVE",
"1786 539 CURVE",
"1798 515 OFFCURVE",
"1809 486 OFFCURVE",
"1820 452 CURVE",
"1866 459 LINE",
"1845 591 LINE",
"1813 589 OFFCURVE",
"1777 587 OFFCURVE",
"1745 587 CURVE SMOOTH",
"1515 587 LINE SMOOTH",
"1471 587 OFFCURVE",
"1432 594 OFFCURVE",
"1385 594 CURVE SMOOTH",
"1181 594 OFFCURVE",
"1053 464 OFFCURVE",
"1053 288 CURVE SMOOTH",
"1053 98 OFFCURVE",
"1183 -9 OFFCURVE",
"1390 -9 CURVE SMOOTH"
);
},
{
closed = 1;
nodes = (
"1248 44 OFFCURVE",
"1158 142 OFFCURVE",
"1158 301 CURVE SMOOTH",
"1158 447 OFFCURVE",
"1240 542 OFFCURVE",
"1378 542 CURVE SMOOTH",
"1418 542 OFFCURVE",
"1449 537 OFFCURVE",
"1477 529 CURVE",
"1479 514 OFFCURVE",
"1482 479 OFFCURVE",
"1482 391 CURVE SMOOTH",
"1482 203 LINE SMOOTH",
"1482 108 OFFCURVE",
"1481 75 OFFCURVE",
"1479 57 CURVE",
"1458 50 OFFCURVE",
"1428 44 OFFCURVE",
"1399 44 CURVE SMOOTH"
);
},
{
closed = 1;
nodes = (
"1794 205 LINE",
"1792 237 OFFCURVE",
"1791 273 OFFCURVE",
"1791 302 CURVE SMOOTH",
"1791 332 OFFCURVE",
"1792 366 OFFCURVE",
"1794 399 CURVE",
"1751 399 LINE",
"1748 378 OFFCURVE",
"1743 346 OFFCURVE",
"1738 330 CURVE",
"1730 328 OFFCURVE",
"1713 327 OFFCURVE",
"1692 327 CURVE SMOOTH",
"1610 327 LINE SMOOTH",
"1592 327 OFFCURVE",
"1573 328 OFFCURVE",
"1551 329 CURVE",
"1551 275 LINE",
"1573 276 OFFCURVE",
"1592 277 OFFCURVE",
"1610 277 CURVE SMOOTH",
"1692 277 LINE SMOOTH",
"1713 277 OFFCURVE",
"1730 276 OFFCURVE",
"1738 274 CURVE",
"1743 258 OFFCURVE",
"1748 225 OFFCURVE",
"1751 205 CURVE"
);
},
{
closed = 1;
nodes = (
"896 141 LINE",
"851 150 LINE",
"829 105 OFFCURVE",
"811 73 OFFCURVE",
"799 55 CURVE",
"788 52 OFFCURVE",
"773 51 OFFCURVE",
"728 51 CURVE SMOOTH",
"632 51 LINE SMOOTH",
"603 51 OFFCURVE",
"585 53 OFFCURVE",
"568 55 CURVE",
"567 65 OFFCURVE",
"566 108 OFFCURVE",
"566 153 CURVE SMOOTH",
"566 423 LINE SMOOTH",
"566 468 OFFCURVE",
"567 526 OFFCURVE",
"568 535 CURVE",
"584 537 OFFCURVE",
"602 539 OFFCURVE",
"629 539 CURVE SMOOTH",
"743 539 LINE SMOOTH",
"756 539 OFFCURVE",
"770 538 OFFCURVE",
"781 536 CURVE",
"793 512 OFFCURVE",
"804 486 OFFCURVE",
"815 452 CURVE",
"860 459 LINE",
"840 591 LINE",
"808 589 OFFCURVE",
"772 587 OFFCURVE",
"740 587 CURVE SMOOTH",
"526 587 LINE SMOOTH",
"495 587 OFFCURVE",
"447 587 OFFCURVE",
"416 589 CURVE",
"414 548 LINE",
"438 546 OFFCURVE",
"469 539 OFFCURVE",
"476 534 CURVE",
"479 528 OFFCURVE",
"482 496 OFFCURVE",
"482 387 CURVE SMOOTH",
"482 199 LINE SMOOTH",
"482 91 OFFCURVE",
"479 59 OFFCURVE",
"476 52 CURVE",
"469 48 OFFCURVE",
"438 40 OFFCURVE",
"414 38 CURVE",
"416 -3 LINE",
"447 -1 OFFCURVE",
"495 0 OFFCURVE",
"526 0 CURVE SMOOTH",
"762 0 LINE SMOOTH",
"795 0 OFFCURVE",
"826 -2 OFFCURVE",
"856 -5 CURVE"
);
},
{
closed = 1;
nodes = (
"788 205 LINE",
"787 237 OFFCURVE",
"786 273 OFFCURVE",
"786 302 CURVE SMOOTH",
"786 332 OFFCURVE",
"787 366 OFFCURVE",
"788 399 CURVE",
"745 399 LINE",
"742 378 OFFCURVE",
"738 346 OFFCURVE",
"733 330 CURVE",
"725 328 OFFCURVE",
"708 327 OFFCURVE",
"687 327 CURVE SMOOTH",
"611 327 LINE SMOOTH",
"593 327 OFFCURVE",
"573 328 OFFCURVE",
"551 329 CURVE",
"551 275 LINE",
"573 276 OFFCURVE",
"593 277 OFFCURVE",
"611 277 CURVE SMOOTH",
"687 277 LINE SMOOTH",
"708 277 OFFCURVE",
"725 276 OFFCURVE",
"733 274 CURVE",
"738 258 OFFCURVE",
"742 225 OFFCURVE",
"745 205 CURVE"
);
}
);
};
color = -1;
layerId = "30A8E426-80C1-4FA7-AECB-85F4920FB6F7";
paths = (
{
closed = 1;
nodes = (
"441 -9 OFFCURVE",
"490 0 OFFCURVE",
"528 0 CURVE SMOOTH",
"762 0 LINE SMOOTH",
"795 0 OFFCURVE",
"826 -2 OFFCURVE",
"856 -5 CURVE",
"896 141 LINE",
"851 150 LINE",
"829 105 OFFCURVE",
"811 73 OFFCURVE",
"799 55 CURVE",
"788 52 OFFCURVE",
"773 51 OFFCURVE",
"728 51 CURVE SMOOTH",
"632 51 LINE SMOOTH",
"603 51 OFFCURVE",
"585 53 OFFCURVE",
"568 55 CURVE",
"567 65 OFFCURVE",
"566 108 OFFCURVE",
"566 153 CURVE SMOOTH",
"566 423 LINE SMOOTH",
"566 468 OFFCURVE",
"567 526 OFFCURVE",
"568 535 CURVE",
"584 537 OFFCURVE",
"602 539 OFFCURVE",
"629 539 CURVE SMOOTH",
"743 539 LINE SMOOTH",
"756 539 OFFCURVE",
"770 538 OFFCURVE",
"781 536 CURVE",
"793 512 OFFCURVE",
"804 486 OFFCURVE",
"815 452 CURVE",
"860 459 LINE",
"840 591 LINE",
"808 589 OFFCURVE",
"772 587 OFFCURVE",
"740 587 CURVE SMOOTH",
"515 587 LINE SMOOTH",
"471 587 OFFCURVE",
"432 594 OFFCURVE",
"385 594 CURVE SMOOTH",
"181 594 OFFCURVE",
"53 464 OFFCURVE",
"53 288 CURVE SMOOTH",
"53 98 OFFCURVE",
"183 -9 OFFCURVE",
"390 -9 CURVE SMOOTH"
);
},
{
closed = 1;
nodes = (
"248 45 OFFCURVE",
"158 142 OFFCURVE",
"158 301 CURVE SMOOTH",
"158 447 OFFCURVE",
"240 542 OFFCURVE",
"380 542 CURVE SMOOTH",
"418 542 OFFCURVE",
"449 537 OFFCURVE",
"477 529 CURVE",
"479 514 OFFCURVE",
"482 479 OFFCURVE",
"482 391 CURVE SMOOTH",
"482 203 LINE SMOOTH",
"482 108 OFFCURVE",
"481 75 OFFCURVE",
"479 57 CURVE",
"458 50 OFFCURVE",
"428 45 OFFCURVE",
"399 45 CURVE SMOOTH"
);
},
{
closed = 1;
nodes = (
"788 205 LINE",
"787 237 OFFCURVE",
"786 273 OFFCURVE",
"786 302 CURVE SMOOTH",
"786 332 OFFCURVE",
"787 366 OFFCURVE",
"788 399 CURVE",
"745 399 LINE",
"742 378 OFFCURVE",
"738 346 OFFCURVE",
"733 330 CURVE",
"725 328 OFFCURVE",
"708 327 OFFCURVE",
"687 327 CURVE SMOOTH",
"611 327 LINE SMOOTH",
"593 327 OFFCURVE",
"573 328 OFFCURVE",
"551 329 CURVE",
"551 275 LINE",
"573 276 OFFCURVE",
"593 277 OFFCURVE",
"611 277 CURVE SMOOTH",
"687 277 LINE SMOOTH",
"708 277 OFFCURVE",
"725 276 OFFCURVE",
"733 274 CURVE",
"738 258 OFFCURVE",
"742 225 OFFCURVE",
"745 205 CURVE"
);
}
);
width = 928;
},
{
anchors = (
{
name = bottom;
position = "{531, 0}";
},
{
name = top;
position = "{531, 587}";
}
);
background = {
anchors = (
{
name = bottom;
position = "{1432, 0}";
},
{
name = top;
position = "{1432, 587}";
}
);
paths = (
{
closed = 1;
nodes = (
"1328 -9 OFFCURVE",
"1369 0 OFFCURVE",
"1413 0 CURVE SMOOTH",
"1626 0 LINE SMOOTH",
"1668 0 OFFCURVE",
"1732 -4 OFFCURVE",
"1767 -6 CURVE",
"1812 157 LINE",
"1755 168 LINE",
"1735 130 OFFCURVE",
"1718 94 OFFCURVE",
"1700 64 CURVE",
"1680 60 OFFCURVE",
"1671 60 OFFCURVE",
"1629 60 CURVE SMOOTH",
"1591 60 LINE SMOOTH",
"1551 60 OFFCURVE",
"1528 62 OFFCURVE",
"1503 65 CURVE",
"1501 82 OFFCURVE",
"1500 126 OFFCURVE",
"1500 194 CURVE SMOOTH",
"1500 402 LINE SMOOTH",
"1500 469 OFFCURVE",
"1501 513 OFFCURVE",
"1503 528 CURVE",
"1521 531 OFFCURVE",
"1548 532 OFFCURVE",
"1569 532 CURVE SMOOTH",
"1628 532 LINE SMOOTH",
"1644 532 OFFCURVE",
"1656 531 OFFCURVE",
"1674 528 CURVE",
"1687 500 OFFCURVE",
"1695 474 OFFCURVE",
"1711 435 CURVE",
"1771 443 LINE",
"1742 592 LINE",
"1708 591 OFFCURVE",
"1630 587 OFFCURVE",
"1588 587 CURVE SMOOTH",
"1415 587 LINE SMOOTH",
"1376 587 OFFCURVE",
"1335 594 OFFCURVE",
"1299 594 CURVE SMOOTH",
"1052 594 OFFCURVE",
"947 443 OFFCURVE",
"947 287 CURVE SMOOTH",
"947 104 OFFCURVE",
"1083 -9 OFFCURVE",
"1281 -9 CURVE SMOOTH"
);
},
{
closed = 1;
nodes = (
"1185 63 OFFCURVE",
"1109 151 OFFCURVE",
"1109 306 CURVE SMOOTH",
"1109 415 OFFCURVE",
"1159 526 OFFCURVE",
"1293 526 CURVE SMOOTH",
"1312 526 OFFCURVE",
"1340 523 OFFCURVE",
"1357 515 CURVE",
"1359 506 OFFCURVE",
"1363 453 OFFCURVE",
"1363 373 CURVE SMOOTH",
"1363 225 LINE SMOOTH",
"1363 140 OFFCURVE",
"1360 85 OFFCURVE",
"1359 74 CURVE",
"1343 70 OFFCURVE",
"1316 63 OFFCURVE",
"1296 63 CURVE SMOOTH"
);
},
{
closed = 1;
nodes = (
"1696 199 LINE",
"1695 232 OFFCURVE",
"1693 269 OFFCURVE",
"1693 301 CURVE SMOOTH",
"1693 334 OFFCURVE",
"1695 367 OFFCURVE",
"1696 401 CURVE",
"1640 401 LINE",
"1637 380 OFFCURVE",
"1631 343 OFFCURVE",
"1628 335 CURVE",
"1620 335 OFFCURVE",
"1598 333 OFFCURVE",
"1571 333 CURVE SMOOTH",
"1534 333 LINE SMOOTH",
"1510 333 OFFCURVE",
"1489 335 OFFCURVE",
"1478 336 CURVE",
"1478 266 LINE",
"1489 267 OFFCURVE",
"1510 269 OFFCURVE",
"1534 269 CURVE SMOOTH",
"1571 269 LINE SMOOTH",
"1598 269 OFFCURVE",
"1620 267 OFFCURVE",
"1628 267 CURVE",
"1631 259 OFFCURVE",
"1637 219 OFFCURVE",
"1640 199 CURVE"
);
},
{
closed = 1;
nodes = (
"912 157 LINE",
"855 168 LINE",
"836 130 OFFCURVE",
"819 98 OFFCURVE",
"800 68 CURVE",
"781 64 OFFCURVE",
"771 64 OFFCURVE",
"729 64 CURVE SMOOTH",
"690 64 LINE SMOOTH",
"649 64 OFFCURVE",
"626 66 OFFCURVE",
"602 69 CURVE",
"600 86 OFFCURVE",
"599 126 OFFCURVE",
"599 194 CURVE SMOOTH",
"599 402 LINE SMOOTH",
"599 469 OFFCURVE",
"600 509 OFFCURVE",
"602 524 CURVE",
"619 527 OFFCURVE",
"647 528 OFFCURVE",
"667 528 CURVE SMOOTH",
"728 528 LINE SMOOTH",
"744 528 OFFCURVE",
"756 527 OFFCURVE",
"774 524 CURVE",
"788 496 OFFCURVE",
"797 474 OFFCURVE",
"812 435 CURVE",
"870 443 LINE",
"843 592 LINE",
"808 591 OFFCURVE",
"731 587 OFFCURVE",
"689 587 CURVE SMOOTH",
"531 587 LINE SMOOTH",
"488 587 OFFCURVE",
"425 589 OFFCURVE",
"395 591 CURVE",
"392 536 LINE",
"417 535 OFFCURVE",
"445 529 OFFCURVE",
"456 520 CURVE",
"460 513 OFFCURVE",
"463 451 OFFCURVE",
"463 366 CURVE SMOOTH",
"463 221 LINE SMOOTH",
"463 137 OFFCURVE",
"460 75 OFFCURVE",
"456 67 CURVE",
"445 59 OFFCURVE",
"417 54 OFFCURVE",
"392 50 CURVE",
"395 -5 LINE",
"425 -2 OFFCURVE",
"488 0 OFFCURVE",
"531 0 CURVE SMOOTH",
"727 0 LINE SMOOTH",
"769 0 OFFCURVE",
"832 -4 OFFCURVE",
"867 -6 CURVE"
);
},
{
closed = 1;
nodes = (
"796 199 LINE",
"795 232 OFFCURVE",
"793 269 OFFCURVE",
"793 301 CURVE SMOOTH",
"793 334 OFFCURVE",
"795 368 OFFCURVE",
"796 402 CURVE",
"739 402 LINE",
"737 381 OFFCURVE",
"732 344 OFFCURVE",
"729 336 CURVE",
"720 336 OFFCURVE",
"698 334 OFFCURVE",
"672 334 CURVE SMOOTH",
"633 334 LINE SMOOTH",
"609 334 OFFCURVE",
"588 336 OFFCURVE",
"577 337 CURVE",
"577 266 LINE",
"588 267 OFFCURVE",
"609 269 OFFCURVE",
"633 269 CURVE SMOOTH",
"672 269 LINE SMOOTH",
"698 269 OFFCURVE",
"720 267 OFFCURVE",
"729 267 CURVE",
"732 259 OFFCURVE",
"737 219 OFFCURVE",
"739 199 CURVE"
);
}
);
};
color = -1;
layerId = "C0B3E82F-C341-4413-A405-AFA97EAADFAC";
paths = (
{
closed = 1;
nodes = (
"428 -9 OFFCURVE",
"469 0 OFFCURVE",
"523 0 CURVE SMOOTH",
"726 0 LINE SMOOTH",
"768 0 OFFCURVE",
"832 -4 OFFCURVE",
"867 -6 CURVE",
"912 157 LINE",
"855 168 LINE",
"836 130 OFFCURVE",
"819 98 OFFCURVE",
"800 68 CURVE",
"780 64 OFFCURVE",
"771 64 OFFCURVE",
"729 64 CURVE SMOOTH",
"690 64 LINE SMOOTH",
"649 64 OFFCURVE",
"626 66 OFFCURVE",
"602 69 CURVE",
"600 86 OFFCURVE",
"599 126 OFFCURVE",
"599 194 CURVE SMOOTH",
"599 402 LINE SMOOTH",
"599 469 OFFCURVE",
"600 509 OFFCURVE",
"602 524 CURVE",
"620 527 OFFCURVE",
"646 528 OFFCURVE",
"667 528 CURVE SMOOTH",
"728 528 LINE SMOOTH",
"744 528 OFFCURVE",
"756 527 OFFCURVE",
"774 524 CURVE",
"788 496 OFFCURVE",
"797 474 OFFCURVE",
"812 435 CURVE",
"870 443 LINE",
"843 592 LINE",
"808 591 OFFCURVE",
"731 587 OFFCURVE",
"689 587 CURVE SMOOTH",
"525 587 LINE SMOOTH",
"476 587 OFFCURVE",
"435 593 OFFCURVE",
"399 593 CURVE SMOOTH",
"152 593 OFFCURVE",
"47 443 OFFCURVE",
"47 287 CURVE SMOOTH",
"47 104 OFFCURVE",
"183 -9 OFFCURVE",
"381 -9 CURVE SMOOTH"
);
},
{
closed = 1;
nodes = (
"285 65 OFFCURVE",
"209 151 OFFCURVE",
"209 306 CURVE SMOOTH",
"209 415 OFFCURVE",
"259 526 OFFCURVE",
"392 526 CURVE SMOOTH",
"412 526 OFFCURVE",
"439 523 OFFCURVE",
"457 516 CURVE",
"459 506 OFFCURVE",
"463 453 OFFCURVE",
"463 373 CURVE SMOOTH",
"463 225 LINE SMOOTH",
"463 140 OFFCURVE",
"460 85 OFFCURVE",
"459 74 CURVE",
"443 70 OFFCURVE",
"416 65 OFFCURVE",
"396 65 CURVE SMOOTH"
);
},
{
closed = 1;
nodes = (
"796 199 LINE",
"795 232 OFFCURVE",
"793 269 OFFCURVE",
"793 301 CURVE SMOOTH",
"793 334 OFFCURVE",
"795 368 OFFCURVE",
"796 402 CURVE",
"739 402 LINE",
"737 381 OFFCURVE",
"732 344 OFFCURVE",
"729 336 CURVE",
"720 336 OFFCURVE",
"698 334 OFFCURVE",
"672 334 CURVE SMOOTH",
"633 334 LINE SMOOTH",
"609 334 OFFCURVE",
"588 336 OFFCURVE",
"577 337 CURVE",
"577 266 LINE",
"588 267 OFFCURVE",
"609 269 OFFCURVE",
"633 269 CURVE SMOOTH",
"672 269 LINE SMOOTH",
"698 269 OFFCURVE",
"720 267 OFFCURVE",
"729 267 CURVE",
"732 259 OFFCURVE",
"737 219 OFFCURVE",
"739 199 CURVE"
);
}
);
width = 932;
}
);
note = OE;
unicode = 0152;
},
{
color = 3;
glyphname = P;
lastChange = "2018-05-24 19:57:59 +0000";
layers = (
{
anchors = (
{
name = bottom;
position = "{157, 0}";
},
{
name = top;
position = "{255, 587}";
}
);
background = {
anchors = (
{
name = bottom;
position = "{157, 0}";
},
{
name = top;
position = "{255, 587}";
}
);
paths = (
{
closed = 1;
nodes = (
"81 -1 OFFCURVE",
"134 1 OFFCURVE",
"167 1 CURVE SMOOTH",
"200 1 OFFCURVE",
"252 -1 OFFCURVE",
"283 -3 CURVE",
"285 40 LINE",
"260 43 OFFCURVE",
"217 50 OFFCURVE",
"206 53 CURVE",
"202 59 OFFCURVE",
"199 91 OFFCURVE",
"199 188 CURVE SMOOTH",
"199 409 LINE SMOOTH",
"199 468 OFFCURVE",
"200 529 OFFCURVE",
"201 539 CURVE",
"216 543 OFFCURVE",
"229 544 OFFCURVE",
"254 544 CURVE SMOOTH",
"331 544 OFFCURVE",
"383 494 OFFCURVE",
"383 406 CURVE SMOOTH",
"383 325 OFFCURVE",
"336 286 OFFCURVE",
"268 286 CURVE SMOOTH",
"234 286 OFFCURVE",
"212 292 OFFCURVE",
"183 301 CURVE",
"183 246 LINE",
"205 241 OFFCURVE",
"240 237 OFFCURVE",
"266 237 CURVE SMOOTH",
"378 237 OFFCURVE",
"473 308 OFFCURVE",
"473 419 CURVE SMOOTH",
"473 527 OFFCURVE",
"395 588 OFFCURVE",
"263 588 CURVE SMOOTH",
"224 588 OFFCURVE",
"194 586 OFFCURVE",
"167 586 CURVE SMOOTH",
"121 586 OFFCURVE",
"79 587 OFFCURVE",
"48 588 CURVE",
"46 547 LINE",
"70 546 OFFCURVE",
"101 539 OFFCURVE",
"108 534 CURVE",
"111 528 OFFCURVE",
"114 496 OFFCURVE",
"114 387 CURVE SMOOTH",
"114 199 LINE SMOOTH",
"114 91 OFFCURVE",
"111 59 OFFCURVE",
"108 52 CURVE",
"101 48 OFFCURVE",
"71 40 OFFCURVE",
"51 38 CURVE",
"53 -3 LINE"
);
}
);
};
color = -1;
layerId = "30A8E426-80C1-4FA7-AECB-85F4920FB6F7";
paths = (
{
closed = 1;
nodes = (
"81 -1 OFFCURVE",
"134 1 OFFCURVE",
"167 1 CURVE SMOOTH",
"200 1 OFFCURVE",
"252 -1 OFFCURVE",
"283 -3 CURVE",
"285 39 LINE",
"250 43 OFFCURVE",
"217 50 OFFCURVE",
"206 53 CURVE",
"202 59 OFFCURVE",
"199 91 OFFCURVE",
"199 188 CURVE SMOOTH",
"199 407 LINE SMOOTH",
"199 466 OFFCURVE",
"200 528 OFFCURVE",
"201 538 CURVE",
"219 542 OFFCURVE",
"232 543 OFFCURVE",
"254 543 CURVE SMOOTH",
"326 543 OFFCURVE",
"383 500 OFFCURVE",
"383 405 CURVE SMOOTH",
"383 323 OFFCURVE",
"336 284 OFFCURVE",
"268 284 CURVE SMOOTH",
"234 284 OFFCURVE",
"212 289 OFFCURVE",
"183 297 CURVE",
"183 242 LINE",
"205 238 OFFCURVE",
"230 235 OFFCURVE",
"268 235 CURVE SMOOTH",
"378 235 OFFCURVE",
"473 306 OFFCURVE",
"473 418 CURVE SMOOTH",
"473 527 OFFCURVE",
"395 588 OFFCURVE",
"263 588 CURVE SMOOTH",
"224 588 OFFCURVE",
"194 586 OFFCURVE",
"167 586 CURVE SMOOTH",
"121 586 OFFCURVE",
"79 587 OFFCURVE",
"48 588 CURVE",
"46 547 LINE",
"70 546 OFFCURVE",
"101 539 OFFCURVE",
"108 534 CURVE",
"111 528 OFFCURVE",
"114 496 OFFCURVE",
"114 387 CURVE SMOOTH",
"114 199 LINE SMOOTH",
"114 91 OFFCURVE",
"111 59 OFFCURVE",
"108 52 CURVE",
"101 48 OFFCURVE",
"71 40 OFFCURVE",
"51 38 CURVE",
"53 -3 LINE"
);
}
);
width = 516;
},
{
anchors = (
{
name = bottom;
position = "{172, 0}";
},
{
name = top;
position = "{287, 587}";
}
);
background = {
anchors = (
{
name = bottom;
position = "{172, 0}";
},
{
name = top;
position = "{287, 587}";
}
);
paths = (
{
closed = 1;
nodes = (
"69 -2 OFFCURVE",
"139 -1 OFFCURVE",
"181 -1 CURVE SMOOTH",
"224 -1 OFFCURVE",
"296 -2 OFFCURVE",
"329 -5 CURVE",
"332 52 LINE",
"304 55 OFFCURVE",
"277 59 OFFCURVE",
"247 67 CURVE",
"244 75 OFFCURVE",
"240 137 OFFCURVE",
"240 170 CURVE SMOOTH",
"240 343 LINE SMOOTH",
"240 467 OFFCURVE",
"240 511 OFFCURVE",
"241 526 CURVE",
"252 530 OFFCURVE",
"264 530 OFFCURVE",
"282 530 CURVE SMOOTH",
"350 530 OFFCURVE",
"391 480 OFFCURVE",
"391 395 CURVE SMOOTH",
"391 326 OFFCURVE",
"357 285 OFFCURVE",
"296 285 CURVE SMOOTH",
"265 285 OFFCURVE",
"241 291 OFFCURVE",
"226 299 CURVE",
"226 228 LINE",
"244 224 OFFCURVE",
"273 220 OFFCURVE",
"292 220 CURVE SMOOTH",
"441 220 OFFCURVE",
"537 304 OFFCURVE",
"537 411 CURVE SMOOTH",
"537 522 OFFCURVE",
"448 588 OFFCURVE",
"301 588 CURVE SMOOTH",
"255 588 OFFCURVE",
"221 586 OFFCURVE",
"187 586 CURVE SMOOTH",
"125 586 OFFCURVE",
"67 586 OFFCURVE",
"37 588 CURVE",
"34 533 LINE",
"59 532 OFFCURVE",
"87 529 OFFCURVE",
"98 520 CURVE",
"102 513 OFFCURVE",
"105 451 OFFCURVE",
"105 366 CURVE SMOOTH",
"105 221 LINE SMOOTH",
"105 137 OFFCURVE",
"102 75 OFFCURVE",
"98 67 CURVE",
"87 59 OFFCURVE",
"61 54 OFFCURVE",
"38 50 CURVE",
"41 -5 LINE"
);
}
);
};
color = -1;
layerId = "C0B3E82F-C341-4413-A405-AFA97EAADFAC";
paths = (
{
closed = 1;
nodes = (
"67 -2 OFFCURVE",
"139 -1 OFFCURVE",
"181 -1 CURVE SMOOTH",
"224 -1 OFFCURVE",
"296 -2 OFFCURVE",
"329 -5 CURVE",
"332 52 LINE",
"304 55 OFFCURVE",
"277 59 OFFCURVE",
"247 67 CURVE",
"244 75 OFFCURVE",
"240 137 OFFCURVE",
"240 170 CURVE SMOOTH",
"240 343 LINE SMOOTH",
"240 467 OFFCURVE",
"240 510 OFFCURVE",
"241 525 CURVE",
"252 528 OFFCURVE",
"264 530 OFFCURVE",
"282 530 CURVE SMOOTH",
"345 530 OFFCURVE",
"391 487 OFFCURVE",
"391 395 CURVE SMOOTH",
"391 326 OFFCURVE",
"357 285 OFFCURVE",
"296 285 CURVE SMOOTH",
"265 285 OFFCURVE",
"241 291 OFFCURVE",
"226 299 CURVE",
"226 227 LINE",
"246 223 OFFCURVE",
"272 220 OFFCURVE",
"296 220 CURVE SMOOTH",
"449 220 OFFCURVE",
"537 304 OFFCURVE",
"537 405 CURVE SMOOTH",
"537 522 OFFCURVE",
"448 588 OFFCURVE",
"301 588 CURVE SMOOTH",
"255 588 OFFCURVE",
"221 586 OFFCURVE",
"187 586 CURVE SMOOTH",
"125 586 OFFCURVE",
"65 586 OFFCURVE",
"35 588 CURVE",
"32 533 LINE",
"57 532 OFFCURVE",
"85 529 OFFCURVE",
"96 520 CURVE",
"100 513 OFFCURVE",
"103 451 OFFCURVE",
"103 366 CURVE SMOOTH",
"103 221 LINE SMOOTH",
"103 137 OFFCURVE",
"100 75 OFFCURVE",
"96 67 CURVE",
"85 59 OFFCURVE",
"59 54 OFFCURVE",
"36 50 CURVE",
"39 -5 LINE"
);
}
);
width = 570;
}
);
leftKerningGroup = B;
note = P;
rightKerningGroup = P;
unicode = 0050;
},
{
color = 3;
glyphname = Thorn;
lastChange = "2018-05-24 20:06:04 +0000";
layers = (
{
background = {
paths = (
{
closed = 1;
nodes = (
"679 -1 OFFCURVE",
"725 2 OFFCURVE",
"758 2 CURVE SMOOTH",
"791 2 OFFCURVE",
"836 -1 OFFCURVE",
"878 -3 CURVE",
"880 40 LINE",
"846 41 OFFCURVE",
"812 48 OFFCURVE",
"804 52 CURVE",
"802 59 OFFCURVE",
"800 82 OFFCURVE",
"800 117 CURVE SMOOTH",
"800 432 LINE",
"813 435 OFFCURVE",
"829 435 OFFCURVE",
"842 435 CURVE SMOOTH",
"933 435 OFFCURVE",
"986 387 OFFCURVE",
"986 298 CURVE SMOOTH",
"986 216 OFFCURVE",
"937 177 OFFCURVE",
"859 177 CURVE SMOOTH",
"835 177 OFFCURVE",
"812 180 OFFCURVE",
"787 188 CURVE",
"787 140 LINE",
"806 134 OFFCURVE",
"838 130 OFFCURVE",
"857 130 CURVE SMOOTH",
"981 130 OFFCURVE",
"1077 199 OFFCURVE",
"1077 310 CURVE SMOOTH",
"1077 421 OFFCURVE",
"997 480 OFFCURVE",
"850 480 CURVE SMOOTH",
"828 480 OFFCURVE",
"806 479 OFFCURVE",
"783 477 CURVE",
"800 451 LINE",
"800 492 LINE SMOOTH",
"800 515 OFFCURVE",
"802 528 OFFCURVE",
"804 534 CURVE",
"812 539 OFFCURVE",
"843 547 OFFCURVE",
"865 548 CURVE",
"863 589 LINE",
"834 587 OFFCURVE",
"791 585 OFFCURVE",
"758 585 CURVE SMOOTH",
"725 585 OFFCURVE",
"679 587 OFFCURVE",
"651 589 CURVE",
"649 548 LINE",
"670 547 OFFCURVE",
"701 539 OFFCURVE",
"708 534 CURVE",
"711 528 OFFCURVE",
"714 496 OFFCURVE",
"714 387 CURVE SMOOTH",
"714 199 LINE SMOOTH",
"714 91 OFFCURVE",
"711 59 OFFCURVE",
"708 52 CURVE",
"701 48 OFFCURVE",
"670 40 OFFCURVE",
"646 38 CURVE",
"648 -3 LINE"
);
},
{
closed = 1;
nodes = (
"81 -108 OFFCURVE",
"134 -106 OFFCURVE",
"167 -106 CURVE SMOOTH",
"200 -106 OFFCURVE",
"252 -108 OFFCURVE",
"283 -110 CURVE",
"285 -68 LINE",
"250 -64 OFFCURVE",
"217 -57 OFFCURVE",
"206 -54 CURVE",
"202 -48 OFFCURVE",
"199 -16 OFFCURVE",
"199 81 CURVE SMOOTH",
"199 300 LINE SMOOTH",
"199 359 OFFCURVE",
"200 421 OFFCURVE",
"201 431 CURVE",
"219 435 OFFCURVE",
"232 436 OFFCURVE",
"254 436 CURVE SMOOTH",
"326 436 OFFCURVE",
"383 393 OFFCURVE",
"383 298 CURVE SMOOTH",
"383 216 OFFCURVE",
"336 177 OFFCURVE",
"268 177 CURVE SMOOTH",
"234 177 OFFCURVE",
"212 182 OFFCURVE",
"183 190 CURVE",
"183 135 LINE",
"205 131 OFFCURVE",
"230 128 OFFCURVE",
"268 128 CURVE SMOOTH",
"378 128 OFFCURVE",
"473 199 OFFCURVE",
"473 311 CURVE SMOOTH",
"473 420 OFFCURVE",
"395 481 OFFCURVE",
"263 481 CURVE SMOOTH",
"224 481 OFFCURVE",
"194 479 OFFCURVE",
"167 479 CURVE SMOOTH",
"121 479 OFFCURVE",
"79 480 OFFCURVE",
"48 481 CURVE",
"46 440 LINE",
"70 439 OFFCURVE",
"101 432 OFFCURVE",
"108 427 CURVE",
"111 421 OFFCURVE",
"114 389 OFFCURVE",
"114 280 CURVE SMOOTH",
"114 92 LINE SMOOTH",
"114 -16 OFFCURVE",
"111 -48 OFFCURVE",
"108 -55 CURVE",
"101 -59 OFFCURVE",
"71 -67 OFFCURVE",
"51 -69 CURVE",
"53 -110 LINE"
);
}
);
};
color = -1;
layerId = "30A8E426-80C1-4FA7-AECB-85F4920FB6F7";
paths = (
{
closed = 1;
nodes = (
"79 -1 OFFCURVE",
"125 2 OFFCURVE",
"158 2 CURVE SMOOTH",
"191 2 OFFCURVE",
"236 -1 OFFCURVE",
"278 -3 CURVE",
"280 40 LINE",
"246 41 OFFCURVE",
"212 48 OFFCURVE",
"204 52 CURVE",
"202 59 OFFCURVE",
"199 82 OFFCURVE",
"199 117 CURVE SMOOTH",
"199 432 LINE",
"216 435 OFFCURVE",
"232 436 OFFCURVE",
"252 436 CURVE SMOOTH",
"326 436 OFFCURVE",
"383 393 OFFCURVE",
"383 298 CURVE SMOOTH",
"383 216 OFFCURVE",
"335 177 OFFCURVE",
"262 177 CURVE SMOOTH",
"233 177 OFFCURVE",
"208 181 OFFCURVE",
"183 188 CURVE",
"183 138 LINE",
"205 133 OFFCURVE",
"240 130 OFFCURVE",
"266 130 CURVE SMOOTH",
"378 130 OFFCURVE",
"473 199 OFFCURVE",
"473 311 CURVE SMOOTH",
"473 420 OFFCURVE",
"395 481 OFFCURVE",
"255 481 CURVE SMOOTH",
"228 481 OFFCURVE",
"206 479 OFFCURVE",
"183 476 CURVE",
"200 451 LINE",
"200 492 LINE SMOOTH",
"200 515 OFFCURVE",
"202 528 OFFCURVE",
"204 534 CURVE",
"212 539 OFFCURVE",
"243 547 OFFCURVE",
"265 548 CURVE",
"263 589 LINE",
"234 587 OFFCURVE",
"191 585 OFFCURVE",
"158 585 CURVE SMOOTH",
"125 585 OFFCURVE",
"79 587 OFFCURVE",
"51 589 CURVE",
"49 548 LINE",
"70 547 OFFCURVE",
"101 539 OFFCURVE",
"108 534 CURVE",
"111 528 OFFCURVE",
"114 496 OFFCURVE",
"114 387 CURVE SMOOTH",
"114 199 LINE SMOOTH",
"114 91 OFFCURVE",
"111 59 OFFCURVE",
"108 52 CURVE",
"101 48 OFFCURVE",
"70 40 OFFCURVE",
"46 38 CURVE",
"48 -3 LINE"
);
}
);
width = 516;
},
{
background = {
paths = (
{
closed = 1;
nodes = (
"665 -2 OFFCURVE",
"717 2 OFFCURVE",
"771 2 CURVE SMOOTH",
"825 2 OFFCURVE",
"878 -2 OFFCURVE",
"919 -5 CURVE",
"922 51 LINE",
"885 54 OFFCURVE",
"857 59 OFFCURVE",
"842 67 CURVE",
"842 75 OFFCURVE",
"840 98 OFFCURVE",
"840 129 CURVE SMOOTH",
"840 428 LINE",
"854 432 OFFCURVE",
"865 432 OFFCURVE",
"875 432 CURVE SMOOTH",
"950 432 OFFCURVE",
"991 382 OFFCURVE",
"991 297 CURVE SMOOTH",
"991 228 OFFCURVE",
"956 188 OFFCURVE",
"893 188 CURVE SMOOTH",
"865 188 OFFCURVE",
"841 191 OFFCURVE",
"825 198 CURVE",
"825 137 LINE",
"844 130 OFFCURVE",
"865 125 OFFCURVE",
"889 125 CURVE SMOOTH",
"1041 125 OFFCURVE",
"1136 206 OFFCURVE",
"1136 312 CURVE SMOOTH",
"1136 428 OFFCURVE",
"1048 489 OFFCURVE",
"894 489 CURVE SMOOTH",
"854 489 OFFCURVE",
"824 486 OFFCURVE",
"806 481 CURVE",
"840 434 LINE",
"840 493 LINE SMOOTH",
"840 506 OFFCURVE",
"842 514 OFFCURVE",
"844 520 CURVE",
"857 529 OFFCURVE",
"883 534 OFFCURVE",
"908 536 CURVE",
"905 591 LINE",
"876 589 OFFCURVE",
"825 586 OFFCURVE",
"771 586 CURVE SMOOTH",
"717 586 OFFCURVE",
"665 589 OFFCURVE",
"634 591 CURVE",
"631 536 LINE",
"657 534 OFFCURVE",
"685 529 OFFCURVE",
"696 520 CURVE",
"700 513 OFFCURVE",
"703 451 OFFCURVE",
"703 366 CURVE SMOOTH",
"703 221 LINE SMOOTH",
"703 137 OFFCURVE",
"700 75 OFFCURVE",
"696 67 CURVE",
"685 59 OFFCURVE",
"657 54 OFFCURVE",
"632 50 CURVE",
"635 -5 LINE"
);
},
{
closed = 1;
nodes = (
"67 -100 OFFCURVE",
"139 -99 OFFCURVE",
"181 -99 CURVE SMOOTH",
"224 -99 OFFCURVE",
"296 -100 OFFCURVE",
"329 -103 CURVE",
"332 -46 LINE",
"304 -43 OFFCURVE",
"277 -39 OFFCURVE",
"247 -31 CURVE",
"244 -23 OFFCURVE",
"240 39 OFFCURVE",
"240 72 CURVE SMOOTH",
"240 245 LINE SMOOTH",
"240 369 OFFCURVE",
"240 412 OFFCURVE",
"241 427 CURVE",
"252 430 OFFCURVE",
"264 432 OFFCURVE",
"282 432 CURVE SMOOTH",
"345 432 OFFCURVE",
"391 389 OFFCURVE",
"391 297 CURVE SMOOTH",
"391 228 OFFCURVE",
"357 187 OFFCURVE",
"296 187 CURVE SMOOTH",
"265 187 OFFCURVE",
"241 193 OFFCURVE",
"226 201 CURVE",
"226 129 LINE",
"246 125 OFFCURVE",
"272 122 OFFCURVE",
"296 122 CURVE SMOOTH",
"449 122 OFFCURVE",
"537 206 OFFCURVE",
"537 307 CURVE SMOOTH",
"537 424 OFFCURVE",
"448 490 OFFCURVE",
"301 490 CURVE SMOOTH",
"255 490 OFFCURVE",
"221 488 OFFCURVE",
"187 488 CURVE SMOOTH",
"125 488 OFFCURVE",
"65 488 OFFCURVE",
"35 490 CURVE",
"32 435 LINE",
"57 434 OFFCURVE",
"85 431 OFFCURVE",
"96 422 CURVE",
"100 415 OFFCURVE",
"103 353 OFFCURVE",
"103 268 CURVE SMOOTH",
"103 123 LINE SMOOTH",
"103 39 OFFCURVE",
"100 -23 OFFCURVE",
"96 -31 CURVE",
"85 -39 OFFCURVE",
"59 -44 OFFCURVE",
"36 -48 CURVE",
"39 -103 LINE"
);
}
);
};
color = -1;
layerId = "C0B3E82F-C341-4413-A405-AFA97EAADFAC";
paths = (
{
closed = 1;
nodes = (
"65 -2 OFFCURVE",
"117 2 OFFCURVE",
"171 2 CURVE SMOOTH",
"225 2 OFFCURVE",
"278 -2 OFFCURVE",
"319 -5 CURVE",
"322 51 LINE",
"285 54 OFFCURVE",
"257 59 OFFCURVE",
"242 67 CURVE",
"242 75 OFFCURVE",
"240 98 OFFCURVE",
"240 129 CURVE SMOOTH",
"240 427 LINE",
"252 430 OFFCURVE",
"264 432 OFFCURVE",
"282 432 CURVE SMOOTH",
"345 432 OFFCURVE",
"391 389 OFFCURVE",
"391 297 CURVE SMOOTH",
"391 228 OFFCURVE",
"357 187 OFFCURVE",
"290 187 CURVE SMOOTH",
"265 187 OFFCURVE",
"241 192 OFFCURVE",
"226 197 CURVE",
"226 132 LINE",
"246 128 OFFCURVE",
"272 125 OFFCURVE",
"298 125 CURVE SMOOTH",
"449 125 OFFCURVE",
"537 206 OFFCURVE",
"537 307 CURVE SMOOTH",
"537 424 OFFCURVE",
"448 490 OFFCURVE",
"295 490 CURVE SMOOTH",
"260 490 OFFCURVE",
"224 486 OFFCURVE",
"206 484 CURVE",
"240 434 LINE",
"240 493 LINE SMOOTH",
"240 506 OFFCURVE",
"242 514 OFFCURVE",
"244 520 CURVE",
"257 529 OFFCURVE",
"283 534 OFFCURVE",
"308 536 CURVE",
"305 591 LINE",
"276 589 OFFCURVE",
"225 586 OFFCURVE",
"171 586 CURVE SMOOTH",
"117 586 OFFCURVE",
"65 589 OFFCURVE",
"34 591 CURVE",
"31 536 LINE",
"57 534 OFFCURVE",
"85 529 OFFCURVE",
"96 520 CURVE",
"100 513 OFFCURVE",
"103 451 OFFCURVE",
"103 366 CURVE SMOOTH",
"103 221 LINE SMOOTH",
"103 137 OFFCURVE",
"100 75 OFFCURVE",
"96 67 CURVE",
"85 59 OFFCURVE",
"57 54 OFFCURVE",
"32 50 CURVE",
"35 -5 LINE"
);
}
);
width = 570;
}
);
leftKerningGroup = B;
note = Thorn;
rightKerningGroup = Thorn;
unicode = 00DE;
},
{
color = 3;
glyphname = Q;
lastChange = "2018-05-24 20:13:25 +0000";
layers = (
{
anchors = (
{
name = bottom;
position = "{344, 0}";
},
{
name = top;
position = "{344, 587}";
}
);
background = {
anchors = (
{
name = bottom;
position = "{1144, 0}";
},
{
name = top;
position = "{1144, 587}";
}
);
paths = (
{
closed = 1;
nodes = (
"356 -6 LINE",
"510 -6 OFFCURVE",
"637 120 OFFCURVE",
"637 298 CURVE SMOOTH",
"637 474 OFFCURVE",
"520 596 OFFCURVE",
"353 596 CURVE SMOOTH",
"181 596 OFFCURVE",
"52 467 OFFCURVE",
"52 291 CURVE SMOOTH",
"52 114 OFFCURVE",
"175 -8 OFFCURVE",
"350 -8 CURVE"
);
},
{
closed = 1;
nodes = (
"649 -135 OFFCURVE",
"695 -123 OFFCURVE",
"729 -103 CURVE",
"720 -63 LINE",
"699 -69 OFFCURVE",
"678 -72 OFFCURVE",
"658 -72 CURVE SMOOTH",
"616 -72 OFFCURVE",
"578 -61 OFFCURVE",
"529 -33 CURVE SMOOTH",
"490 -11 OFFCURVE",
"456 2 OFFCURVE",
"410 7 CURVE",
"278 7 LINE",
"309 -4 OFFCURVE",
"336 -22 OFFCURVE",
"366 -42 CURVE SMOOTH",
"393 -60 OFFCURVE",
"418 -74 OFFCURVE",
"442 -88 CURVE SMOOTH",
"490 -116 OFFCURVE",
"539 -135 OFFCURVE",
"601 -135 CURVE SMOOTH"
);
},
{
closed = 1;
nodes = (
"241 45 OFFCURVE",
"156 155 OFFCURVE",
"156 310 CURVE SMOOTH",
"156 455 OFFCURVE",
"226 545 OFFCURVE",
"341 545 CURVE SMOOTH",
"457 545 OFFCURVE",
"536 435 OFFCURVE",
"536 274 CURVE SMOOTH",
"536 134 OFFCURVE",
"467 45 OFFCURVE",
"360 45 CURVE SMOOTH"
);
}
);
};
color = -1;
layerId = "30A8E426-80C1-4FA7-AECB-85F4920FB6F7";
paths = (
{
closed = 1;
nodes = (
"360 -6 LINE",
"507 -6 OFFCURVE",
"637 119 OFFCURVE",
"637 298 CURVE SMOOTH",
"637 474 OFFCURVE",
"520 596 OFFCURVE",
"353 596 CURVE SMOOTH",
"180 596 OFFCURVE",
"52 466 OFFCURVE",
"52 291 CURVE SMOOTH",
"52 114 OFFCURVE",
"175 -8 OFFCURVE",
"350 -8 CURVE"
);
},
{
closed = 1;
nodes = (
"649 -135 OFFCURVE",
"695 -123 OFFCURVE",
"729 -103 CURVE",
"720 -63 LINE",
"699 -69 OFFCURVE",
"678 -72 OFFCURVE",
"658 -72 CURVE SMOOTH",
"616 -72 OFFCURVE",
"578 -61 OFFCURVE",
"529 -33 CURVE SMOOTH",
"490 -11 OFFCURVE",
"456 2 OFFCURVE",
"410 7 CURVE",
"276 7 LINE",
"320 -5 OFFCURVE",
"390 -58 OFFCURVE",
"434 -83 CURVE SMOOTH",
"504 -123 OFFCURVE",
"546 -135 OFFCURVE",
"601 -135 CURVE SMOOTH"
);
},
{
closed = 1;
nodes = (
"241 45 OFFCURVE",
"156 155 OFFCURVE",
"156 310 CURVE SMOOTH",
"156 456 OFFCURVE",
"226 546 OFFCURVE",
"341 546 CURVE SMOOTH",
"457 546 OFFCURVE",
"536 435 OFFCURVE",
"536 274 CURVE SMOOTH",
"536 134 OFFCURVE",
"467 45 OFFCURVE",
"360 45 CURVE SMOOTH"
);
}
);
width = 689;
},
{
anchors = (
{
name = bottom;
position = "{357, 0}";
},
{
name = top;
position = "{357, 587}";
}
);
background = {
anchors = (
{
name = bottom;
position = "{1057, 0}";
},
{
name = top;
position = "{1057, 587}";
}
);
paths = (
{
closed = 1;
nodes = (
"368 -4 LINE",
"507 -4 OFFCURVE",
"668 95 OFFCURVE",
"668 302 CURVE SMOOTH",
"668 476 OFFCURVE",
"542 596 OFFCURVE",
"364 596 CURVE SMOOTH",
"181 596 OFFCURVE",
"46 466 OFFCURVE",
"46 286 CURVE SMOOTH",
"46 113 OFFCURVE",
"180 -7 OFFCURVE",
"364 -7 CURVE"
);
},
{
closed = 1;
nodes = (
"671 -148 OFFCURVE",
"722 -131 OFFCURVE",
"757 -108 CURVE",
"743 -54 LINE",
"718 -61 OFFCURVE",
"695 -63 OFFCURVE",
"678 -63 CURVE SMOOTH",
"638 -63 OFFCURVE",
"613 -54 OFFCURVE",
"563 -23 CURVE SMOOTH",
"525 1 OFFCURVE",
"478 12 OFFCURVE",
"429 14 CURVE",
"259 14 LINE",
"291 0 OFFCURVE",
"315 -13 OFFCURVE",
"333 -29 CURVE SMOOTH",
"346 -40 OFFCURVE",
"364 -53 OFFCURVE",
"380 -66 CURVE SMOOTH",
"435 -111 OFFCURVE",
"501 -148 OFFCURVE",
"613 -148 CURVE SMOOTH"
);
},
{
closed = 1;
nodes = (
"275 66 OFFCURVE",
"207 168 OFFCURVE",
"207 316 CURVE SMOOTH",
"207 446 OFFCURVE",
"260 529 OFFCURVE",
"352 529 CURVE SMOOTH",
"448 529 OFFCURVE",
"509 428 OFFCURVE",
"509 276 CURVE SMOOTH",
"509 140 OFFCURVE",
"461 66 OFFCURVE",
"371 66 CURVE SMOOTH"
);
}
);
};
color = -1;
layerId = "C0B3E82F-C341-4413-A405-AFA97EAADFAC";
paths = (
{
closed = 1;
nodes = (
"377 -4 LINE",
"502 -4 OFFCURVE",
"668 95 OFFCURVE",
"668 302 CURVE SMOOTH",
"668 475 OFFCURVE",
"543 596 OFFCURVE",
"364 596 CURVE SMOOTH",
"180 596 OFFCURVE",
"46 465 OFFCURVE",
"46 286 CURVE SMOOTH",
"46 114 OFFCURVE",
"179 -7 OFFCURVE",
"364 -7 CURVE"
);
},
{
closed = 1;
nodes = (
"671 -148 OFFCURVE",
"722 -131 OFFCURVE",
"757 -108 CURVE",
"743 -54 LINE",
"718 -61 OFFCURVE",
"695 -63 OFFCURVE",
"678 -63 CURVE SMOOTH",
"638 -63 OFFCURVE",
"613 -54 OFFCURVE",
"563 -23 CURVE SMOOTH",
"525 1 OFFCURVE",
"478 12 OFFCURVE",
"429 14 CURVE",
"259 14 LINE",
"302 -4 OFFCURVE",
"329 -23 OFFCURVE",
"380 -66 CURVE SMOOTH",
"434 -111 OFFCURVE",
"501 -148 OFFCURVE",
"613 -148 CURVE SMOOTH"
);
},
{
closed = 1;
nodes = (
"274 66 OFFCURVE",
"207 169 OFFCURVE",
"207 316 CURVE SMOOTH",
"207 449 OFFCURVE",
"262 529 OFFCURVE",
"352 529 CURVE SMOOTH",
"447 529 OFFCURVE",
"509 429 OFFCURVE",
"509 276 CURVE SMOOTH",
"509 140 OFFCURVE",
"461 66 OFFCURVE",
"371 66 CURVE SMOOTH"
);
}
);
width = 714;
}
);
leftKerningGroup = C;
leftMetricsKey = O;
widthMetricsKey = O;
note = Q;
rightKerningGroup = D;
unicode = 0051;
},
{
color = 3;
glyphname = R;
lastChange = "2018-05-24 20:30:40 +0000";
layers = (
{
anchors = (
{
name = bottom;
position = "{312, 0}";
},
{
name = top;
position = "{269, 587}";
}
);
background = {
anchors = (
{
name = bottom;
position = "{312, 0}";
},
{
name = top;
position = "{269, 587}";
}
);
paths = (
{
closed = 1;
nodes = (
"79 -1 OFFCURVE",
"124 2 OFFCURVE",
"157 2 CURVE SMOOTH",
"190 2 OFFCURVE",
"233 -1 OFFCURVE",
"264 -3 CURVE",
"266 38 LINE",
"243 40 OFFCURVE",
"214 48 OFFCURVE",
"204 52 CURVE",
"201 59 OFFCURVE",
"199 91 OFFCURVE",
"199 199 CURVE SMOOTH",
"199 402 LINE SMOOTH",
"199 488 OFFCURVE",
"199 533 OFFCURVE",
"201 540 CURVE",
"212 544 OFFCURVE",
"235 546 OFFCURVE",
"258 546 CURVE SMOOTH",
"329 546 OFFCURVE",
"373 511 OFFCURVE",
"373 436 CURVE SMOOTH",
"373 361 OFFCURVE",
"323 318 OFFCURVE",
"241 318 CURVE SMOOTH",
"223 318 OFFCURVE",
"208 318 OFFCURVE",
"186 319 CURVE",
"186 273 LINE",
"249 273 LINE SMOOTH",
"373 273 OFFCURVE",
"463 344 OFFCURVE",
"463 444 CURVE SMOOTH",
"463 539 OFFCURVE",
"398 589 OFFCURVE",
"273 589 CURVE SMOOTH",
"222 589 OFFCURVE",
"177 586 OFFCURVE",
"145 586 CURVE SMOOTH",
"112 586 OFFCURVE",
"82 586 OFFCURVE",
"47 588 CURVE",
"45 546 LINE",
"69 547 OFFCURVE",
"100 541 OFFCURVE",
"107 536 CURVE",
"110 530 OFFCURVE",
"113 496 OFFCURVE",
"113 387 CURVE SMOOTH",
"113 199 LINE SMOOTH",
"113 91 OFFCURVE",
"110 59 OFFCURVE",
"107 52 CURVE",
"100 48 OFFCURVE",
"70 40 OFFCURVE",
"47 38 CURVE",
"49 -3 LINE"
);
},
{
closed = 1;
nodes = (
"540 -10 OFFCURVE",
"557 -8 OFFCURVE",
"570 -6 CURVE",
"571 30 LINE",
"524 38 OFFCURVE",
"494 59 OFFCURVE",
"429 148 CURVE SMOOTH",
"321 307 LINE",
"246 290 LINE",
"314 166 LINE SMOOTH",
"387 33 OFFCURVE",
"438 -10 OFFCURVE",
"527 -10 CURVE SMOOTH"
);
}
);
};
color = -1;
layerId = "30A8E426-80C1-4FA7-AECB-85F4920FB6F7";
paths = (
{
closed = 1;
nodes = (
"80 -1 OFFCURVE",
"125 2 OFFCURVE",
"157 2 CURVE SMOOTH",
"190 2 OFFCURVE",
"232 -1 OFFCURVE",
"263 -3 CURVE",
"265 38 LINE",
"242 40 OFFCURVE",
"214 48 OFFCURVE",
"204 52 CURVE",
"201 59 OFFCURVE",
"198 91 OFFCURVE",
"198 199 CURVE SMOOTH",
"198 402 LINE SMOOTH",
"198 488 OFFCURVE",
"198 533 OFFCURVE",
"200 540 CURVE",
"211 544 OFFCURVE",
"234 546 OFFCURVE",
"258 546 CURVE SMOOTH",
"329 546 OFFCURVE",
"373 510 OFFCURVE",
"373 435 CURVE SMOOTH",
"373 361 OFFCURVE",
"324 318 OFFCURVE",
"243 318 CURVE SMOOTH",
"224 318 OFFCURVE",
"208 318 OFFCURVE",
"186 320 CURVE",
"186 273 LINE",
"249 273 LINE SMOOTH",
"373 273 OFFCURVE",
"463 344 OFFCURVE",
"463 444 CURVE SMOOTH",
"463 539 OFFCURVE",
"396 589 OFFCURVE",
"269 589 CURVE SMOOTH",
"220 589 OFFCURVE",
"177 586 OFFCURVE",
"145 586 CURVE SMOOTH",
"113 586 OFFCURVE",
"83 586 OFFCURVE",
"48 588 CURVE",
"46 546 LINE",
"70 547 OFFCURVE",
"101 541 OFFCURVE",
"108 536 CURVE",
"111 530 OFFCURVE",
"114 496 OFFCURVE",
"114 387 CURVE SMOOTH",
"114 199 LINE SMOOTH",
"114 91 OFFCURVE",
"111 59 OFFCURVE",
"110 52 CURVE",
"101 48 OFFCURVE",
"71 40 OFFCURVE",
"49 38 CURVE",
"51 -3 LINE"
);
},
{
closed = 1;
nodes = (
"540 -10 OFFCURVE",
"557 -8 OFFCURVE",
"570 -6 CURVE",
"571 30 LINE",
"524 38 OFFCURVE",
"494 59 OFFCURVE",
"429 148 CURVE SMOOTH",
"321 307 LINE",
"246 290 LINE",
"314 166 LINE SMOOTH",
"387 33 OFFCURVE",
"438 -10 OFFCURVE",
"527 -10 CURVE SMOOTH"
);
}
);
width = 571;
},
{
anchors = (
{
name = bottom;
position = "{334, 0}";
},
{
name = top;
position = "{301, 587}";
}
);
background = {
anchors = (
{
name = bottom;
position = "{334, 0}";
},
{
name = top;
position = "{301, 587}";
}
);
paths = (
{
closed = 1;
nodes = (
"66 -2 OFFCURVE",
"116 2 OFFCURVE",
"170 2 CURVE SMOOTH",
"224 2 OFFCURVE",
"273 -2 OFFCURVE",
"296 -5 CURVE",
"299 50 LINE",
"279 53 OFFCURVE",
"253 58 OFFCURVE",
"242 67 CURVE",
"242 77 OFFCURVE",
"239 137 OFFCURVE",
"239 221 CURVE SMOOTH",
"239 373 LINE SMOOTH",
"239 463 OFFCURVE",
"242 525 OFFCURVE",
"243 531 CURVE",
"253 534 OFFCURVE",
"265 536 OFFCURVE",
"279 536 CURVE SMOOTH",
"333 536 OFFCURVE",
"378 506 OFFCURVE",
"378 437 CURVE SMOOTH",
"378 360 OFFCURVE",
"323 327 OFFCURVE",
"268 327 CURVE SMOOTH",
"259 327 OFFCURVE",
"245 327 OFFCURVE",
"231 327 CURVE",
"231 269 LINE",
"288 269 LINE SMOOTH",
"423 268 OFFCURVE",
"522 340 OFFCURVE",
"522 437 CURVE SMOOTH",
"522 547 OFFCURVE",
"437 590 OFFCURVE",
"295 590 CURVE SMOOTH",
"254 590 OFFCURVE",
"207 586 OFFCURVE",
"175 586 CURVE SMOOTH",
"132 586 OFFCURVE",
"86 586 OFFCURVE",
"34 589 CURVE",
"31 533 LINE",
"56 533 OFFCURVE",
"84 528 OFFCURVE",
"95 519 CURVE",
"99 512 OFFCURVE",
"102 451 OFFCURVE",
"102 366 CURVE SMOOTH",
"102 221 LINE SMOOTH",
"102 137 OFFCURVE",
"100 75 OFFCURVE",
"97 67 CURVE",
"85 59 OFFCURVE",
"58 54 OFFCURVE",
"34 50 CURVE",
"37 -5 LINE"
);
},
{
closed = 1;
nodes = (
"584 -12 OFFCURVE",
"605 -10 OFFCURVE",
"627 -6 CURVE",
"628 41 LINE",
"581 53 OFFCURVE",
"531 94 OFFCURVE",
"498 141 CURVE SMOOTH",
"379 307 LINE",
"267 281 LINE",
"323 158 LINE SMOOTH",
"376 42 OFFCURVE",
"448 -12 OFFCURVE",
"563 -12 CURVE SMOOTH"
);
}
);
};
color = -1;
layerId = "C0B3E82F-C341-4413-A405-AFA97EAADFAC";
paths = (
{
closed = 1;
nodes = (
"67 -2 OFFCURVE",
"117 2 OFFCURVE",
"170 2 CURVE SMOOTH",
"224 2 OFFCURVE",
"273 -2 OFFCURVE",
"296 -5 CURVE",
"299 50 LINE",
"279 53 OFFCURVE",
"254 58 OFFCURVE",
"243 67 CURVE",
"242 79 OFFCURVE",
"239 137 OFFCURVE",
"239 221 CURVE SMOOTH",
"239 373 LINE SMOOTH",
"239 463 OFFCURVE",
"242 525 OFFCURVE",
"243 531 CURVE",
"253 534 OFFCURVE",
"265 536 OFFCURVE",
"279 536 CURVE SMOOTH",
"333 536 OFFCURVE",
"378 506 OFFCURVE",
"378 435 CURVE SMOOTH",
"378 356 OFFCURVE",
"323 323 OFFCURVE",
"268 323 CURVE SMOOTH",
"259 323 OFFCURVE",
"245 324 OFFCURVE",
"231 325 CURVE",
"231 265 LINE",
"288 265 LINE SMOOTH",
"423 265 OFFCURVE",
"522 336 OFFCURVE",
"522 435 CURVE SMOOTH",
"522 547 OFFCURVE",
"437 590 OFFCURVE",
"295 590 CURVE SMOOTH",
"254 590 OFFCURVE",
"207 586 OFFCURVE",
"175 586 CURVE SMOOTH",
"133 586 OFFCURVE",
"87 586 OFFCURVE",
"35 589 CURVE",
"32 533 LINE",
"57 533 OFFCURVE",
"85 528 OFFCURVE",
"96 519 CURVE",
"100 512 OFFCURVE",
"103 451 OFFCURVE",
"103 366 CURVE SMOOTH",
"103 221 LINE SMOOTH",
"103 137 OFFCURVE",
"101 75 OFFCURVE",
"100 67 CURVE",
"86 59 OFFCURVE",
"59 54 OFFCURVE",
"35 50 CURVE",
"38 -5 LINE"
);
},
{
closed = 1;
nodes = (
"584 -12 OFFCURVE",
"605 -10 OFFCURVE",
"627 -6 CURVE",
"628 41 LINE",
"581 53 OFFCURVE",
"541 81 OFFCURVE",
"498 141 CURVE SMOOTH",
"379 307 LINE",
"267 281 LINE",
"323 158 LINE SMOOTH",
"376 42 OFFCURVE",
"448 -12 OFFCURVE",
"563 -12 CURVE SMOOTH"
);
}
);
width = 617;
}
);
leftKerningGroup = B;
note = R;
rightKerningGroup = R;
unicode = 0052;
},
{
color = 3;
glyphname = S;
lastChange = "2018-05-24 20:52:43 +0000";
layers = (
{
anchors = (
{
name = bottom;
position = "{247, 0}";
},
{
name = top;
position = "{247, 587}";
}
);
background = {
anchors = (
{
name = bottom;
position = "{847, 0}";
},
{
name = top;
position = "{847, 587}";
}
);
paths = (
{
closed = 1;
nodes = (
"953 -9 OFFCURVE",
"1041 61 OFFCURVE",
"1041 159 CURVE SMOOTH",
"1041 232 OFFCURVE",
"1001 278 OFFCURVE",
"883 331 CURVE SMOOTH",
"788 374 OFFCURVE",
"755 405 OFFCURVE",
"755 459 CURVE SMOOTH",
"755 513 OFFCURVE",
"797 549 OFFCURVE",
"862 549 CURVE SMOOTH",
"892 549 OFFCURVE",
"918 543 OFFCURVE",
"940 529 CURVE",
"952 503 OFFCURVE",
"959 478 OFFCURVE",
"968 445 CURVE",
"1011 449 LINE",
"1003 574 LINE",
"969 589 OFFCURVE",
"921 597 OFFCURVE",
"872 597 CURVE SMOOTH",
"750 597 OFFCURVE",
"664 530 OFFCURVE",
"664 433 CURVE SMOOTH",
"664 357 OFFCURVE",
"706 311 OFFCURVE",
"824 257 CURVE SMOOTH",
"922 212 OFFCURVE",
"949 184 OFFCURVE",
"949 130 CURVE SMOOTH",
"949 75 OFFCURVE",
"907 41 OFFCURVE",
"844 41 CURVE SMOOTH",
"803 41 OFFCURVE",
"763 53 OFFCURVE",
"731 74 CURVE",
"722 102 OFFCURVE",
"713 130 OFFCURVE",
"703 165 CURVE",
"660 159 LINE",
"660 118 OFFCURVE",
"662 76 OFFCURVE",
"665 30 CURVE",
"704 7 OFFCURVE",
"773 -9 OFFCURVE",
"830 -9 CURVE SMOOTH"
);
},
{
closed = 1;
nodes = (
"353 -9 OFFCURVE",
"443 61 OFFCURVE",
"443 159 CURVE SMOOTH",
"443 230 OFFCURVE",
"401 276 OFFCURVE",
"283 329 CURVE SMOOTH",
"188 372 OFFCURVE",
"153 403 OFFCURVE",
"153 459 CURVE SMOOTH",
"153 513 OFFCURVE",
"197 549 OFFCURVE",
"262 549 CURVE SMOOTH",
"294 549 OFFCURVE",
"320 543 OFFCURVE",
"342 529 CURVE",
"354 503 OFFCURVE",
"361 478 OFFCURVE",
"370 445 CURVE",
"413 449 LINE",
"405 574 LINE",
"371 589 OFFCURVE",
"323 597 OFFCURVE",
"272 597 CURVE SMOOTH",
"150 597 OFFCURVE",
"62 530 OFFCURVE",
"62 433 CURVE SMOOTH",
"62 355 OFFCURVE",
"106 309 OFFCURVE",
"224 255 CURVE SMOOTH",
"323 210 OFFCURVE",
"351 182 OFFCURVE",
"351 130 CURVE SMOOTH",
"351 75 OFFCURVE",
"307 41 OFFCURVE",
"244 41 CURVE SMOOTH",
"203 41 OFFCURVE",
"163 53 OFFCURVE",
"131 74 CURVE",
"122 102 OFFCURVE",
"113 130 OFFCURVE",
"103 165 CURVE",
"60 159 LINE",
"60 118 OFFCURVE",
"62 76 OFFCURVE",
"65 30 CURVE",
"104 7 OFFCURVE",
"173 -9 OFFCURVE",
"230 -9 CURVE SMOOTH"
);
}
);
};
color = -1;
layerId = "30A8E426-80C1-4FA7-AECB-85F4920FB6F7";
paths = (
{
closed = 1;
nodes = (
"355 -9 OFFCURVE",
"445 61 OFFCURVE",
"445 157 CURVE SMOOTH",
"445 338 OFFCURVE",
"151 314 OFFCURVE",
"151 459 CURVE SMOOTH",
"151 513 OFFCURVE",
"195 549 OFFCURVE",
"262 549 CURVE SMOOTH",
"296 549 OFFCURVE",
"322 543 OFFCURVE",
"344 529 CURVE",
"356 503 OFFCURVE",
"363 478 OFFCURVE",
"372 445 CURVE",
"415 449 LINE",
"407 574 LINE",
"373 589 OFFCURVE",
"325 597 OFFCURVE",
"272 597 CURVE SMOOTH",
"148 597 OFFCURVE",
"60 530 OFFCURVE",
"60 433 CURVE SMOOTH",
"60 243 OFFCURVE",
"353 272 OFFCURVE",
"353 130 CURVE SMOOTH",
"353 75 OFFCURVE",
"309 41 OFFCURVE",
"244 41 CURVE SMOOTH",
"201 41 OFFCURVE",
"161 53 OFFCURVE",
"129 74 CURVE",
"120 102 OFFCURVE",
"111 130 OFFCURVE",
"101 165 CURVE",
"58 159 LINE",
"58 118 OFFCURVE",
"60 76 OFFCURVE",
"63 30 CURVE",
"102 7 OFFCURVE",
"171 -9 OFFCURVE",
"230 -9 CURVE SMOOTH"
);
}
);
width = 479;
},
{
anchors = (
{
name = bottom;
position = "{268, 0}";
},
{
name = top;
position = "{268, 587}";
}
);
background = {
paths = (
{
closed = 1;
nodes = (
"1091 -9 OFFCURVE",
"1192 66 OFFCURVE",
"1192 175 CURVE SMOOTH",
"1192 250 OFFCURVE",
"1149 301 OFFCURVE",
"1041 338 CURVE SMOOTH",
"937 374 OFFCURVE",
"900 404 OFFCURVE",
"900 457 CURVE SMOOTH",
"900 506 OFFCURVE",
"941 534 OFFCURVE",
"993 534 CURVE SMOOTH",
"1016 534 OFFCURVE",
"1039 531 OFFCURVE",
"1064 519 CURVE",
"1075 496 OFFCURVE",
"1087 458 OFFCURVE",
"1096 418 CURVE",
"1160 424 LINE",
"1148 571 LINE",
"1111 587 OFFCURVE",
"1049 598 OFFCURVE",
"1003 598 CURVE SMOOTH",
"855 598 OFFCURVE",
"756 525 OFFCURVE",
"756 417 CURVE SMOOTH",
"756 335 OFFCURVE",
"805 283 OFFCURVE",
"920 238 CURVE SMOOTH",
"1022 198 OFFCURVE",
"1045 173 OFFCURVE",
"1045 125 CURVE SMOOTH",
"1045 82 OFFCURVE",
"1012 57 OFFCURVE",
"953 57 CURVE SMOOTH",
"924 57 OFFCURVE",
"883 65 OFFCURVE",
"854 84 CURVE",
"841 118 OFFCURVE",
"829 154 OFFCURVE",
"820 190 CURVE",
"755 184 LINE",
"754 141 OFFCURVE",
"756 94 OFFCURVE",
"759 36 CURVE",
"808 8 OFFCURVE",
"883 -9 OFFCURVE",
"940 -9 CURVE SMOOTH"
);
},
{
closed = 1;
nodes = (
"391 -9 OFFCURVE",
"492 66 OFFCURVE",
"492 175 CURVE SMOOTH",
"492 250 OFFCURVE",
"449 301 OFFCURVE",
"341 338 CURVE SMOOTH",
"237 375 OFFCURVE",
"200 404 OFFCURVE",
"200 457 CURVE SMOOTH",
"200 506 OFFCURVE",
"241 534 OFFCURVE",
"293 534 CURVE SMOOTH",
"316 534 OFFCURVE",
"339 531 OFFCURVE",
"364 519 CURVE",
"375 496 OFFCURVE",
"387 458 OFFCURVE",
"396 418 CURVE",
"460 424 LINE",
"448 571 LINE",
"411 587 OFFCURVE",
"349 598 OFFCURVE",
"303 598 CURVE SMOOTH",
"155 598 OFFCURVE",
"56 525 OFFCURVE",
"56 417 CURVE SMOOTH",
"56 335 OFFCURVE",
"105 283 OFFCURVE",
"220 238 CURVE SMOOTH",
"321 197 OFFCURVE",
"345 173 OFFCURVE",
"345 125 CURVE SMOOTH",
"345 83 OFFCURVE",
"312 57 OFFCURVE",
"253 57 CURVE SMOOTH",
"224 57 OFFCURVE",
"183 65 OFFCURVE",
"154 84 CURVE",
"141 118 OFFCURVE",
"129 154 OFFCURVE",
"120 190 CURVE",
"55 184 LINE",
"54 141 OFFCURVE",
"56 94 OFFCURVE",
"59 36 CURVE",
"108 8 OFFCURVE",
"183 -9 OFFCURVE",
"240 -9 CURVE SMOOTH"
);
}
);
};
color = -1;
layerId = "C0B3E82F-C341-4413-A405-AFA97EAADFAC";
paths = (
{
closed = 1;
nodes = (
"391 -9 OFFCURVE",
"492 66 OFFCURVE",
"492 170 CURVE SMOOTH",
"492 361 OFFCURVE",
"200 325 OFFCURVE",
"200 457 CURVE SMOOTH",
"200 506 OFFCURVE",
"241 534 OFFCURVE",
"293 534 CURVE SMOOTH",
"316 534 OFFCURVE",
"339 531 OFFCURVE",
"364 519 CURVE",
"375 496 OFFCURVE",
"387 458 OFFCURVE",
"396 418 CURVE",
"460 424 LINE",
"448 571 LINE",
"411 587 OFFCURVE",
"349 598 OFFCURVE",
"303 598 CURVE SMOOTH",
"155 598 OFFCURVE",
"56 525 OFFCURVE",
"56 417 CURVE SMOOTH",
"56 214 OFFCURVE",
"345 263 OFFCURVE",
"345 125 CURVE SMOOTH",
"345 83 OFFCURVE",
"312 57 OFFCURVE",
"253 57 CURVE SMOOTH",
"224 57 OFFCURVE",
"183 65 OFFCURVE",
"154 84 CURVE",
"141 118 OFFCURVE",
"129 154 OFFCURVE",
"120 190 CURVE",
"55 184 LINE",
"54 141 OFFCURVE",
"56 94 OFFCURVE",
"59 36 CURVE",
"108 8 OFFCURVE",
"183 -9 OFFCURVE",
"240 -9 CURVE SMOOTH"
);
}
);
width = 513;
}
);
leftKerningGroup = S;
note = S;
rightKerningGroup = S;
unicode = 0053;
},
{
color = 3;
glyphname = Germandbls;
lastChange = "2018-05-24 21:17:26 +0000";
layers = (
{
background = {
paths = (
{
closed = 1;
nodes = (
"73 -1 OFFCURVE",
"116 2 OFFCURVE",
"149 2 CURVE SMOOTH",
"182 2 OFFCURVE",
"225 -1 OFFCURVE",
"255 -3 CURVE",
"257 38 LINE",
"234 39 OFFCURVE",
"205 48 OFFCURVE",
"199 52 CURVE",
"195 59 OFFCURVE",
"192 91 OFFCURVE",
"192 199 CURVE",
"191 378 LINE",
"191 487 OFFCURVE",
"246 547 OFFCURVE",
"335 547 CURVE SMOOTH",
"397 547 OFFCURVE",
"441 519 OFFCURVE",
"459 468 CURVE",
"522 468 LINE",
"487 559 OFFCURVE",
"417 597 OFFCURVE",
"333 597 CURVE SMOOTH",
"196 597 OFFCURVE",
"106 503 OFFCURVE",
"106 359 CURVE",
"107 199 LINE",
"107 91 OFFCURVE",
"103 59 OFFCURVE",
"100 52 CURVE",
"93 48 OFFCURVE",
"63 40 OFFCURVE",
"39 38 CURVE",
"41 -3 LINE"
);
},
{
closed = 1;
nodes = (
"579 -9 OFFCURVE",
"655 47 OFFCURVE",
"655 134 CURVE SMOOTH",
"655 293 OFFCURVE",
"403 266 OFFCURVE",
"403 375 CURVE SMOOTH",
"403 416 OFFCURVE",
"438 446 OFFCURVE",
"501 446 CURVE SMOOTH",
"524 446 OFFCURVE",
"543 444 OFFCURVE",
"561 437 CURVE",
"571 411 OFFCURVE",
"576 388 OFFCURVE",
"584 362 CURVE",
"626 365 LINE",
"619 474 LINE",
"590 484 OFFCURVE",
"543 491 OFFCURVE",
"503 491 CURVE SMOOTH",
"388 491 OFFCURVE",
"317 429 OFFCURVE",
"317 350 CURVE SMOOTH",
"317 188 OFFCURVE",
"568 223 OFFCURVE",
"568 109 CURVE SMOOTH",
"568 66 OFFCURVE",
"533 39 OFFCURVE",
"478 39 CURVE SMOOTH",
"445 39 OFFCURVE",
"409 49 OFFCURVE",
"380 68 CURVE",
"371 93 OFFCURVE",
"363 122 OFFCURVE",
"354 156 CURVE",
"310 150 LINE",
"310 111 OFFCURVE",
"312 67 OFFCURVE",
"316 26 CURVE",
"353 6 OFFCURVE",
"413 -9 OFFCURVE",
"469 -9 CURVE SMOOTH"
);
}
);
};
layerId = "30A8E426-80C1-4FA7-AECB-85F4920FB6F7";
paths = (
{
closed = 1;
nodes = (
"73 -1 OFFCURVE",
"116 2 OFFCURVE",
"149 2 CURVE SMOOTH",
"182 2 OFFCURVE",
"225 -1 OFFCURVE",
"255 -3 CURVE",
"257 38 LINE",
"234 39 OFFCURVE",
"205 48 OFFCURVE",
"199 52 CURVE",
"195 59 OFFCURVE",
"192 91 OFFCURVE",
"192 199 CURVE",
"191 378 LINE",
"191 487 OFFCURVE",
"244 549 OFFCURVE",
"335 549 CURVE SMOOTH",
"397 549 OFFCURVE",
"441 519 OFFCURVE",
"459 468 CURVE",
"522 468 LINE",
"485 559 OFFCURVE",
"417 597 OFFCURVE",
"334 597 CURVE SMOOTH",
"196 597 OFFCURVE",
"106 506 OFFCURVE",
"106 350 CURVE",
"107 199 LINE",
"107 91 OFFCURVE",
"103 59 OFFCURVE",
"100 52 CURVE",
"93 48 OFFCURVE",
"63 40 OFFCURVE",
"39 38 CURVE",
"41 -3 LINE"
);
},
{
closed = 1;
nodes = (
"579 -9 OFFCURVE",
"655 47 OFFCURVE",
"655 134 CURVE SMOOTH",
"655 293 OFFCURVE",
"403 266 OFFCURVE",
"403 375 CURVE SMOOTH",
"403 416 OFFCURVE",
"438 446 OFFCURVE",
"501 446 CURVE SMOOTH",
"524 446 OFFCURVE",
"543 444 OFFCURVE",
"561 437 CURVE",
"571 411 OFFCURVE",
"576 388 OFFCURVE",
"584 362 CURVE",
"626 365 LINE",
"619 474 LINE",
"590 484 OFFCURVE",
"543 491 OFFCURVE",
"503 491 CURVE SMOOTH",
"388 491 OFFCURVE",
"317 429 OFFCURVE",
"317 350 CURVE SMOOTH",
"317 188 OFFCURVE",
"568 223 OFFCURVE",
"568 109 CURVE SMOOTH",
"568 66 OFFCURVE",
"533 39 OFFCURVE",
"478 39 CURVE SMOOTH",
"445 39 OFFCURVE",
"409 49 OFFCURVE",
"380 68 CURVE",
"371 93 OFFCURVE",
"363 122 OFFCURVE",
"354 156 CURVE",
"310 150 LINE",
"310 111 OFFCURVE",
"312 67 OFFCURVE",
"316 26 CURVE",
"353 6 OFFCURVE",
"413 -9 OFFCURVE",
"469 -9 CURVE SMOOTH"
);
}
);
width = 695;
},
{
background = {
paths = (
{
closed = 1;
nodes = (
"67 -2 OFFCURVE",
"107 2 OFFCURVE",
"162 2 CURVE SMOOTH",
"215 2 OFFCURVE",
"263 -2 OFFCURVE",
"286 -4 CURVE",
"287 51 LINE",
"269 54 OFFCURVE",
"250 59 OFFCURVE",
"242 67 CURVE",
"238 75 OFFCURVE",
"235 137 OFFCURVE",
"234 221 CURVE",
"232 365 LINE",
"231 478 OFFCURVE",
"285 533 OFFCURVE",
"368 533 CURVE SMOOTH",
"419 533 OFFCURVE",
"465 517 OFFCURVE",
"487 466 CURVE",
"573 466 LINE",
"535 558 OFFCURVE",
"457 598 OFFCURVE",
"366 598 CURVE SMOOTH",
"197 598 OFFCURVE",
"96 492 OFFCURVE",
"96 332 CURVE",
"97 221 LINE",
"97 137 OFFCURVE",
"94 75 OFFCURVE",
"90 67 CURVE",
"79 59 OFFCURVE",
"60 54 OFFCURVE",
"34 50 CURVE",
"37 -5 LINE"
);
},
{
closed = 1;
nodes = (
"611 -9 OFFCURVE",
"705 55 OFFCURVE",
"705 145 CURVE SMOOTH",
"705 308 OFFCURVE",
"462 286 OFFCURVE",
"462 376 CURVE SMOOTH",
"462 416 OFFCURVE",
"497 435 OFFCURVE",
"540 435 CURVE SMOOTH",
"553 435 OFFCURVE",
"569 434 OFFCURVE",
"582 430 CURVE",
"594 409 OFFCURVE",
"604 376 OFFCURVE",
"611 340 CURVE",
"672 345 LINE",
"662 475 LINE",
"630 487 OFFCURVE",
"569 495 OFFCURVE",
"535 495 CURVE SMOOTH",
"424 495 OFFCURVE",
"333 425 OFFCURVE",
"333 335 CURVE SMOOTH",
"333 166 OFFCURVE",
"574 211 OFFCURVE",
"574 104 CURVE SMOOTH",
"574 67 OFFCURVE",
"536 53 OFFCURVE",
"494 53 CURVE SMOOTH",
"471 53 OFFCURVE",
"445 57 OFFCURVE",
"422 72 CURVE",
"412 97 OFFCURVE",
"401 128 OFFCURVE",
"394 159 CURVE",
"333 152 LINE",
"332 120 OFFCURVE",
"334 69 OFFCURVE",
"336 23 CURVE",
"377 2 OFFCURVE",
"443 -9 OFFCURVE",
"491 -9 CURVE SMOOTH"
);
}
);
};
layerId = "C0B3E82F-C341-4413-A405-AFA97EAADFAC";
paths = (
{
closed = 1;
nodes = (
"67 -2 OFFCURVE",
"107 2 OFFCURVE",
"162 2 CURVE SMOOTH",
"215 2 OFFCURVE",
"263 -2 OFFCURVE",
"286 -4 CURVE",
"287 51 LINE",
"269 54 OFFCURVE",
"250 59 OFFCURVE",
"242 67 CURVE",
"238 75 OFFCURVE",
"235 137 OFFCURVE",
"234 221 CURVE",
"232 365 LINE",
"231 478 OFFCURVE",
"285 533 OFFCURVE",
"371 533 CURVE SMOOTH",
"422 533 OFFCURVE",
"466 514 OFFCURVE",
"488 466 CURVE",
"573 466 LINE",
"535 558 OFFCURVE",
"456 598 OFFCURVE",
"363 598 CURVE SMOOTH",
"196 598 OFFCURVE",
"96 492 OFFCURVE",
"96 332 CURVE",
"97 221 LINE",
"97 137 OFFCURVE",
"94 75 OFFCURVE",
"90 67 CURVE",
"79 59 OFFCURVE",
"60 54 OFFCURVE",
"34 50 CURVE",
"37 -5 LINE"
);
},
{
closed = 1;
nodes = (
"611 -9 OFFCURVE",
"705 55 OFFCURVE",
"705 145 CURVE SMOOTH",
"705 308 OFFCURVE",
"462 286 OFFCURVE",
"462 376 CURVE SMOOTH",
"462 416 OFFCURVE",
"497 435 OFFCURVE",
"540 435 CURVE SMOOTH",
"553 435 OFFCURVE",
"569 434 OFFCURVE",
"582 430 CURVE",
"594 409 OFFCURVE",
"604 376 OFFCURVE",
"611 340 CURVE",
"672 345 LINE",
"662 475 LINE",
"630 487 OFFCURVE",
"569 495 OFFCURVE",
"535 495 CURVE SMOOTH",
"424 495 OFFCURVE",
"333 425 OFFCURVE",
"333 335 CURVE SMOOTH",
"333 166 OFFCURVE",
"574 211 OFFCURVE",
"574 104 CURVE SMOOTH",
"574 67 OFFCURVE",
"536 53 OFFCURVE",
"494 53 CURVE SMOOTH",
"471 53 OFFCURVE",
"445 57 OFFCURVE",
"422 72 CURVE",
"412 97 OFFCURVE",
"401 128 OFFCURVE",
"394 159 CURVE",
"333 152 LINE",
"332 120 OFFCURVE",
"334 69 OFFCURVE",
"336 23 CURVE",
"377 2 OFFCURVE",
"443 -9 OFFCURVE",
"491 -9 CURVE SMOOTH"
);
}
);
width = 729;
}
);
unicode = 1E9E;
},
